SplineFontDB: 3.0
FontName: IsabelleText
FullName: IsabelleText
FamilyName: IsabelleText
Weight: Book
Copyright: 
Version: 
ItalicAngle: 0
UnderlinePosition: -143
UnderlineWidth: 141
Ascent: 1556
Descent: 492
LayerCount: 2
Layer: 0 1 "Back"  1
Layer: 1 1 "Fore"  0
XUID: [1021 906 1711068302 4288927]
FSType: 0
OS2Version: 1
OS2_WeightWidthSlopeOnly: 0
OS2_UseTypoMetrics: 1
CreationTime: 1050361371
ModificationTime: 1456601690
PfmFamily: 17
TTFWeight: 400
TTFWidth: 5
LineGap: 0
VLineGap: 0
Panose: 2 11 6 9 3 8 4 2 2 4
OS2TypoAscent: 0
OS2TypoAOffset: 1
OS2TypoDescent: 0
OS2TypoDOffset: 1
OS2TypoLinegap: 410
OS2WinAscent: 0
OS2WinAOffset: 1
OS2WinDescent: 0
OS2WinDOffset: 1
HheadAscent: 0
HheadAOffset: 1
HheadDescent: 0
HheadDOffset: 1
OS2SubXSize: 1351
OS2SubYSize: 1228
OS2SubXOff: 0
OS2SubYOff: -446
OS2SupXSize: 1351
OS2SupYSize: 1228
OS2SupXOff: 0
OS2SupYOff: 595
OS2StrikeYSize: 141
OS2StrikeYPos: 614
OS2FamilyClass: 2050
OS2Vendor: 'Bits'
OS2CodePages: 00000001.00000000
OS2UnicodeRanges: 800000af.1000204a.00000000.00000000
MarkAttachClasses: 1
DEI: 91125
TtTable: prep
PUSHW_2
 640
 277
PUSHB_3
 148
 93
 5
NPUSHW
 28
 277
 150
 3
 277
 128
 4
 276
 254
 3
 275
 254
 3
 274
 18
 3
 273
 254
 3
 272
 254
 3
 271
 154
 3
 270
 254
 3
 269
PUSHB_3
 235
 71
 5
NPUSHW
 37
 269
 125
 3
 268
 37
 3
 267
 50
 3
 266
 150
 3
 265
 254
 3
 264
 14
 3
 263
 254
 3
 262
 37
 3
 261
 254
 3
 260
 14
 3
 259
 37
 3
 258
 254
 3
 257
NPUSHB
 89
 254
 3
 254
 254
 3
 253
 125
 3
 252
 254
 3
 251
 254
 3
 250
 50
 3
 249
 187
 3
 248
 125
 3
 247
 246
 140
 5
 247
 254
 3
 247
 192
 4
 246
 245
 89
 5
 246
 140
 3
 246
 128
 4
 245
 244
 38
 5
 245
 89
 3
 245
 64
 4
 244
 38
 3
 243
 242
 47
 5
 243
 250
 3
 242
 47
 3
 241
 254
 3
 240
 254
 3
 239
 50
 3
 238
 20
 3
 237
 150
 3
 236
 235
 71
 5
 236
 254
 3
 236
PUSHW_1
 -47
NPUSHB
 255
 4
 235
 71
 3
 234
 233
 100
 5
 234
 150
 3
 233
 100
 3
 232
 254
 3
 231
 230
 27
 5
 231
 254
 3
 230
 27
 3
 229
 254
 3
 228
 107
 3

StartChar: u10000
Encoding: 65536 65536 0
AltUni2: 010000.ffffffff.0
Width: 1233
Flags: W
LayerCount: 2
Fore
SplineSet
104 -362 m 1,0,-1
 104 1444 l 1,1,-1
 1128 1444 l 1,2,-1
 1128 -362 l 1,3,-1
 104 -362 l 1,0,-1
219 -248 m 1,4,-1
 1014 -248 l 1,5,-1
 1014 1329 l 1,6,-1
 219 1329 l 1,7,-1
 219 -248 l 1,4,-1
EndSplineSet
Validated: 1
EndChar

StartChar: exclam
Encoding: 33 33 4
Width: 1233
Flags: W
LayerCount: 2
Fore
SplineSet
516 1493 m 1,0,-1
 719 1493 l 1,1,-1
 719 838 l 1,2,-1
 698 481 l 1,3,-1
 537 481 l 1,4,-1
 516 838 l 1,5,-1
 516 1493 l 1,0,-1
516 254 m 1,6,-1
 719 254 l 1,7,-1
 719 0 l 1,8,-1
 516 0 l 1,9,-1
 516 254 l 1,6,-1
EndSplineSet
Validated: 1
EndChar

StartChar: quotedbl
Encoding: 34 34 5
Width: 1233
Flags: W
LayerCount: 2
Fore
SplineSet
895 1493 m 1,0,-1
 895 938 l 1,1,-1
 721 938 l 1,2,-1
 721 1493 l 1,3,-1
 895 1493 l 1,0,-1
512 1493 m 1,4,-1
 512 938 l 1,5,-1
 338 938 l 1,6,-1
 338 1493 l 1,7,-1
 512 1493 l 1,4,-1
EndSplineSet
Validated: 1
EndChar

StartChar: numbersign
Encoding: 35 35 6
Width: 1233
Flags: W
LayerCount: 2
Fore
SplineSet
684 1470 m 1,0,-1
 580 1055 l 1,1,-1
 825 1055 l 1,2,-1
 930 1470 l 1,3,-1
 1090 1470 l 1,4,-1
 985 1055 l 1,5,-1
 1229 1055 l 1,6,-1
 1229 901 l 1,7,-1
 948 901 l 1,8,-1
 864 567 l 1,9,-1
 1114 567 l 1,10,-1
 1114 414 l 1,11,-1
 825 414 l 1,12,-1
 721 0 l 1,13,-1
 561 0 l 1,14,-1
 666 414 l 1,15,-1
 420 414 l 1,16,-1
 315 0 l 1,17,-1
 156 0 l 1,18,-1
 260 414 l 1,19,-1
 2 414 l 1,20,-1
 2 567 l 1,21,-1
 299 567 l 1,22,-1
 383 901 l 1,23,-1
 117 901 l 1,24,-1
 117 1055 l 1,25,-1
 420 1055 l 1,26,-1
 524 1470 l 1,27,-1
 684 1470 l 1,0,-1
788 901 m 1,28,-1
 543 901 l 1,29,-1
 459 567 l 1,30,-1
 705 567 l 1,31,-1
 788 901 l 1,28,-1
EndSplineSet
Validated: 1
EndChar

StartChar: dollar
Encoding: 36 36 7
Width: 1233
Flags: W
LayerCount: 2
Fore
SplineSet
692 580 m 1,0,-1
 692 146 l 1,1,2
 802 149 802 149 864 207 c 128,-1,3
 926 265 926 265 926 365 c 0,4,5
 926 458 926 458 870 509.5 c 128,-1,6
 814 561 814 561 692 580 c 1,0,-1
592 770 m 1,7,-1
 592 1183 l 1,8,9
 488 1179 488 1179 429.5 1123 c 128,-1,10
 371 1067 371 1067 371 973 c 0,11,12
 371 887 371 887 425.5 837 c 128,-1,13
 480 787 480 787 592 770 c 1,7,-1
692 -301 m 1,14,-1
 592 -301 l 1,15,-1
 591 0 l 1,16,17
 489 5 489 5 388.5 28 c 128,-1,18
 288 51 288 51 190 92 c 1,19,-1
 190 272 l 1,20,21
 290 210 290 210 391.5 177 c 128,-1,22
 493 144 493 144 592 142 c 1,23,-1
 592 600 l 1,24,25
 392 631 392 631 291 722 c 128,-1,26
 190 813 190 813 190 963 c 0,27,28
 190 1120 190 1120 295.5 1213.5 c 128,-1,29
 401 1307 401 1307 592 1321 c 1,30,-1
 592 1556 l 1,31,-1
 692 1556 l 1,32,-1
 693 1321 l 1,33,34
 772 1316 772 1316 853 1301 c 128,-1,35
 934 1286 934 1286 1018 1260 c 1,36,-1
 1018 1087 l 1,37,38
 933 1130 933 1130 852.5 1153.5 c 128,-1,39
 772 1177 772 1177 692 1181 c 1,40,-1
 692 750 l 1,41,42
 898 719 898 719 1006 622 c 128,-1,43
 1114 525 1114 525 1114 371 c 256,44,45
 1114 217 1114 217 997.5 114 c 128,-1,46
 881 11 881 11 693 2 c 1,47,-1
 692 -301 l 1,14,-1
EndSplineSet
Validated: 1
EndChar

StartChar: percent
Encoding: 37 37 8
Width: 1233
Flags: W
LayerCount: 2
Fore
SplineSet
696 319 m 0,0,1
 696 241 696 241 748.5 188 c 128,-1,2
 801 135 801 135 879 135 c 0,3,4
 956 135 956 135 1009.5 188.5 c 128,-1,5
 1063 242 1063 242 1063 319 c 256,6,7
 1063 396 1063 396 1009 450 c 128,-1,8
 955 504 955 504 879 504 c 0,9,10
 801 504 801 504 748.5 451 c 128,-1,11
 696 398 696 398 696 319 c 0,0,1
561 319 m 0,12,13
 561 454 561 454 653 546.5 c 128,-1,14
 745 639 745 639 879 639 c 0,15,16
 943 639 943 639 1000.5 615 c 128,-1,17
 1058 591 1058 591 1104 545 c 0,18,19
 1150 498 1150 498 1175 440 c 128,-1,20
 1200 382 1200 382 1200 319 c 0,21,22
 1200 186 1200 186 1107 93 c 128,-1,23
 1014 0 1014 0 879 0 c 0,24,25
 743 0 743 0 652 91.5 c 128,-1,26
 561 183 561 183 561 319 c 0,12,13
121 465 m 1,27,-1
 86 561 l 1,28,-1
 1128 979 l 1,29,-1
 1169 883 l 1,30,-1
 121 465 l 1,27,-1
168 1112 m 0,31,32
 168 1033 168 1033 220.5 980.5 c 128,-1,33
 273 928 273 928 352 928 c 0,34,35
 429 928 429 928 483 981.5 c 128,-1,36
 537 1035 537 1035 537 1112 c 256,37,38
 537 1189 537 1189 483 1242.5 c 128,-1,39
 429 1296 429 1296 352 1296 c 256,40,41
 275 1296 275 1296 221.5 1243 c 128,-1,42
 168 1190 168 1190 168 1112 c 0,31,32
33 1112 m 256,43,44
 33 1247 33 1247 125 1339.5 c 128,-1,45
 217 1432 217 1432 352 1432 c 0,46,47
 416 1432 416 1432 474.5 1408 c 128,-1,48
 533 1384 533 1384 578 1339 c 256,49,50
 623 1294 623 1294 647.5 1235.5 c 128,-1,51
 672 1177 672 1177 672 1112 c 0,52,53
 672 978 672 978 579 885.5 c 128,-1,54
 486 793 486 793 352 793 c 0,55,56
 217 793 217 793 125 885 c 128,-1,57
 33 977 33 977 33 1112 c 256,43,44
EndSplineSet
Validated: 1
EndChar

StartChar: ampersand
Encoding: 38 38 9
Width: 1233
Flags: W
LayerCount: 2
Fore
SplineSet
547 907 m 2,0,-1
 963 348 l 1,1,2
 1002 397 1002 397 1021 472 c 128,-1,3
 1040 547 1040 547 1040 651 c 0,4,5
 1040 683 1040 683 1037 753 c 1,6,-1
 1036 760 l 1,7,-1
 1200 760 l 1,8,-1
 1200 721 l 2,9,10
 1200 560 1200 560 1163 438.5 c 128,-1,11
 1126 317 1126 317 1051 229 c 1,12,-1
 1221 0 l 1,13,-1
 1008 0 l 1,14,-1
 930 109 l 1,15,16
 847 39 847 39 754 5 c 128,-1,17
 661 -29 661 -29 555 -29 c 0,18,19
 339 -29 339 -29 198 105.5 c 128,-1,20
 57 240 57 240 57 444 c 0,21,22
 57 581 57 581 126 698 c 128,-1,23
 195 815 195 815 334 915 c 1,24,25
 284 987 284 987 260 1056 c 128,-1,26
 236 1125 236 1125 236 1196 c 0,27,28
 236 1346 236 1346 335.5 1433 c 128,-1,29
 435 1520 435 1520 608 1520 c 0,30,31
 673 1520 673 1520 738.5 1508 c 128,-1,32
 804 1496 804 1496 874 1473 c 1,33,-1
 874 1290 l 1,34,35
 815 1329 815 1329 752.5 1347.5 c 128,-1,36
 690 1366 690 1366 621 1366 c 0,37,38
 524 1366 524 1366 468 1320.5 c 128,-1,39
 412 1275 412 1275 412 1198 c 0,40,41
 412 1139 412 1139 441 1074.5 c 128,-1,42
 470 1010 470 1010 547 907 c 2,0,-1
416 803 m 1,43,44
 324 730 324 730 278.5 648.5 c 128,-1,45
 233 567 233 567 233 475 c 0,46,47
 233 324 233 324 333 224.5 c 128,-1,48
 433 125 433 125 588 125 c 0,49,50
 630 125 630 125 676 137 c 128,-1,51
 722 149 722 149 766 172 c 0,52,53
 793 187 793 187 810.5 198.5 c 128,-1,54
 828 210 828 210 844 223 c 1,55,-1
 416 803 l 1,43,44
EndSplineSet
Validated: 1
EndChar

StartChar: quotesingle
Encoding: 39 39 10
Width: 1233
Flags: W
LayerCount: 2
Fore
SplineSet
702 1493 m 1,0,-1
 702 938 l 1,1,-1
 528 938 l 1,2,-1
 528 1493 l 1,3,-1
 702 1493 l 1,0,-1
EndSplineSet
Validated: 1
EndChar

StartChar: parenleft
Encoding: 40 40 11
Width: 1233
Flags: W
LayerCount: 2
Fore
SplineSet
885 1554 m 1,0,1
 752 1326 752 1326 686.5 1099.5 c 128,-1,2
 621 873 621 873 621 643 c 0,3,4
 621 414 621 414 686.5 187 c 128,-1,5
 752 -40 752 -40 885 -270 c 1,6,-1
 725 -270 l 1,7,8
 574 -32 574 -32 500 193.5 c 128,-1,9
 426 419 426 419 426 643 c 0,10,11
 426 866 426 866 500 1092 c 128,-1,12
 574 1318 574 1318 725 1554 c 1,13,-1
 885 1554 l 1,0,1
EndSplineSet
Validated: 1
EndChar

StartChar: parenright
Encoding: 41 41 12
Width: 1233
Flags: W
LayerCount: 2
Fore
SplineSet
348 1554 m 1,0,-1
 508 1554 l 1,1,2
 659 1318 659 1318 733 1092 c 128,-1,3
 807 866 807 866 807 643 c 0,4,5
 807 418 807 418 733 192 c 128,-1,6
 659 -34 659 -34 508 -270 c 1,7,-1
 348 -270 l 1,8,9
 481 -38 481 -38 546.5 189 c 128,-1,10
 612 416 612 416 612 643 c 0,11,12
 612 871 612 871 546.5 1098 c 128,-1,13
 481 1325 481 1325 348 1554 c 1,0,-1
EndSplineSet
Validated: 1
EndChar

StartChar: asterisk
Encoding: 42 42 13
Width: 1233
Flags: W
LayerCount: 2
Fore
SplineSet
1067 1247 m 1,0,-1
 709 1053 l 1,1,-1
 1067 858 l 1,2,-1
 1010 760 l 1,3,-1
 674 963 l 1,4,-1
 674 586 l 1,5,-1
 559 586 l 1,6,-1
 559 963 l 1,7,-1
 223 760 l 1,8,-1
 166 858 l 1,9,-1
 524 1053 l 1,10,-1
 166 1247 l 1,11,-1
 223 1346 l 1,12,-1
 559 1143 l 1,13,-1
 559 1520 l 1,14,-1
 674 1520 l 1,15,-1
 674 1143 l 1,16,-1
 1010 1346 l 1,17,-1
 1067 1247 l 1,0,-1
EndSplineSet
Validated: 1
EndChar

StartChar: plus
Encoding: 43 43 14
Width: 1233
Flags: W
LayerCount: 2
Fore
SplineSet
700 1171 m 1,0,-1
 700 727 l 1,1,-1
 1145 727 l 1,2,-1
 1145 557 l 1,3,-1
 700 557 l 1,4,-1
 700 113 l 1,5,-1
 532 113 l 1,6,-1
 532 557 l 1,7,-1
 88 557 l 1,8,-1
 88 727 l 1,9,-1
 532 727 l 1,10,-1
 532 1171 l 1,11,-1
 700 1171 l 1,0,-1
EndSplineSet
Validated: 1
EndChar

StartChar: comma
Encoding: 44 44 15
Width: 1233
Flags: W
LayerCount: 2
Fore
SplineSet
502 303 m 1,0,-1
 754 303 l 1,1,-1
 754 96 l 1,2,-1
 557 -287 l 1,3,-1
 403 -287 l 1,4,-1
 502 96 l 1,5,-1
 502 303 l 1,0,-1
EndSplineSet
Validated: 1
EndChar

StartChar: hyphen
Encoding: 45 45 16
Width: 1233
Flags: W
LayerCount: 2
Fore
SplineSet
356 643 m 1,0,-1
 877 643 l 1,1,-1
 877 479 l 1,2,-1
 356 479 l 1,3,-1
 356 643 l 1,0,-1
EndSplineSet
Validated: 1
EndChar

StartChar: period
Encoding: 46 46 17
Width: 1233
Flags: W
LayerCount: 2
Fore
SplineSet
489 305 m 1,0,-1
 741 305 l 1,1,-1
 741 0 l 1,2,-1
 489 0 l 1,3,-1
 489 305 l 1,0,-1
EndSplineSet
Validated: 1
EndChar

StartChar: slash
Encoding: 47 47 18
Width: 1233
Flags: W
LayerCount: 2
Fore
SplineSet
889 1493 m 1,0,-1
 1079 1493 l 1,1,-1
 293 -190 l 1,2,-1
 102 -190 l 1,3,-1
 889 1493 l 1,0,-1
EndSplineSet
Validated: 1
EndChar

StartChar: zero
Encoding: 48 48 19
Width: 1233
Flags: W
LayerCount: 2
Fore
SplineSet
483 750 m 0,0,1
 483 805 483 805 521.5 845 c 128,-1,2
 560 885 560 885 614 885 c 0,3,4
 670 885 670 885 710 845 c 128,-1,5
 750 805 750 805 750 750 c 0,6,7
 750 694 750 694 710.5 655 c 128,-1,8
 671 616 671 616 614 616 c 0,9,10
 558 616 558 616 520.5 654 c 128,-1,11
 483 692 483 692 483 750 c 0,0,1
616 1360 m 0,12,13
 475 1360 475 1360 405.5 1208 c 128,-1,14
 336 1056 336 1056 336 745 c 0,15,16
 336 435 336 435 405.5 283 c 128,-1,17
 475 131 475 131 616 131 c 0,18,19
 758 131 758 131 827.5 283 c 128,-1,20
 897 435 897 435 897 745 c 0,21,22
 897 1056 897 1056 827.5 1208 c 128,-1,23
 758 1360 758 1360 616 1360 c 0,12,13
616 1520 m 256,24,25
 855 1520 855 1520 977.5 1324 c 128,-1,26
 1100 1128 1100 1128 1100 745 c 0,27,28
 1100 363 1100 363 977.5 167 c 128,-1,29
 855 -29 855 -29 616 -29 c 256,30,31
 377 -29 377 -29 255 167 c 128,-1,32
 133 363 133 363 133 745 c 0,33,34
 133 1128 133 1128 255 1324 c 128,-1,35
 377 1520 377 1520 616 1520 c 256,24,25
EndSplineSet
Validated: 1
EndChar

StartChar: one
Encoding: 49 49 20
Width: 1233
Flags: W
LayerCount: 2
Fore
SplineSet
270 170 m 1,0,-1
 584 170 l 1,1,-1
 584 1311 l 1,2,-1
 246 1235 l 1,3,-1
 246 1419 l 1,4,-1
 582 1493 l 1,5,-1
 784 1493 l 1,6,-1
 784 170 l 1,7,-1
 1094 170 l 1,8,-1
 1094 0 l 1,9,-1
 270 0 l 1,10,-1
 270 170 l 1,0,-1
EndSplineSet
Validated: 1
EndChar

StartChar: two
Encoding: 50 50 21
Width: 1233
Flags: W
LayerCount: 2
Fore
SplineSet
373 170 m 1,0,-1
 1059 170 l 1,1,-1
 1059 0 l 1,2,-1
 152 0 l 1,3,-1
 152 170 l 1,4,5
 339 367 339 367 479 518 c 128,-1,6
 619 669 619 669 672 731 c 1,7,8
 772 853 772 853 807 928.5 c 128,-1,9
 842 1004 842 1004 842 1083 c 0,10,11
 842 1208 842 1208 768.5 1279 c 128,-1,12
 695 1350 695 1350 567 1350 c 0,13,14
 476 1350 476 1350 376 1317 c 128,-1,15
 276 1284 276 1284 164 1217 c 1,16,-1
 164 1421 l 1,17,18
 267 1470 267 1470 366.5 1495 c 128,-1,19
 466 1520 466 1520 563 1520 c 0,20,21
 782 1520 782 1520 915.5 1403.5 c 128,-1,22
 1049 1287 1049 1287 1049 1098 c 0,23,24
 1049 1002 1049 1002 1004.5 906 c 128,-1,25
 960 810 960 810 860 694 c 0,26,27
 804 629 804 629 697.5 514 c 128,-1,28
 591 399 591 399 373 170 c 1,0,-1
EndSplineSet
Validated: 1
EndChar

StartChar: three
Encoding: 51 51 22
Width: 1233
Flags: W
LayerCount: 2
Fore
SplineSet
776 799 m 1,0,1
 923 760 923 760 1001 660.5 c 128,-1,2
 1079 561 1079 561 1079 412 c 0,3,4
 1079 206 1079 206 940.5 88.5 c 128,-1,5
 802 -29 802 -29 557 -29 c 0,6,7
 454 -29 454 -29 347 -10 c 128,-1,8
 240 9 240 9 137 45 c 1,9,-1
 137 246 l 1,10,11
 239 193 239 193 338 167 c 128,-1,12
 437 141 437 141 535 141 c 0,13,14
 701 141 701 141 790 216 c 128,-1,15
 879 291 879 291 879 432 c 0,16,17
 879 562 879 562 790 638.5 c 128,-1,18
 701 715 701 715 549 715 c 2,19,-1
 395 715 l 1,20,-1
 395 881 l 1,21,-1
 549 881 l 2,22,23
 688 881 688 881 766 942 c 128,-1,24
 844 1003 844 1003 844 1112 c 0,25,26
 844 1227 844 1227 771.5 1288.5 c 128,-1,27
 699 1350 699 1350 565 1350 c 0,28,29
 476 1350 476 1350 381 1330 c 128,-1,30
 286 1310 286 1310 182 1270 c 1,31,-1
 182 1456 l 1,32,33
 303 1488 303 1488 397.5 1504 c 128,-1,34
 492 1520 492 1520 565 1520 c 0,35,36
 783 1520 783 1520 913.5 1410.5 c 128,-1,37
 1044 1301 1044 1301 1044 1120 c 0,38,39
 1044 997 1044 997 975.5 915 c 128,-1,40
 907 833 907 833 776 799 c 1,0,1
EndSplineSet
Validated: 1
EndChar

StartChar: four
Encoding: 52 52 23
Width: 1233
Flags: W
LayerCount: 2
Fore
SplineSet
735 1309 m 1,0,-1
 264 520 l 1,1,-1
 735 520 l 1,2,-1
 735 1309 l 1,0,-1
702 1493 m 1,3,-1
 936 1493 l 1,4,-1
 936 520 l 1,5,-1
 1135 520 l 1,6,-1
 1135 356 l 1,7,-1
 936 356 l 1,8,-1
 936 0 l 1,9,-1
 735 0 l 1,10,-1
 735 356 l 1,11,-1
 102 356 l 1,12,-1
 102 547 l 1,13,-1
 702 1493 l 1,3,-1
EndSplineSet
Validated: 1
EndChar

StartChar: five
Encoding: 53 53 24
Width: 1233
Flags: W
LayerCount: 2
Fore
SplineSet
207 1493 m 1,0,-1
 963 1493 l 1,1,-1
 963 1323 l 1,2,-1
 391 1323 l 1,3,-1
 391 956 l 1,4,5
 434 972 434 972 477.5 979.5 c 128,-1,6
 521 987 521 987 565 987 c 0,7,8
 797 987 797 987 933 850 c 128,-1,9
 1069 713 1069 713 1069 479 c 0,10,11
 1069 243 1069 243 926.5 107 c 128,-1,12
 784 -29 784 -29 537 -29 c 0,13,14
 418 -29 418 -29 319.5 -13 c 128,-1,15
 221 3 221 3 143 35 c 1,16,-1
 143 240 l 1,17,18
 235 190 235 190 328 165.5 c 128,-1,19
 421 141 421 141 518 141 c 0,20,21
 685 141 685 141 775.5 229 c 128,-1,22
 866 317 866 317 866 479 c 0,23,24
 866 639 866 639 772.5 728 c 128,-1,25
 679 817 679 817 512 817 c 0,26,27
 431 817 431 817 354 798.5 c 128,-1,28
 277 780 277 780 207 743 c 1,29,-1
 207 1493 l 1,0,-1
EndSplineSet
Validated: 1
EndChar

StartChar: six
Encoding: 54 54 25
Width: 1233
Flags: W
LayerCount: 2
Fore
SplineSet
991 1460 m 1,0,-1
 991 1274 l 1,1,2
 928 1311 928 1311 857 1330.5 c 128,-1,3
 786 1350 786 1350 709 1350 c 0,4,5
 517 1350 517 1350 418 1205.5 c 128,-1,6
 319 1061 319 1061 319 780 c 1,7,8
 367 880 367 880 452 933.5 c 128,-1,9
 537 987 537 987 647 987 c 0,10,11
 863 987 863 987 981.5 854.5 c 128,-1,12
 1100 722 1100 722 1100 479 c 0,13,14
 1100 237 1100 237 978 104 c 128,-1,15
 856 -29 856 -29 635 -29 c 0,16,17
 375 -29 375 -29 254 157.5 c 128,-1,18
 133 344 133 344 133 745 c 0,19,20
 133 1123 133 1123 278.5 1321.5 c 128,-1,21
 424 1520 424 1520 700 1520 c 0,22,23
 774 1520 774 1520 848 1504.5 c 128,-1,24
 922 1489 922 1489 991 1460 c 1,0,-1
631 829 m 0,25,26
 502 829 502 829 428 736 c 128,-1,27
 354 643 354 643 354 479 c 256,28,29
 354 315 354 315 428 222 c 128,-1,30
 502 129 502 129 631 129 c 0,31,32
 765 129 765 129 833 217.5 c 128,-1,33
 901 306 901 306 901 479 c 0,34,35
 901 653 901 653 833 741 c 128,-1,36
 765 829 765 829 631 829 c 0,25,26
EndSplineSet
Validated: 1
EndChar

StartChar: seven
Encoding: 55 55 26
Width: 1233
Flags: W
LayerCount: 2
Fore
SplineSet
139 1493 m 1,0,-1
 1079 1493 l 1,1,-1
 1079 1407 l 1,2,-1
 545 0 l 1,3,-1
 334 0 l 1,4,-1
 854 1323 l 1,5,-1
 139 1323 l 1,6,-1
 139 1493 l 1,0,-1
EndSplineSet
Validated: 1
EndChar

StartChar: eight
Encoding: 56 56 27
Width: 1233
Flags: W
LayerCount: 2
Fore
SplineSet
616 709 m 0,0,1
 481 709 481 709 407.5 633.5 c 128,-1,2
 334 558 334 558 334 420 c 256,3,4
 334 282 334 282 408.5 205.5 c 128,-1,5
 483 129 483 129 616 129 c 0,6,7
 752 129 752 129 825.5 204.5 c 128,-1,8
 899 280 899 280 899 420 c 0,9,10
 899 557 899 557 824.5 633 c 128,-1,11
 750 709 750 709 616 709 c 0,0,1
440 793 m 1,12,13
 311 826 311 826 238.5 916 c 128,-1,14
 166 1006 166 1006 166 1133 c 0,15,16
 166 1311 166 1311 287 1415.5 c 128,-1,17
 408 1520 408 1520 616 1520 c 0,18,19
 825 1520 825 1520 946 1415.5 c 128,-1,20
 1067 1311 1067 1311 1067 1133 c 0,21,22
 1067 1006 1067 1006 994.5 916 c 128,-1,23
 922 826 922 826 793 793 c 1,24,25
 943 760 943 760 1022.5 660 c 128,-1,26
 1102 560 1102 560 1102 401 c 0,27,28
 1102 199 1102 199 973 85 c 128,-1,29
 844 -29 844 -29 616 -29 c 256,30,31
 388 -29 388 -29 259.5 84.5 c 128,-1,32
 131 198 131 198 131 399 c 0,33,34
 131 559 131 559 210.5 659.5 c 128,-1,35
 290 760 290 760 440 793 c 1,12,13
367 1114 m 0,36,37
 367 994 367 994 431 931 c 128,-1,38
 495 868 495 868 616 868 c 0,39,40
 738 868 738 868 802 931 c 128,-1,41
 866 994 866 994 866 1114 c 0,42,43
 866 1236 866 1236 802.5 1300 c 128,-1,44
 739 1364 739 1364 616 1364 c 0,45,46
 495 1364 495 1364 431 1299.5 c 128,-1,47
 367 1235 367 1235 367 1114 c 0,36,37
EndSplineSet
Validated: 1
EndChar

StartChar: nine
Encoding: 57 57 28
Width: 1233
Flags: W
LayerCount: 2
Fore
SplineSet
596 662 m 0,0,1
 725 662 725 662 798.5 755 c 128,-1,2
 872 848 872 848 872 1012 c 256,3,4
 872 1176 872 1176 798.5 1269 c 128,-1,5
 725 1362 725 1362 596 1362 c 0,6,7
 462 1362 462 1362 394 1273.5 c 128,-1,8
 326 1185 326 1185 326 1012 c 0,9,10
 326 838 326 838 393.5 750 c 128,-1,11
 461 662 461 662 596 662 c 0,0,1
236 31 m 1,12,-1
 236 217 l 1,13,14
 299 180 299 180 370 160.5 c 128,-1,15
 441 141 441 141 518 141 c 0,16,17
 710 141 710 141 808.5 285.5 c 128,-1,18
 907 430 907 430 907 711 c 1,19,20
 860 611 860 611 775 557.5 c 128,-1,21
 690 504 690 504 580 504 c 0,22,23
 364 504 364 504 245.5 637 c 128,-1,24
 127 770 127 770 127 1014 c 0,25,26
 127 1255 127 1255 248.5 1387.5 c 128,-1,27
 370 1520 370 1520 592 1520 c 0,28,29
 852 1520 852 1520 973 1333 c 128,-1,30
 1094 1146 1094 1146 1094 745 c 0,31,32
 1094 368 1094 368 948.5 169.5 c 128,-1,33
 803 -29 803 -29 526 -29 c 0,34,35
 453 -29 453 -29 379 -13.5 c 128,-1,36
 305 2 305 2 236 31 c 1,12,-1
EndSplineSet
Validated: 1
EndChar

StartChar: colon
Encoding: 58 58 29
Width: 1233
Flags: W
LayerCount: 2
Fore
SplineSet
489 1063 m 1,0,-1
 741 1063 l 1,1,-1
 741 760 l 1,2,-1
 489 760 l 1,3,-1
 489 1063 l 1,0,-1
489 305 m 1,4,-1
 741 305 l 1,5,-1
 741 0 l 1,6,-1
 489 0 l 1,7,-1
 489 305 l 1,4,-1
EndSplineSet
Validated: 1
EndChar

StartChar: semicolon
Encoding: 59 59 30
Width: 1233
Flags: W
LayerCount: 2
Fore
SplineSet
502 303 m 1,0,-1
 754 303 l 1,1,-1
 754 96 l 1,2,-1
 557 -287 l 1,3,-1
 403 -287 l 1,4,-1
 502 96 l 1,5,-1
 502 303 l 1,0,-1
489 1063 m 1,6,-1
 741 1063 l 1,7,-1
 741 760 l 1,8,-1
 489 760 l 1,9,-1
 489 1063 l 1,6,-1
EndSplineSet
Validated: 1
EndChar

StartChar: less
Encoding: 60 60 31
Width: 1233
Flags: W
LayerCount: 2
Fore
SplineSet
1145 961 m 1,0,-1
 295 641 l 1,1,-1
 1145 324 l 1,2,-1
 1145 141 l 1,3,-1
 88 559 l 1,4,-1
 88 725 l 1,5,-1
 1145 1143 l 1,6,-1
 1145 961 l 1,0,-1
EndSplineSet
Validated: 1
EndChar

StartChar: equal
Encoding: 61 61 32
Width: 1233
Flags: W
LayerCount: 2
Fore
SplineSet
88 524 m 1,0,-1
 1145 524 l 1,1,-1
 1145 352 l 1,2,-1
 88 352 l 1,3,-1
 88 524 l 1,0,-1
88 930 m 1,4,-1
 1145 930 l 1,5,-1
 1145 760 l 1,6,-1
 88 760 l 1,7,-1
 88 930 l 1,4,-1
EndSplineSet
Validated: 1
EndChar

StartChar: greater
Encoding: 62 62 33
Width: 1233
Flags: W
LayerCount: 2
Fore
SplineSet
88 961 m 1,0,-1
 88 1143 l 1,1,-1
 1145 725 l 1,2,-1
 1145 559 l 1,3,-1
 88 141 l 1,4,-1
 88 324 l 1,5,-1
 938 641 l 1,6,-1
 88 961 l 1,0,-1
EndSplineSet
Validated: 1
EndChar

StartChar: question
Encoding: 63 63 34
Width: 1233
Flags: W
LayerCount: 2
Fore
SplineSet
684 401 m 1,0,-1
 494 401 l 1,1,-1
 494 555 l 2,2,3
 494 653 494 653 524.5 721.5 c 128,-1,4
 555 790 555 790 639 872 c 2,5,-1
 729 961 l 1,6,7
 791 1020 791 1020 814.5 1064 c 128,-1,8
 838 1108 838 1108 838 1157 c 0,9,10
 838 1246 838 1246 772.5 1301 c 128,-1,11
 707 1356 707 1356 598 1356 c 0,12,13
 520 1356 520 1356 431 1321.5 c 128,-1,14
 342 1287 342 1287 244 1219 c 1,15,-1
 244 1407 l 1,16,17
 338 1464 338 1464 433.5 1492 c 128,-1,18
 529 1520 529 1520 633 1520 c 0,19,20
 819 1520 819 1520 929.5 1424 c 128,-1,21
 1040 1328 1040 1328 1040 1167 c 0,22,23
 1040 1091 1040 1091 1006.5 1025.5 c 128,-1,24
 973 960 973 960 879 868 c 2,25,-1
 791 782 l 1,26,27
 722 716 722 716 703 674 c 128,-1,28
 684 632 684 632 684 571 c 2,29,-1
 684 524 l 1,30,-1
 684 401 l 1,0,-1
487 254 m 1,31,-1
 690 254 l 1,32,-1
 690 0 l 1,33,-1
 487 0 l 1,34,-1
 487 254 l 1,31,-1
EndSplineSet
Validated: 1
EndChar

StartChar: at
Encoding: 64 64 35
Width: 1233
Flags: W
LayerCount: 2
Fore
SplineSet
1038 545 m 0,0,1
 1038 674 1038 674 974 751.5 c 128,-1,2
 910 829 910 829 803 829 c 256,3,4
 696 829 696 829 631.5 751.5 c 128,-1,5
 567 674 567 674 567 545 c 0,6,7
 567 415 567 415 631.5 337.5 c 128,-1,8
 696 260 696 260 803 260 c 256,9,10
 910 260 910 260 974 337.5 c 128,-1,11
 1038 415 1038 415 1038 545 c 0,0,1
1178 135 m 1,12,-1
 1034 135 l 1,13,-1
 1034 246 l 1,14,15
 997 183 997 183 931.5 149 c 128,-1,16
 866 115 866 115 784 115 c 0,17,18
 623 115 623 115 517.5 236 c 128,-1,19
 412 357 412 357 412 545 c 256,20,21
 412 733 412 733 517.5 854 c 128,-1,22
 623 975 623 975 784 975 c 0,23,24
 864 975 864 975 931 940 c 128,-1,25
 998 905 998 905 1034 844 c 1,26,-1
 1034 907 l 2,27,28
 1034 1063 1034 1063 946 1158 c 128,-1,29
 858 1253 858 1253 713 1253 c 0,30,31
 467 1253 467 1253 321.5 1061.5 c 128,-1,32
 176 870 176 870 176 543 c 0,33,34
 176 214 176 214 341 19 c 128,-1,35
 506 -176 506 -176 780 -176 c 0,36,37
 834 -176 834 -176 888 -166 c 128,-1,38
 942 -156 942 -156 999 -135 c 1,39,-1
 1047 -270 l 1,40,41
 984 -295 984 -295 922.5 -307 c 128,-1,42
 861 -319 861 -319 803 -319 c 0,43,44
 446 -319 446 -319 236.5 -86 c 128,-1,45
 27 147 27 147 27 543 c 0,46,47
 27 933 27 933 215 1164 c 128,-1,48
 403 1395 403 1395 719 1395 c 0,49,50
 928 1395 928 1395 1053 1262 c 128,-1,51
 1178 1129 1178 1129 1178 905 c 2,52,-1
 1178 135 l 1,12,-1
EndSplineSet
Validated: 1
EndChar

StartChar: A
Encoding: 65 65 36
Width: 1233
Flags: W
LayerCount: 2
Fore
SplineSet
616 1315 m 1,0,-1
 403 551 l 1,1,-1
 829 551 l 1,2,-1
 616 1315 l 1,0,-1
494 1493 m 1,3,-1
 739 1493 l 1,4,-1
 1196 0 l 1,5,-1
 987 0 l 1,6,-1
 877 389 l 1,7,-1
 354 389 l 1,8,-1
 246 0 l 1,9,-1
 37 0 l 1,10,-1
 494 1493 l 1,3,-1
EndSplineSet
Validated: 1
EndChar

StartChar: B
Encoding: 66 66 37
Width: 1233
Flags: W
LayerCount: 2
Fore
SplineSet
369 713 m 1,0,-1
 369 166 l 1,1,-1
 608 166 l 2,2,3
 784 166 784 166 859 227.5 c 128,-1,4
 934 289 934 289 934 430 c 0,5,6
 934 576 934 576 855 644.5 c 128,-1,7
 776 713 776 713 608 713 c 2,8,-1
 369 713 l 1,0,-1
369 1327 m 1,9,-1
 369 877 l 1,10,-1
 604 877 l 2,11,12
 750 877 750 877 815.5 933 c 128,-1,13
 881 989 881 989 881 1114 c 0,14,15
 881 1227 881 1227 816.5 1277 c 128,-1,16
 752 1327 752 1327 604 1327 c 2,17,-1
 369 1327 l 1,9,-1
166 1493 m 1,18,-1
 608 1493 l 2,19,20
 837 1493 837 1493 961 1394 c 128,-1,21
 1085 1295 1085 1295 1085 1114 c 0,22,23
 1085 977 1085 977 1019.5 898 c 128,-1,24
 954 819 954 819 823 799 c 1,25,26
 970 777 970 777 1053.5 673.5 c 128,-1,27
 1137 570 1137 570 1137 410 c 0,28,29
 1137 207 1137 207 1004 103.5 c 128,-1,30
 871 0 871 0 608 0 c 2,31,-1
 166 0 l 1,32,-1
 166 1493 l 1,18,-1
EndSplineSet
Validated: 1
EndChar

StartChar: C
Encoding: 67 67 38
Width: 1233
Flags: W
LayerCount: 2
Fore
SplineSet
1073 53 m 1,0,1
 996 12 996 12 915 -8.5 c 128,-1,2
 834 -29 834 -29 743 -29 c 0,3,4
 456 -29 456 -29 297.5 174 c 128,-1,5
 139 377 139 377 139 745 c 0,6,7
 139 1111 139 1111 298.5 1315.5 c 128,-1,8
 458 1520 458 1520 743 1520 c 0,9,10
 834 1520 834 1520 915 1499.5 c 128,-1,11
 996 1479 996 1479 1073 1438 c 1,12,-1
 1073 1231 l 1,13,14
 999 1292 999 1292 914 1324 c 128,-1,15
 829 1356 829 1356 743 1356 c 0,16,17
 546 1356 546 1356 448 1204 c 128,-1,18
 350 1052 350 1052 350 745 c 0,19,20
 350 439 350 439 448 287 c 128,-1,21
 546 135 546 135 743 135 c 0,22,23
 831 135 831 135 915.5 167 c 128,-1,24
 1000 199 1000 199 1073 260 c 1,25,-1
 1073 53 l 1,0,1
EndSplineSet
Validated: 1
EndChar

StartChar: D
Encoding: 68 68 39
Width: 1233
Flags: W
LayerCount: 2
Fore
SplineSet
436 166 m 2,0,1
 691 166 691 166 792 291.5 c 128,-1,2
 893 417 893 417 893 745 c 0,3,4
 893 1076 893 1076 792.5 1201.5 c 128,-1,5
 692 1327 692 1327 436 1327 c 2,6,-1
 340 1327 l 1,7,-1
 340 166 l 1,8,-1
 436 166 l 2,0,1
440 1493 m 2,9,10
 782 1493 782 1493 944 1311 c 128,-1,11
 1106 1129 1106 1129 1106 745 c 0,12,13
 1106 363 1106 363 944 181.5 c 128,-1,14
 782 0 782 0 440 0 c 2,15,-1
 137 0 l 1,16,-1
 137 1493 l 1,17,-1
 440 1493 l 2,9,10
EndSplineSet
Validated: 1
EndChar

StartChar: E
Encoding: 69 69 40
Width: 1233
Flags: W
LayerCount: 2
Fore
SplineSet
197 1493 m 1,0,-1
 1083 1493 l 1,1,-1
 1083 1323 l 1,2,-1
 399 1323 l 1,3,-1
 399 881 l 1,4,-1
 1053 881 l 1,5,-1
 1053 711 l 1,6,-1
 399 711 l 1,7,-1
 399 170 l 1,8,-1
 1102 170 l 1,9,-1
 1102 0 l 1,10,-1
 197 0 l 1,11,-1
 197 1493 l 1,0,-1
EndSplineSet
Validated: 1
EndChar

StartChar: F
Encoding: 70 70 41
Width: 1233
Flags: W
LayerCount: 2
Fore
SplineSet
233 1493 m 1,0,-1
 1112 1493 l 1,1,-1
 1112 1323 l 1,2,-1
 436 1323 l 1,3,-1
 436 883 l 1,4,-1
 1049 883 l 1,5,-1
 1049 713 l 1,6,-1
 436 713 l 1,7,-1
 436 0 l 1,8,-1
 233 0 l 1,9,-1
 233 1493 l 1,0,-1
EndSplineSet
Validated: 1
EndChar

StartChar: G
Encoding: 71 71 42
Width: 1233
Flags: W
LayerCount: 2
Fore
SplineSet
1104 123 m 1,0,1
 1023 48 1023 48 921.5 9.5 c 128,-1,2
 820 -29 820 -29 702 -29 c 0,3,4
 418 -29 418 -29 260 174.5 c 128,-1,5
 102 378 102 378 102 745 c 0,6,7
 102 1111 102 1111 262 1315.5 c 128,-1,8
 422 1520 422 1520 707 1520 c 0,9,10
 801 1520 801 1520 887 1493.5 c 128,-1,11
 973 1467 973 1467 1053 1413 c 1,12,-1
 1053 1206 l 1,13,14
 972 1283 972 1283 887 1319.5 c 128,-1,15
 802 1356 802 1356 707 1356 c 0,16,17
 510 1356 510 1356 411.5 1203.5 c 128,-1,18
 313 1051 313 1051 313 745 c 0,19,20
 313 434 313 434 408.5 284.5 c 128,-1,21
 504 135 504 135 702 135 c 0,22,23
 769 135 769 135 819.5 150.5 c 128,-1,24
 870 166 870 166 911 199 c 1,25,-1
 911 600 l 1,26,-1
 694 600 l 1,27,-1
 694 766 l 1,28,-1
 1104 766 l 1,29,-1
 1104 123 l 1,0,1
EndSplineSet
Validated: 1
EndChar

StartChar: H
Encoding: 72 72 43
Width: 1233
Flags: W
LayerCount: 2
Fore
SplineSet
137 1493 m 1,0,-1
 340 1493 l 1,1,-1
 340 881 l 1,2,-1
 893 881 l 1,3,-1
 893 1493 l 1,4,-1
 1096 1493 l 1,5,-1
 1096 0 l 1,6,-1
 893 0 l 1,7,-1
 893 711 l 1,8,-1
 340 711 l 1,9,-1
 340 0 l 1,10,-1
 137 0 l 1,11,-1
 137 1493 l 1,0,-1
EndSplineSet
Validated: 1
EndChar

StartChar: I
Encoding: 73 73 44
Width: 1233
Flags: W
LayerCount: 2
Fore
SplineSet
201 1493 m 1,0,-1
 1030 1493 l 1,1,-1
 1030 1323 l 1,2,-1
 717 1323 l 1,3,-1
 717 170 l 1,4,-1
 1030 170 l 1,5,-1
 1030 0 l 1,6,-1
 201 0 l 1,7,-1
 201 170 l 1,8,-1
 514 170 l 1,9,-1
 514 1323 l 1,10,-1
 201 1323 l 1,11,-1
 201 1493 l 1,0,-1
EndSplineSet
Validated: 1
EndChar

StartChar: J
Encoding: 74 74 45
Width: 1233
Flags: W
LayerCount: 2
Fore
SplineSet
109 61 m 1,0,-1
 109 297 l 1,1,2
 200 216 200 216 297 175.5 c 128,-1,3
 394 135 394 135 498 135 c 0,4,5
 641 135 641 135 697.5 209.5 c 128,-1,6
 754 284 754 284 754 487 c 2,7,-1
 754 1323 l 1,8,-1
 373 1323 l 1,9,-1
 373 1493 l 1,10,-1
 956 1493 l 1,11,-1
 956 487 l 2,12,13
 956 205 956 205 850.5 88 c 128,-1,14
 745 -29 745 -29 498 -29 c 0,15,16
 402 -29 402 -29 307 -7 c 128,-1,17
 212 15 212 15 109 61 c 1,0,-1
EndSplineSet
Validated: 1
EndChar

StartChar: K
Encoding: 75 75 46
Width: 1233
Flags: W
LayerCount: 2
Fore
SplineSet
137 1493 m 1,0,-1
 340 1493 l 1,1,-1
 340 829 l 1,2,-1
 971 1493 l 1,3,-1
 1208 1493 l 1,4,-1
 627 883 l 1,5,-1
 1225 0 l 1,6,-1
 981 0 l 1,7,-1
 494 748 l 1,8,-1
 340 584 l 1,9,-1
 340 0 l 1,10,-1
 137 0 l 1,11,-1
 137 1493 l 1,0,-1
EndSplineSet
Validated: 1
EndChar

StartChar: L
Encoding: 76 76 47
Width: 1233
Flags: W
LayerCount: 2
Fore
SplineSet
215 1493 m 1,0,-1
 418 1493 l 1,1,-1
 418 170 l 1,2,-1
 1139 170 l 1,3,-1
 1139 0 l 1,4,-1
 215 0 l 1,5,-1
 215 1493 l 1,0,-1
EndSplineSet
Validated: 1
EndChar

StartChar: M
Encoding: 77 77 48
Width: 1233
Flags: W
LayerCount: 2
Fore
SplineSet
86 1493 m 1,0,-1
 356 1493 l 1,1,-1
 614 733 l 1,2,-1
 874 1493 l 1,3,-1
 1145 1493 l 1,4,-1
 1145 0 l 1,5,-1
 958 0 l 1,6,-1
 958 1319 l 1,7,-1
 692 532 l 1,8,-1
 539 532 l 1,9,-1
 272 1319 l 1,10,-1
 272 0 l 1,11,-1
 86 0 l 1,12,-1
 86 1493 l 1,0,-1
EndSplineSet
Validated: 1
EndChar

StartChar: N
Encoding: 78 78 49
Width: 1233
Flags: W
LayerCount: 2
Fore
SplineSet
139 1493 m 1,0,-1
 395 1493 l 1,1,-1
 899 264 l 1,2,-1
 899 1493 l 1,3,-1
 1094 1493 l 1,4,-1
 1094 0 l 1,5,-1
 838 0 l 1,6,-1
 334 1229 l 1,7,-1
 334 0 l 1,8,-1
 139 0 l 1,9,-1
 139 1493 l 1,0,-1
EndSplineSet
Validated: 1
EndChar

StartChar: O
Encoding: 79 79 50
Width: 1233
Flags: W
LayerCount: 2
Fore
SplineSet
905 745 m 256,0,1
 905 1074 905 1074 837.5 1215 c 128,-1,2
 770 1356 770 1356 616 1356 c 0,3,4
 463 1356 463 1356 395.5 1215 c 128,-1,5
 328 1074 328 1074 328 745 c 0,6,7
 328 417 328 417 395.5 276 c 128,-1,8
 463 135 463 135 616 135 c 0,9,10
 770 135 770 135 837.5 275.5 c 128,-1,11
 905 416 905 416 905 745 c 256,0,1
1116 745 m 0,12,13
 1116 355 1116 355 992.5 163 c 128,-1,14
 869 -29 869 -29 616 -29 c 256,15,16
 363 -29 363 -29 240 162 c 128,-1,17
 117 353 117 353 117 745 c 0,18,19
 117 1136 117 1136 240.5 1328 c 128,-1,20
 364 1520 364 1520 616 1520 c 0,21,22
 869 1520 869 1520 992.5 1328 c 128,-1,23
 1116 1136 1116 1136 1116 745 c 0,12,13
EndSplineSet
Validated: 1
EndChar

StartChar: P
Encoding: 80 80 51
Width: 1233
Flags: W
LayerCount: 2
Fore
SplineSet
399 1327 m 1,0,-1
 399 766 l 1,1,-1
 633 766 l 2,2,3
 773 766 773 766 851.5 840 c 128,-1,4
 930 914 930 914 930 1047 c 256,5,6
 930 1180 930 1180 852 1253.5 c 128,-1,7
 774 1327 774 1327 633 1327 c 2,8,-1
 399 1327 l 1,0,-1
197 1493 m 1,9,-1
 633 1493 l 2,10,11
 883 1493 883 1493 1012 1379.5 c 128,-1,12
 1141 1266 1141 1266 1141 1047 c 0,13,14
 1141 826 1141 826 1012.5 713 c 128,-1,15
 884 600 884 600 633 600 c 2,16,-1
 399 600 l 1,17,-1
 399 0 l 1,18,-1
 197 0 l 1,19,-1
 197 1493 l 1,9,-1
EndSplineSet
Validated: 1
EndChar

StartChar: Q
Encoding: 81 81 52
Width: 1233
Flags: W
LayerCount: 2
Fore
SplineSet
655 -27 m 1,0,1
 648 -27 648 -27 635 -28 c 128,-1,2
 622 -29 622 -29 614 -29 c 0,3,4
 364 -29 364 -29 240.5 163 c 128,-1,5
 117 355 117 355 117 745 c 0,6,7
 117 1136 117 1136 240.5 1328 c 128,-1,8
 364 1520 364 1520 616 1520 c 0,9,10
 869 1520 869 1520 992.5 1328 c 128,-1,11
 1116 1136 1116 1136 1116 745 c 0,12,13
 1116 451 1116 451 1047.5 271.5 c 128,-1,14
 979 92 979 92 840 20 c 1,15,-1
 1040 -170 l 1,16,-1
 889 -270 l 1,17,-1
 655 -27 l 1,0,1
905 745 m 256,18,19
 905 1074 905 1074 837.5 1215 c 128,-1,20
 770 1356 770 1356 616 1356 c 0,21,22
 463 1356 463 1356 395.5 1215 c 128,-1,23
 328 1074 328 1074 328 745 c 0,24,25
 328 417 328 417 395.5 276 c 128,-1,26
 463 135 463 135 616 135 c 0,27,28
 770 135 770 135 837.5 275.5 c 128,-1,29
 905 416 905 416 905 745 c 256,18,19
EndSplineSet
Validated: 1
EndChar

StartChar: R
Encoding: 82 82 53
Width: 1233
Flags: W
LayerCount: 2
Fore
SplineSet
760 705 m 1,0,1
 838 685 838 685 893 629.5 c 128,-1,2
 948 574 948 574 1030 408 c 2,3,-1
 1233 0 l 1,4,-1
 1016 0 l 1,5,-1
 838 377 l 2,6,7
 761 538 761 538 699.5 584.5 c 128,-1,8
 638 631 638 631 539 631 c 2,9,-1
 346 631 l 1,10,-1
 346 0 l 1,11,-1
 143 0 l 1,12,-1
 143 1493 l 1,13,-1
 559 1493 l 2,14,15
 805 1493 805 1493 936 1382 c 128,-1,16
 1067 1271 1067 1271 1067 1061 c 0,17,18
 1067 913 1067 913 986.5 819.5 c 128,-1,19
 906 726 906 726 760 705 c 1,0,1
346 1327 m 1,20,-1
 346 797 l 1,21,-1
 567 797 l 2,22,23
 712 797 712 797 783 862 c 128,-1,24
 854 927 854 927 854 1061 c 0,25,26
 854 1190 854 1190 778.5 1258.5 c 128,-1,27
 703 1327 703 1327 559 1327 c 2,28,-1
 346 1327 l 1,20,-1
EndSplineSet
Validated: 1
EndChar

StartChar: S
Encoding: 83 83 54
Width: 1233
Flags: W
LayerCount: 2
Fore
SplineSet
1012 1442 m 1,0,-1
 1012 1237 l 1,1,2
 920 1296 920 1296 827.5 1326 c 128,-1,3
 735 1356 735 1356 641 1356 c 0,4,5
 498 1356 498 1356 415 1289.5 c 128,-1,6
 332 1223 332 1223 332 1110 c 0,7,8
 332 1011 332 1011 386.5 959 c 128,-1,9
 441 907 441 907 590 872 c 1,10,-1
 696 848 l 1,11,12
 906 799 906 799 1002 694 c 128,-1,13
 1098 589 1098 589 1098 408 c 0,14,15
 1098 195 1098 195 966 83 c 128,-1,16
 834 -29 834 -29 582 -29 c 0,17,18
 477 -29 477 -29 371 -6.5 c 128,-1,19
 265 16 265 16 158 61 c 1,20,-1
 158 276 l 1,21,22
 273 203 273 203 375.5 169 c 128,-1,23
 478 135 478 135 582 135 c 0,24,25
 735 135 735 135 820 203.5 c 128,-1,26
 905 272 905 272 905 395 c 0,27,28
 905 507 905 507 846.5 566 c 128,-1,29
 788 625 788 625 643 657 c 1,30,-1
 535 682 l 1,31,32
 327 729 327 729 233 824 c 128,-1,33
 139 919 139 919 139 1079 c 0,34,35
 139 1279 139 1279 273.5 1399.5 c 128,-1,36
 408 1520 408 1520 631 1520 c 0,37,38
 717 1520 717 1520 812 1500.5 c 128,-1,39
 907 1481 907 1481 1012 1442 c 1,0,-1
EndSplineSet
Validated: 1
EndChar

StartChar: T
Encoding: 84 84 55
Width: 1233
Flags: W
LayerCount: 2
Fore
SplineSet
47 1493 m 1,0,-1
 1186 1493 l 1,1,-1
 1186 1323 l 1,2,-1
 719 1323 l 1,3,-1
 719 0 l 1,4,-1
 516 0 l 1,5,-1
 516 1323 l 1,6,-1
 47 1323 l 1,7,-1
 47 1493 l 1,0,-1
EndSplineSet
Validated: 1
EndChar

StartChar: U
Encoding: 85 85 56
Width: 1233
Flags: W
LayerCount: 2
Fore
SplineSet
147 573 m 2,0,-1
 147 1493 l 1,1,-1
 350 1493 l 1,2,-1
 350 481 l 2,3,4
 350 372 350 372 356 325.5 c 128,-1,5
 362 279 362 279 377 254 c 1,6,7
 409 195 409 195 469.5 165 c 128,-1,8
 530 135 530 135 616 135 c 0,9,10
 703 135 703 135 763 165 c 128,-1,11
 823 195 823 195 856 254 c 0,12,13
 871 279 871 279 877 325 c 128,-1,14
 883 371 883 371 883 479 c 2,15,-1
 883 573 l 1,16,-1
 883 1493 l 1,17,-1
 1085 1493 l 1,18,-1
 1085 573 l 2,19,20
 1085 344 1085 344 1056.5 247.5 c 128,-1,21
 1028 151 1028 151 958 88 c 0,22,23
 892 29 892 29 807 0 c 128,-1,24
 722 -29 722 -29 616 -29 c 0,25,26
 511 -29 511 -29 426 0 c 128,-1,27
 341 29 341 29 274 88 c 0,28,29
 205 150 205 150 176 248.5 c 128,-1,30
 147 347 147 347 147 573 c 2,0,-1
EndSplineSet
Validated: 1
EndChar

StartChar: V
Encoding: 86 86 57
Width: 1233
Flags: W
LayerCount: 2
Fore
SplineSet
616 170 m 1,0,-1
 967 1493 l 1,1,-1
 1176 1493 l 1,2,-1
 739 0 l 1,3,-1
 494 0 l 1,4,-1
 57 1493 l 1,5,-1
 266 1493 l 1,6,-1
 616 170 l 1,0,-1
EndSplineSet
Validated: 1
EndChar

StartChar: W
Encoding: 87 87 58
Width: 1233
Flags: W
LayerCount: 2
Fore
SplineSet
0 1493 m 1,0,-1
 197 1493 l 1,1,-1
 340 281 l 1,2,-1
 510 1083 l 1,3,-1
 721 1083 l 1,4,-1
 893 279 l 1,5,-1
 1036 1493 l 1,6,-1
 1233 1493 l 1,7,-1
 1010 0 l 1,8,-1
 819 0 l 1,9,-1
 616 887 l 1,10,-1
 414 0 l 1,11,-1
 223 0 l 1,12,-1
 0 1493 l 1,0,-1
EndSplineSet
Validated: 1
EndChar

StartChar: X
Encoding: 88 88 59
Width: 1233
Flags: W
LayerCount: 2
Fore
SplineSet
86 1493 m 1,0,-1
 303 1493 l 1,1,-1
 631 930 l 1,2,-1
 965 1493 l 1,3,-1
 1182 1493 l 1,4,-1
 735 791 l 1,5,-1
 1214 0 l 1,6,-1
 997 0 l 1,7,-1
 631 643 l 1,8,-1
 236 0 l 1,9,-1
 18 0 l 1,10,-1
 518 791 l 1,11,-1
 86 1493 l 1,0,-1
EndSplineSet
Validated: 1
EndChar

StartChar: Y
Encoding: 89 89 60
Width: 1233
Flags: W
LayerCount: 2
Fore
SplineSet
37 1493 m 1,0,-1
 252 1493 l 1,1,-1
 616 834 l 1,2,-1
 979 1493 l 1,3,-1
 1196 1493 l 1,4,-1
 717 670 l 1,5,-1
 717 0 l 1,6,-1
 514 0 l 1,7,-1
 514 670 l 1,8,-1
 37 1493 l 1,0,-1
EndSplineSet
Validated: 1
EndChar

StartChar: Z
Encoding: 90 90 61
Width: 1233
Flags: W
LayerCount: 2
Fore
SplineSet
178 1493 m 1,0,-1
 1147 1493 l 1,1,-1
 1147 1339 l 1,2,-1
 367 170 l 1,3,-1
 1169 170 l 1,4,-1
 1169 0 l 1,5,-1
 156 0 l 1,6,-1
 156 154 l 1,7,-1
 915 1323 l 1,8,-1
 178 1323 l 1,9,-1
 178 1493 l 1,0,-1
EndSplineSet
Validated: 1
EndChar

StartChar: bracketleft
Encoding: 91 91 62
Width: 1233
Flags: W
LayerCount: 2
Fore
SplineSet
463 1556 m 1,0,-1
 887 1556 l 1,1,-1
 887 1413 l 1,2,-1
 647 1413 l 1,3,-1
 647 -127 l 1,4,-1
 887 -127 l 1,5,-1
 887 -270 l 1,6,-1
 463 -270 l 1,7,-1
 463 1556 l 1,0,-1
EndSplineSet
Validated: 1
EndChar

StartChar: backslash
Encoding: 92 92 63
Width: 1233
Flags: W
LayerCount: 2
Fore
SplineSet
293 1493 m 1,0,-1
 1079 -190 l 1,1,-1
 889 -190 l 1,2,-1
 102 1493 l 1,3,-1
 293 1493 l 1,0,-1
EndSplineSet
Validated: 1
EndChar

StartChar: bracketright
Encoding: 93 93 64
Width: 1233
Flags: W
LayerCount: 2
Fore
SplineSet
770 1556 m 1,0,-1
 770 -270 l 1,1,-1
 346 -270 l 1,2,-1
 346 -127 l 1,3,-1
 586 -127 l 1,4,-1
 586 1413 l 1,5,-1
 346 1413 l 1,6,-1
 346 1556 l 1,7,-1
 770 1556 l 1,0,-1
EndSplineSet
Validated: 1
EndChar

StartChar: asciicircum
Encoding: 94 94 65
Width: 1233
Flags: W
LayerCount: 2
Fore
SplineSet
705 1493 m 1,0,-1
 1161 936 l 1,1,-1
 983 936 l 1,2,-1
 616 1331 l 1,3,-1
 250 936 l 1,4,-1
 72 936 l 1,5,-1
 528 1493 l 1,6,-1
 705 1493 l 1,0,-1
EndSplineSet
Validated: 1
EndChar

StartChar: underscore
Encoding: 95 95 66
Width: 1233
Flags: W
LayerCount: 2
Fore
SplineSet
1024 -403 m 1,0,-1
 1024 -483 l 1,1,-1
 0 -483 l 1,2,-1
 0 -403 l 1,3,-1
 1024 -403 l 1,0,-1
EndSplineSet
Validated: 1
EndChar

StartChar: grave
Encoding: 96 96 67
Width: 1233
Flags: W
LayerCount: 2
Fore
SplineSet
477 1638 m 1,0,-1
 758 1262 l 1,1,-1
 604 1262 l 1,2,-1
 279 1638 l 1,3,-1
 477 1638 l 1,0,-1
EndSplineSet
Validated: 1
EndChar

StartChar: a
Encoding: 97 97 68
Width: 1233
Flags: W
LayerCount: 2
Fore
SplineSet
702 563 m 1,0,-1
 641 563 l 2,1,2
 480 563 480 563 398.5 506.5 c 128,-1,3
 317 450 317 450 317 338 c 0,4,5
 317 237 317 237 378 181 c 128,-1,6
 439 125 439 125 547 125 c 0,7,8
 699 125 699 125 786 230.5 c 128,-1,9
 873 336 873 336 874 522 c 1,10,-1
 874 563 l 1,11,-1
 702 563 l 1,0,-1
1059 639 m 2,12,-1
 1059 0 l 1,13,-1
 874 0 l 1,14,-1
 874 166 l 1,15,16
 815 66 815 66 725.5 18.5 c 128,-1,17
 636 -29 636 -29 508 -29 c 0,18,19
 337 -29 337 -29 235 67.5 c 128,-1,20
 133 164 133 164 133 326 c 0,21,22
 133 513 133 513 258.5 610 c 128,-1,23
 384 707 384 707 627 707 c 2,24,-1
 874 707 l 1,25,-1
 874 736 l 1,26,27
 873 870 873 870 806 930.5 c 128,-1,28
 739 991 739 991 592 991 c 0,29,30
 498 991 498 991 402 964 c 128,-1,31
 306 937 306 937 215 885 c 1,32,-1
 215 1069 l 1,33,34
 317 1108 317 1108 410.5 1127.5 c 128,-1,35
 504 1147 504 1147 592 1147 c 0,36,37
 731 1147 731 1147 829.5 1106 c 128,-1,38
 928 1065 928 1065 989 983 c 0,39,40
 1027 933 1027 933 1043 859.5 c 128,-1,41
 1059 786 1059 786 1059 639 c 2,12,-1
EndSplineSet
Validated: 1
EndChar

StartChar: b
Encoding: 98 98 69
Width: 1233
Flags: W
LayerCount: 2
Fore
SplineSet
918 559 m 256,0,1
 918 773 918 773 850 882 c 128,-1,2
 782 991 782 991 649 991 c 0,3,4
 515 991 515 991 446 881.5 c 128,-1,5
 377 772 377 772 377 559 c 0,6,7
 377 347 377 347 446 237 c 128,-1,8
 515 127 515 127 649 127 c 0,9,10
 782 127 782 127 850 236 c 128,-1,11
 918 345 918 345 918 559 c 256,0,1
377 977 m 1,12,13
 421 1059 421 1059 498.5 1103 c 128,-1,14
 576 1147 576 1147 678 1147 c 0,15,16
 880 1147 880 1147 996 991.5 c 128,-1,17
 1112 836 1112 836 1112 563 c 0,18,19
 1112 286 1112 286 995.5 128.5 c 128,-1,20
 879 -29 879 -29 676 -29 c 0,21,22
 576 -29 576 -29 499.5 14.5 c 128,-1,23
 423 58 423 58 377 141 c 1,24,-1
 377 0 l 1,25,-1
 193 0 l 1,26,-1
 193 1556 l 1,27,-1
 377 1556 l 1,28,-1
 377 977 l 1,12,13
EndSplineSet
Validated: 1
EndChar

StartChar: c
Encoding: 99 99 70
Width: 1233
Flags: W
LayerCount: 2
Fore
SplineSet
1061 57 m 1,0,1
 987 14 987 14 908.5 -7.5 c 128,-1,2
 830 -29 830 -29 748 -29 c 0,3,4
 488 -29 488 -29 341.5 127 c 128,-1,5
 195 283 195 283 195 559 c 256,6,7
 195 835 195 835 341.5 991 c 128,-1,8
 488 1147 488 1147 748 1147 c 0,9,10
 829 1147 829 1147 906 1126 c 128,-1,11
 983 1105 983 1105 1061 1061 c 1,12,-1
 1061 868 l 1,13,14
 988 933 988 933 914.5 962 c 128,-1,15
 841 991 841 991 748 991 c 0,16,17
 575 991 575 991 482 879 c 128,-1,18
 389 767 389 767 389 559 c 0,19,20
 389 352 389 352 482.5 239.5 c 128,-1,21
 576 127 576 127 748 127 c 0,22,23
 844 127 844 127 920 156.5 c 128,-1,24
 996 186 996 186 1061 248 c 1,25,-1
 1061 57 l 1,0,1
EndSplineSet
Validated: 1
EndChar

StartChar: d
Encoding: 100 100 71
Width: 1233
Flags: W
LayerCount: 2
Fore
SplineSet
858 977 m 1,0,-1
 858 1556 l 1,1,-1
 1042 1556 l 1,2,-1
 1042 0 l 1,3,-1
 858 0 l 1,4,-1
 858 141 l 1,5,6
 812 58 812 58 735.5 14.5 c 128,-1,7
 659 -29 659 -29 559 -29 c 0,8,9
 356 -29 356 -29 239.5 128.5 c 128,-1,10
 123 286 123 286 123 563 c 0,11,12
 123 836 123 836 240 991.5 c 128,-1,13
 357 1147 357 1147 559 1147 c 0,14,15
 660 1147 660 1147 737 1103.5 c 128,-1,16
 814 1060 814 1060 858 977 c 1,0,-1
317 559 m 256,17,18
 317 345 317 345 385 236 c 128,-1,19
 453 127 453 127 586 127 c 256,20,21
 719 127 719 127 788.5 237 c 128,-1,22
 858 347 858 347 858 559 c 0,23,24
 858 772 858 772 788.5 881.5 c 128,-1,25
 719 991 719 991 586 991 c 256,26,27
 453 991 453 991 385 882 c 128,-1,28
 317 773 317 773 317 559 c 256,17,18
EndSplineSet
Validated: 1
EndChar

StartChar: e
Encoding: 101 101 72
Width: 1233
Flags: W
LayerCount: 2
Fore
SplineSet
1112 606 m 2,0,-1
 1112 516 l 1,1,-1
 315 516 l 1,2,-1
 315 510 l 2,3,4
 315 327 315 327 410.5 227 c 128,-1,5
 506 127 506 127 680 127 c 0,6,7
 768 127 768 127 864 155 c 128,-1,8
 960 183 960 183 1069 240 c 1,9,-1
 1069 57 l 1,10,11
 964 14 964 14 866.5 -7.5 c 128,-1,12
 769 -29 769 -29 678 -29 c 0,13,14
 417 -29 417 -29 270 127.5 c 128,-1,15
 123 284 123 284 123 559 c 0,16,17
 123 827 123 827 267 987 c 128,-1,18
 411 1147 411 1147 651 1147 c 0,19,20
 865 1147 865 1147 988.5 1002 c 128,-1,21
 1112 857 1112 857 1112 606 c 2,0,-1
928 660 m 1,22,23
 924 822 924 822 851.5 906.5 c 128,-1,24
 779 991 779 991 643 991 c 0,25,26
 510 991 510 991 424 903 c 128,-1,27
 338 815 338 815 322 659 c 1,28,-1
 928 660 l 1,22,23
EndSplineSet
Validated: 1
EndChar

StartChar: f
Encoding: 102 102 73
Width: 1233
Flags: W
LayerCount: 2
Fore
SplineSet
1063 1556 m 1,0,-1
 1063 1403 l 1,1,-1
 854 1403 l 2,2,3
 755 1403 755 1403 716.5 1362.5 c 128,-1,4
 678 1322 678 1322 678 1219 c 2,5,-1
 678 1120 l 1,6,-1
 1063 1120 l 1,7,-1
 1063 977 l 1,8,-1
 678 977 l 1,9,-1
 678 0 l 1,10,-1
 494 0 l 1,11,-1
 494 977 l 1,12,-1
 195 977 l 1,13,-1
 195 1120 l 1,14,-1
 494 1120 l 1,15,-1
 494 1198 l 2,16,17
 494 1382 494 1382 578.5 1469 c 128,-1,18
 663 1556 663 1556 842 1556 c 2,19,-1
 1063 1556 l 1,0,-1
EndSplineSet
Validated: 1
EndChar

StartChar: g
Encoding: 103 103 74
Width: 1233
Flags: W
LayerCount: 2
Fore
SplineSet
858 569 m 0,0,1
 858 776 858 776 790.5 883.5 c 128,-1,2
 723 991 723 991 594 991 c 0,3,4
 459 991 459 991 388 883.5 c 128,-1,5
 317 776 317 776 317 569 c 256,6,7
 317 362 317 362 388.5 253.5 c 128,-1,8
 460 145 460 145 596 145 c 0,9,10
 723 145 723 145 790.5 254 c 128,-1,11
 858 363 858 363 858 569 c 0,0,1
1042 72 m 2,12,13
 1042 -180 1042 -180 923 -310 c 128,-1,14
 804 -440 804 -440 573 -440 c 0,15,16
 497 -440 497 -440 414 -426 c 128,-1,17
 331 -412 331 -412 248 -385 c 1,18,-1
 248 -203 l 1,19,20
 346 -249 346 -249 426 -271 c 128,-1,21
 506 -293 506 -293 573 -293 c 0,22,23
 722 -293 722 -293 790 -212 c 128,-1,24
 858 -131 858 -131 858 45 c 2,25,-1
 858 53 l 1,26,-1
 858 178 l 1,27,28
 814 84 814 84 738 38 c 128,-1,29
 662 -8 662 -8 553 -8 c 0,30,31
 357 -8 357 -8 240 149 c 128,-1,32
 123 306 123 306 123 569 c 0,33,34
 123 833 123 833 240 990 c 128,-1,35
 357 1147 357 1147 553 1147 c 0,36,37
 661 1147 661 1147 736 1104 c 128,-1,38
 811 1061 811 1061 858 971 c 1,39,-1
 858 1116 l 1,40,-1
 1042 1116 l 1,41,-1
 1042 72 l 2,12,13
EndSplineSet
Validated: 1
EndChar

StartChar: h
Encoding: 104 104 75
Width: 1233
Flags: W
LayerCount: 2
Fore
SplineSet
1051 694 m 2,0,-1
 1051 0 l 1,1,-1
 866 0 l 1,2,-1
 866 694 l 2,3,4
 866 845 866 845 813 916 c 128,-1,5
 760 987 760 987 647 987 c 0,6,7
 518 987 518 987 448.5 895.5 c 128,-1,8
 379 804 379 804 379 633 c 2,9,-1
 379 0 l 1,10,-1
 195 0 l 1,11,-1
 195 1556 l 1,12,-1
 379 1556 l 1,13,-1
 379 952 l 1,14,15
 428 1048 428 1048 512 1097.5 c 128,-1,16
 596 1147 596 1147 711 1147 c 0,17,18
 882 1147 882 1147 966.5 1034.5 c 128,-1,19
 1051 922 1051 922 1051 694 c 2,0,-1
EndSplineSet
Validated: 1
EndChar

StartChar: i
Encoding: 105 105 76
Width: 1233
Flags: W
LayerCount: 2
Fore
SplineSet
256 1120 m 1,0,-1
 727 1120 l 1,1,-1
 727 143 l 1,2,-1
 1092 143 l 1,3,-1
 1092 0 l 1,4,-1
 178 0 l 1,5,-1
 178 143 l 1,6,-1
 543 143 l 1,7,-1
 543 977 l 1,8,-1
 256 977 l 1,9,-1
 256 1120 l 1,0,-1
543 1556 m 1,10,-1
 727 1556 l 1,11,-1
 727 1323 l 1,12,-1
 543 1323 l 1,13,-1
 543 1556 l 1,10,-1
EndSplineSet
Validated: 1
EndChar

StartChar: j
Encoding: 106 106 77
Width: 1233
Flags: W
LayerCount: 2
Fore
SplineSet
600 -20 m 2,0,-1
 600 977 l 1,1,-1
 283 977 l 1,2,-1
 283 1120 l 1,3,-1
 784 1120 l 1,4,-1
 784 -20 l 2,5,6
 784 -215 784 -215 694.5 -320.5 c 128,-1,7
 605 -426 605 -426 440 -426 c 2,8,-1
 186 -426 l 1,9,-1
 186 -270 l 1,10,-1
 420 -270 l 2,11,12
 510 -270 510 -270 555 -207.5 c 128,-1,13
 600 -145 600 -145 600 -20 c 2,0,-1
600 1556 m 1,14,-1
 784 1556 l 1,15,-1
 784 1323 l 1,16,-1
 600 1323 l 1,17,-1
 600 1556 l 1,14,-1
EndSplineSet
Validated: 1
EndChar

StartChar: k
Encoding: 107 107 78
Width: 1233
Flags: W
LayerCount: 2
Fore
SplineSet
236 1556 m 1,0,-1
 426 1556 l 1,1,-1
 426 655 l 1,2,-1
 909 1120 l 1,3,-1
 1133 1120 l 1,4,-1
 692 698 l 1,5,-1
 1202 0 l 1,6,-1
 977 0 l 1,7,-1
 563 578 l 1,8,-1
 426 449 l 1,9,-1
 426 0 l 1,10,-1
 236 0 l 1,11,-1
 236 1556 l 1,0,-1
EndSplineSet
Validated: 1
EndChar

StartChar: l
Encoding: 108 108 79
Width: 1233
Flags: W
LayerCount: 2
Fore
SplineSet
639 406 m 2,0,1
 639 282 639 282 684.5 219 c 128,-1,2
 730 156 730 156 819 156 c 2,3,-1
 1034 156 l 1,4,-1
 1034 0 l 1,5,-1
 801 0 l 2,6,7
 636 0 636 0 545.5 106 c 128,-1,8
 455 212 455 212 455 406 c 2,9,-1
 455 1423 l 1,10,-1
 160 1423 l 1,11,-1
 160 1567 l 1,12,-1
 639 1567 l 1,13,-1
 639 406 l 2,0,1
EndSplineSet
Validated: 1
EndChar

StartChar: m
Encoding: 109 109 80
Width: 1233
Flags: W
LayerCount: 2
Fore
SplineSet
676 1006 m 1,0,1
 710 1078 710 1078 762.5 1112.5 c 128,-1,2
 815 1147 815 1147 889 1147 c 0,3,4
 1024 1147 1024 1147 1079.5 1042.5 c 128,-1,5
 1135 938 1135 938 1135 649 c 2,6,-1
 1135 0 l 1,7,-1
 967 0 l 1,8,-1
 967 641 l 2,9,10
 967 878 967 878 940.5 935.5 c 128,-1,11
 914 993 914 993 844 993 c 0,12,13
 764 993 764 993 734.5 931.5 c 128,-1,14
 705 870 705 870 705 641 c 2,15,-1
 705 0 l 1,16,-1
 537 0 l 1,17,-1
 537 641 l 2,18,19
 537 881 537 881 508.5 937 c 128,-1,20
 480 993 480 993 406 993 c 0,21,22
 333 993 333 993 304.5 931.5 c 128,-1,23
 276 870 276 870 276 641 c 2,24,-1
 276 0 l 1,25,-1
 109 0 l 1,26,-1
 109 1120 l 1,27,-1
 276 1120 l 1,28,-1
 276 1024 l 1,29,30
 309 1084 309 1084 358.5 1115.5 c 128,-1,31
 408 1147 408 1147 471 1147 c 0,32,33
 547 1147 547 1147 597.5 1112 c 128,-1,34
 648 1077 648 1077 676 1006 c 1,0,1
EndSplineSet
Validated: 1
EndChar

StartChar: n
Encoding: 110 110 81
Width: 1233
Flags: W
LayerCount: 2
Fore
SplineSet
1051 694 m 2,0,-1
 1051 0 l 1,1,-1
 866 0 l 1,2,-1
 866 694 l 2,3,4
 866 845 866 845 813 916 c 128,-1,5
 760 987 760 987 647 987 c 0,6,7
 518 987 518 987 448.5 895.5 c 128,-1,8
 379 804 379 804 379 633 c 2,9,-1
 379 0 l 1,10,-1
 195 0 l 1,11,-1
 195 1120 l 1,12,-1
 379 1120 l 1,13,-1
 379 952 l 1,14,15
 428 1048 428 1048 512 1097.5 c 128,-1,16
 596 1147 596 1147 711 1147 c 0,17,18
 882 1147 882 1147 966.5 1034.5 c 128,-1,19
 1051 922 1051 922 1051 694 c 2,0,-1
EndSplineSet
Validated: 1
EndChar

StartChar: o
Encoding: 111 111 82
Width: 1233
Flags: W
LayerCount: 2
Fore
SplineSet
616 991 m 0,0,1
 476 991 476 991 404 882 c 128,-1,2
 332 773 332 773 332 559 c 0,3,4
 332 346 332 346 404 236.5 c 128,-1,5
 476 127 476 127 616 127 c 0,6,7
 757 127 757 127 829 236.5 c 128,-1,8
 901 346 901 346 901 559 c 0,9,10
 901 773 901 773 829 882 c 128,-1,11
 757 991 757 991 616 991 c 0,0,1
616 1147 m 256,12,13
 849 1147 849 1147 972.5 996 c 128,-1,14
 1096 845 1096 845 1096 559 c 0,15,16
 1096 272 1096 272 973 121.5 c 128,-1,17
 850 -29 850 -29 616 -29 c 0,18,19
 383 -29 383 -29 260 121.5 c 128,-1,20
 137 272 137 272 137 559 c 0,21,22
 137 845 137 845 260 996 c 128,-1,23
 383 1147 383 1147 616 1147 c 256,12,13
EndSplineSet
Validated: 1
EndChar

StartChar: p
Encoding: 112 112 83
Width: 1233
Flags: W
LayerCount: 2
Fore
SplineSet
375 141 m 1,0,-1
 375 -426 l 1,1,-1
 190 -426 l 1,2,-1
 190 1120 l 1,3,-1
 375 1120 l 1,4,-1
 375 977 l 1,5,6
 421 1060 421 1060 497.5 1103.5 c 128,-1,7
 574 1147 574 1147 674 1147 c 0,8,9
 877 1147 877 1147 992.5 990 c 128,-1,10
 1108 833 1108 833 1108 555 c 0,11,12
 1108 282 1108 282 992 126.5 c 128,-1,13
 876 -29 876 -29 674 -29 c 0,14,15
 572 -29 572 -29 495.5 14.5 c 128,-1,16
 419 58 419 58 375 141 c 1,0,-1
915 559 m 256,17,18
 915 773 915 773 847.5 882 c 128,-1,19
 780 991 780 991 647 991 c 0,20,21
 513 991 513 991 444 881.5 c 128,-1,22
 375 772 375 772 375 559 c 0,23,24
 375 347 375 347 444 237 c 128,-1,25
 513 127 513 127 647 127 c 0,26,27
 780 127 780 127 847.5 236 c 128,-1,28
 915 345 915 345 915 559 c 256,17,18
EndSplineSet
Validated: 1
EndChar

StartChar: q
Encoding: 113 113 84
Width: 1233
Flags: W
LayerCount: 2
Fore
SplineSet
332 555 m 256,0,1
 332 341 332 341 399.5 232 c 128,-1,2
 467 123 467 123 600 123 c 256,3,4
 733 123 733 123 801.5 232.5 c 128,-1,5
 870 342 870 342 870 555 c 256,6,7
 870 768 870 768 801.5 877.5 c 128,-1,8
 733 987 733 987 600 987 c 256,9,10
 467 987 467 987 399.5 878 c 128,-1,11
 332 769 332 769 332 555 c 256,0,1
870 139 m 1,12,13
 825 56 825 56 748.5 11.5 c 128,-1,14
 672 -33 672 -33 571 -33 c 0,15,16
 370 -33 370 -33 253.5 122.5 c 128,-1,17
 137 278 137 278 137 551 c 0,18,19
 137 829 137 829 253 986 c 128,-1,20
 369 1143 369 1143 571 1143 c 0,21,22
 671 1143 671 1143 747.5 1099.5 c 128,-1,23
 824 1056 824 1056 870 973 c 1,24,-1
 870 1116 l 1,25,-1
 1055 1116 l 1,26,-1
 1055 -430 l 1,27,-1
 870 -430 l 1,28,-1
 870 139 l 1,12,13
EndSplineSet
Validated: 1
EndChar

StartChar: r
Encoding: 114 114 85
Width: 1233
Flags: W
LayerCount: 2
Fore
SplineSet
1155 889 m 1,0,1
 1096 935 1096 935 1035 956 c 128,-1,2
 974 977 974 977 901 977 c 0,3,4
 729 977 729 977 638 869 c 128,-1,5
 547 761 547 761 547 557 c 2,6,-1
 547 0 l 1,7,-1
 362 0 l 1,8,-1
 362 1120 l 1,9,-1
 547 1120 l 1,10,-1
 547 901 l 1,11,12
 593 1020 593 1020 688.5 1083.5 c 128,-1,13
 784 1147 784 1147 915 1147 c 0,14,15
 983 1147 983 1147 1042 1130 c 128,-1,16
 1101 1113 1101 1113 1155 1077 c 1,17,-1
 1155 889 l 1,0,1
EndSplineSet
Validated: 1
EndChar

StartChar: s
Encoding: 115 115 86
Width: 1233
Flags: W
LayerCount: 2
Fore
SplineSet
973 1081 m 1,0,-1
 973 901 l 1,1,2
 894 947 894 947 814 970 c 128,-1,3
 734 993 734 993 651 993 c 0,4,5
 526 993 526 993 464.5 952.5 c 128,-1,6
 403 912 403 912 403 829 c 0,7,8
 403 754 403 754 449 717 c 128,-1,9
 495 680 495 680 678 645 c 2,10,-1
 752 631 l 2,11,12
 889 605 889 605 959.5 527 c 128,-1,13
 1030 449 1030 449 1030 324 c 0,14,15
 1030 158 1030 158 912 64.5 c 128,-1,16
 794 -29 794 -29 584 -29 c 0,17,18
 501 -29 501 -29 410 -11.5 c 128,-1,19
 319 6 319 6 213 41 c 1,20,-1
 213 231 l 1,21,22
 316 178 316 178 410 151.5 c 128,-1,23
 504 125 504 125 588 125 c 0,24,25
 710 125 710 125 777 174.5 c 128,-1,26
 844 224 844 224 844 313 c 0,27,28
 844 441 844 441 599 490 c 1,29,-1
 591 492 l 1,30,-1
 522 506 l 1,31,32
 363 537 363 537 290 610.5 c 128,-1,33
 217 684 217 684 217 811 c 0,34,35
 217 972 217 972 326 1059.5 c 128,-1,36
 435 1147 435 1147 637 1147 c 0,37,38
 727 1147 727 1147 810 1130.5 c 128,-1,39
 893 1114 893 1114 973 1081 c 1,0,-1
EndSplineSet
Validated: 1
EndChar

StartChar: t
Encoding: 116 116 87
Width: 1233
Flags: W
LayerCount: 2
Fore
SplineSet
614 1438 m 1,0,-1
 614 1120 l 1,1,-1
 1032 1120 l 1,2,-1
 1032 977 l 1,3,-1
 614 977 l 1,4,-1
 614 369 l 2,5,6
 614 245 614 245 661 196 c 128,-1,7
 708 147 708 147 825 147 c 2,8,-1
 1032 147 l 1,9,-1
 1032 0 l 1,10,-1
 807 0 l 2,11,12
 600 0 600 0 515 83 c 128,-1,13
 430 166 430 166 430 369 c 2,14,-1
 430 977 l 1,15,-1
 131 977 l 1,16,-1
 131 1120 l 1,17,-1
 430 1120 l 1,18,-1
 430 1438 l 1,19,-1
 614 1438 l 1,0,-1
EndSplineSet
Validated: 1
EndChar

StartChar: u
Encoding: 117 117 88
Width: 1233
Flags: W
LayerCount: 2
Fore
SplineSet
195 424 m 2,0,-1
 195 1118 l 1,1,-1
 379 1118 l 1,2,-1
 379 424 l 2,3,4
 379 273 379 273 432.5 202 c 128,-1,5
 486 131 486 131 598 131 c 0,6,7
 728 131 728 131 797 222.5 c 128,-1,8
 866 314 866 314 866 485 c 2,9,-1
 866 1118 l 1,10,-1
 1051 1118 l 1,11,-1
 1051 0 l 1,12,-1
 866 0 l 1,13,-1
 866 168 l 1,14,15
 817 71 817 71 732.5 21 c 128,-1,16
 648 -29 648 -29 535 -29 c 0,17,18
 363 -29 363 -29 279 83.5 c 128,-1,19
 195 196 195 196 195 424 c 2,0,-1
EndSplineSet
Validated: 1
EndChar

StartChar: v
Encoding: 118 118 89
Width: 1233
Flags: W
LayerCount: 2
Fore
SplineSet
100 1120 m 1,0,-1
 291 1120 l 1,1,-1
 616 180 l 1,2,-1
 942 1120 l 1,3,-1
 1133 1120 l 1,4,-1
 735 0 l 1,5,-1
 498 0 l 1,6,-1
 100 1120 l 1,0,-1
EndSplineSet
Validated: 1
EndChar

StartChar: w
Encoding: 119 119 90
Width: 1233
Flags: W
LayerCount: 2
Fore
SplineSet
0 1120 m 1,0,-1
 182 1120 l 1,1,-1
 377 215 l 1,2,-1
 537 793 l 1,3,-1
 694 793 l 1,4,-1
 856 215 l 1,5,-1
 1051 1120 l 1,6,-1
 1233 1120 l 1,7,-1
 971 0 l 1,8,-1
 795 0 l 1,9,-1
 616 614 l 1,10,-1
 438 0 l 1,11,-1
 262 0 l 1,12,-1
 0 1120 l 1,0,-1
EndSplineSet
Validated: 1
EndChar

StartChar: x
Encoding: 120 120 91
Width: 1233
Flags: W
LayerCount: 2
Fore
SplineSet
1118 1120 m 1,0,-1
 717 584 l 1,1,-1
 1157 0 l 1,2,-1
 944 0 l 1,3,-1
 616 449 l 1,4,-1
 289 0 l 1,5,-1
 76 0 l 1,6,-1
 516 584 l 1,7,-1
 115 1120 l 1,8,-1
 319 1120 l 1,9,-1
 616 715 l 1,10,-1
 911 1120 l 1,11,-1
 1118 1120 l 1,0,-1
EndSplineSet
Validated: 1
EndChar

StartChar: y
Encoding: 121 121 92
Width: 1233
Flags: W
LayerCount: 2
Fore
SplineSet
858 360 m 2,0,1
 812 243 812 243 741 52 c 0,2,3
 642 -212 642 -212 608 -270 c 0,4,5
 562 -348 562 -348 493 -387 c 128,-1,6
 424 -426 424 -426 332 -426 c 2,7,-1
 184 -426 l 1,8,-1
 184 -272 l 1,9,-1
 293 -272 l 2,10,11
 374 -272 374 -272 420 -225 c 128,-1,12
 466 -178 466 -178 537 18 c 1,13,-1
 104 1120 l 1,14,-1
 299 1120 l 1,15,-1
 631 244 l 1,16,-1
 958 1120 l 1,17,-1
 1153 1120 l 1,18,-1
 858 360 l 2,0,1
EndSplineSet
Validated: 1
EndChar

StartChar: z
Encoding: 122 122 93
Width: 1233
Flags: W
LayerCount: 2
Fore
SplineSet
227 1122 m 1,0,-1
 1040 1122 l 1,1,-1
 1040 954 l 1,2,-1
 397 150 l 1,3,-1
 1040 150 l 1,4,-1
 1040 0 l 1,5,-1
 203 0 l 1,6,-1
 203 170 l 1,7,-1
 846 975 l 1,8,-1
 227 975 l 1,9,-1
 227 1122 l 1,0,-1
EndSplineSet
Validated: 1
EndChar

StartChar: braceleft
Encoding: 123 123 94
Width: 1233
Flags: W
LayerCount: 2
Fore
SplineSet
1012 -190 m 1,0,-1
 1012 -334 l 1,1,-1
 948 -334 l 2,2,3
 699 -334 699 -334 614.5 -260 c 128,-1,4
 530 -186 530 -186 530 35 c 2,5,-1
 530 274 l 2,6,7
 530 425 530 425 476.5 483 c 128,-1,8
 423 541 423 541 283 541 c 2,9,-1
 221 541 l 1,10,-1
 221 684 l 1,11,-1
 283 684 l 2,12,13
 424 684 424 684 477 741 c 128,-1,14
 530 798 530 798 530 948 c 2,15,-1
 530 1188 l 2,16,17
 530 1409 530 1409 614.5 1482.5 c 128,-1,18
 699 1556 699 1556 948 1556 c 2,19,-1
 1012 1556 l 1,20,-1
 1012 1413 l 1,21,-1
 942 1413 l 2,22,23
 802 1413 802 1413 759.5 1369.5 c 128,-1,24
 717 1326 717 1326 717 1184 c 2,25,-1
 717 936 l 2,26,27
 717 779 717 779 671.5 708 c 128,-1,28
 626 637 626 637 516 612 c 1,29,30
 627 585 627 585 672 514 c 128,-1,31
 717 443 717 443 717 287 c 2,32,-1
 717 39 l 2,33,34
 717 -104 717 -104 759.5 -147 c 128,-1,35
 802 -190 802 -190 942 -190 c 2,36,-1
 1012 -190 l 1,0,-1
EndSplineSet
Validated: 1
EndChar

StartChar: bar
Encoding: 124 124 95
Width: 1233
Flags: W
LayerCount: 2
Fore
SplineSet
702 1565 m 1,0,-1
 702 -483 l 1,1,-1
 530 -483 l 1,2,-1
 530 1565 l 1,3,-1
 702 1565 l 1,0,-1
EndSplineSet
Validated: 1
EndChar

StartChar: braceright
Encoding: 125 125 96
Width: 1233
Flags: W
LayerCount: 2
Fore
SplineSet
221 -190 m 1,0,-1
 289 -190 l 2,1,2
 430 -190 430 -190 473 -146 c 128,-1,3
 516 -102 516 -102 516 39 c 2,4,-1
 516 287 l 2,5,6
 516 443 516 443 561 514 c 128,-1,7
 606 585 606 585 717 612 c 1,8,9
 607 637 607 637 561.5 708 c 128,-1,10
 516 779 516 779 516 936 c 2,11,-1
 516 1184 l 2,12,13
 516 1325 516 1325 473 1369 c 128,-1,14
 430 1413 430 1413 289 1413 c 2,15,-1
 221 1413 l 1,16,-1
 221 1556 l 1,17,-1
 283 1556 l 2,18,19
 532 1556 532 1556 616 1482.5 c 128,-1,20
 700 1409 700 1409 700 1188 c 2,21,-1
 700 948 l 2,22,23
 700 798 700 798 753.5 741 c 128,-1,24
 807 684 807 684 948 684 c 2,25,-1
 1012 684 l 1,26,-1
 1012 541 l 1,27,-1
 948 541 l 2,28,29
 807 541 807 541 753.5 483 c 128,-1,30
 700 425 700 425 700 274 c 2,31,-1
 700 35 l 2,32,33
 700 -186 700 -186 616 -260 c 128,-1,34
 532 -334 532 -334 283 -334 c 2,35,-1
 221 -334 l 1,36,-1
 221 -190 l 1,0,-1
EndSplineSet
Validated: 1
EndChar

StartChar: asciitilde
Encoding: 126 126 97
Width: 1233
Flags: W
LayerCount: 2
Fore
SplineSet
1145 780 m 1,0,-1
 1145 606 l 1,1,2
 1070 547 1070 547 998.5 519.5 c 128,-1,3
 927 492 927 492 848 492 c 0,4,5
 758 492 758 492 645 543 c 0,6,7
 623 553 623 553 612 557 c 0,8,9
 535 590 535 590 483.5 602 c 128,-1,10
 432 614 432 614 381 614 c 0,11,12
 302 614 302 614 231.5 584.5 c 128,-1,13
 161 555 161 555 88 492 c 1,14,-1
 88 666 l 1,15,16
 166 726 166 726 239 753 c 128,-1,17
 312 780 312 780 395 780 c 0,18,19
 448 780 448 780 498 769 c 128,-1,20
 548 758 548 758 622 727 c 0,21,22
 634 722 634 722 655 712 c 0,23,24
 771 657 771 657 864 657 c 0,25,26
 934 657 934 657 1002.5 687.5 c 128,-1,27
 1071 718 1071 718 1145 780 c 1,0,-1
EndSplineSet
Validated: 1
EndChar

StartChar: Aring
Encoding: 197 197 99
Width: 1233
Flags: W
LayerCount: 2
Fore
SplineSet
768 1626 m 256,0,1
 768 1689 768 1689 723.5 1733.5 c 128,-1,2
 679 1778 679 1778 616 1778 c 0,3,4
 552 1778 552 1778 508.5 1734.5 c 128,-1,5
 465 1691 465 1691 465 1626 c 0,6,7
 465 1563 465 1563 509 1519 c 128,-1,8
 553 1475 553 1475 616 1475 c 256,9,10
 679 1475 679 1475 723.5 1519 c 128,-1,11
 768 1563 768 1563 768 1626 c 256,0,1
616 1311 m 1,12,-1
 403 551 l 1,13,-1
 829 551 l 1,14,-1
 616 1311 l 1,12,-1
465 1399 m 1,15,16
 407 1432 407 1432 374.5 1492.5 c 128,-1,17
 342 1553 342 1553 342 1626 c 0,18,19
 342 1740 342 1740 422 1820.5 c 128,-1,20
 502 1901 502 1901 616 1901 c 256,21,22
 730 1901 730 1901 810.5 1820.5 c 128,-1,23
 891 1740 891 1740 891 1626 c 0,24,25
 891 1553 891 1553 859 1494 c 128,-1,26
 827 1435 827 1435 768 1399 c 1,27,-1
 1196 0 l 1,28,-1
 987 0 l 1,29,-1
 877 389 l 1,30,-1
 354 389 l 1,31,-1
 246 0 l 1,32,-1
 37 0 l 1,33,-1
 465 1399 l 1,15,16
EndSplineSet
Validated: 1
EndChar

StartChar: dagger
Encoding: 8224 8224 130
Width: 1134
VWidth: 2220
Flags: W
HStem: 861 246<177 417 717 957> 1538 20G<558 577>
VStem: 444 246<-64 777 1212 1532>
LayerCount: 2
Fore
SplineSet
599 950 m 1,0,1
 606 895 606 895 639 797 c 0,2,3
 675 687 675 687 682.5 641.5 c 128,-1,4
 690 596 690 596 690 513 c 0,5,6
 690 304 690 304 672 63.5 c 128,-1,7
 654 -177 654 -177 640.5 -289 c 128,-1,8
 627 -401 627 -401 619 -444 c 0,9,10
 616 -455 616 -455 607 -461 c 128,-1,11
 598 -467 598 -467 590 -467.5 c 128,-1,12
 582 -468 582 -468 566 -468 c 0,13,14
 553 -468 553 -468 546.5 -467.5 c 128,-1,15
 540 -467 540 -467 532.5 -463.5 c 128,-1,16
 525 -460 525 -460 522 -453 c 1,17,18
 514 -442 514 -442 502 -346 c 0,19,20
 444 116 444 116 444 513 c 0,21,22
 444 593 444 593 451 638.5 c 128,-1,23
 458 684 458 684 491 784 c 0,24,25
 529 892 529 892 535 950 c 1,26,27
 485 939 485 939 413 904 c 0,28,29
 329 862 329 862 269 861 c 0,30,31
 210 861 210 861 176 897.5 c 128,-1,32
 142 934 142 934 142 986 c 0,33,34
 142 1034 142 1034 174 1071 c 128,-1,35
 206 1108 206 1108 269 1108 c 0,36,37
 297 1108 297 1108 331 1098 c 128,-1,38
 365 1088 365 1088 388 1077.5 c 128,-1,39
 411 1067 411 1067 446 1050 c 0,40,41
 495 1027 495 1027 535 1019 c 1,42,43
 528 1079 528 1079 491 1203 c 0,44,45
 444 1352 444 1352 444 1427 c 0,46,47
 444 1463 444 1463 456 1490.5 c 128,-1,48
 468 1518 468 1518 488 1532 c 128,-1,49
 508 1546 508 1546 528 1552 c 128,-1,50
 548 1558 548 1558 568 1558 c 0,51,52
 586 1558 586 1558 604.5 1552.5 c 128,-1,53
 623 1547 623 1547 643.5 1534 c 128,-1,54
 664 1521 664 1521 677 1493.5 c 128,-1,55
 690 1466 690 1466 690 1427 c 0,56,57
 690 1393 690 1393 682 1349.5 c 128,-1,58
 674 1306 674 1306 665.5 1275 c 128,-1,59
 657 1244 657 1244 642 1192 c 0,60,61
 607 1088 607 1088 599 1019 c 1,62,63
 650 1030 650 1030 722 1066 c 0,64,65
 806 1108 806 1108 866 1108 c 0,66,67
 925 1108 925 1108 958.5 1071.5 c 128,-1,68
 992 1035 992 1035 992 983 c 0,69,70
 992 935 992 935 960.5 898 c 128,-1,71
 929 861 929 861 866 861 c 0,72,73
 838 861 838 861 803.5 871 c 128,-1,74
 769 881 769 881 746 891.5 c 128,-1,75
 723 902 723 902 688 919 c 0,76,77
 639 942 639 942 599 950 c 1,0,1
EndSplineSet
Validated: 1
EndChar

StartChar: degree
Encoding: 176 176 131
Width: 1233
Flags: W
LayerCount: 2
Fore
SplineSet
616 1520 m 0,0,1
 681 1520 681 1520 739.5 1495.5 c 128,-1,2
 798 1471 798 1471 842 1425 c 1,3,4
 887 1380 887 1380 910.5 1323 c 128,-1,5
 934 1266 934 1266 934 1200 c 0,6,7
 934 1068 934 1068 841 976.5 c 128,-1,8
 748 885 748 885 614 885 c 0,9,10
 479 885 479 885 389 975 c 128,-1,11
 299 1065 299 1065 299 1200 c 0,12,13
 299 1334 299 1334 391 1427 c 128,-1,14
 483 1520 483 1520 616 1520 c 0,0,1
616 1391 m 256,15,16
 537 1391 537 1391 481.5 1335.5 c 128,-1,17
 426 1280 426 1280 426 1200 c 256,18,19
 426 1120 426 1120 480.5 1066 c 128,-1,20
 535 1012 535 1012 614 1012 c 0,21,22
 694 1012 694 1012 750.5 1067 c 128,-1,23
 807 1122 807 1122 807 1200 c 0,24,25
 807 1279 807 1279 751 1335 c 128,-1,26
 695 1391 695 1391 616 1391 c 256,15,16
EndSplineSet
Validated: 1
EndChar

StartChar: cent
Encoding: 162 162 132
Width: 1233
Flags: W
LayerCount: 2
Fore
SplineSet
1061 1077 m 1,0,-1
 1061 905 l 1,1,2
 994 945 994 945 929 967 c 128,-1,3
 864 989 864 989 801 993 c 1,4,-1
 801 123 l 1,5,6
 864 128 864 128 929.5 150.5 c 128,-1,7
 995 173 995 173 1061 213 c 1,8,-1
 1061 41 l 1,9,10
 988 10 988 10 923 -7 c 128,-1,11
 858 -24 858 -24 801 -27 c 1,12,-1
 801 -313 l 1,13,-1
 698 -313 l 1,14,-1
 698 -27 l 1,15,16
 473 -5 473 -5 343 151.5 c 128,-1,17
 213 308 213 308 213 559 c 0,18,19
 213 809 213 809 344.5 967.5 c 128,-1,20
 476 1126 476 1126 698 1145 c 1,21,-1
 698 1432 l 1,22,-1
 801 1432 l 1,23,-1
 801 1145 l 1,24,25
 858 1142 858 1142 923 1125 c 128,-1,26
 988 1108 988 1108 1061 1077 c 1,0,-1
698 127 m 1,27,-1
 698 991 l 1,28,29
 566 979 566 979 486 861 c 128,-1,30
 406 743 406 743 406 559 c 256,31,32
 406 375 406 375 486 257.5 c 128,-1,33
 566 140 566 140 698 127 c 1,27,-1
EndSplineSet
Validated: 1
EndChar

StartChar: sterling
Encoding: 163 163 133
Width: 1233
Flags: W
LayerCount: 2
Fore
SplineSet
1092 1462 m 1,0,-1
 1092 1278 l 1,1,2
 1030 1322 1030 1322 966.5 1344 c 128,-1,3
 903 1366 903 1366 836 1366 c 0,4,5
 702 1366 702 1366 638.5 1276.5 c 128,-1,6
 575 1187 575 1187 575 995 c 2,7,-1
 575 778 l 1,8,-1
 946 778 l 1,9,-1
 946 635 l 1,10,-1
 575 635 l 1,11,-1
 575 170 l 1,12,-1
 1112 170 l 1,13,-1
 1112 0 l 1,14,-1
 139 0 l 1,15,-1
 139 170 l 1,16,-1
 375 170 l 1,17,-1
 375 635 l 1,18,-1
 176 635 l 1,19,-1
 176 778 l 1,20,-1
 375 778 l 1,21,-1
 375 1016 l 2,22,23
 375 1270 375 1270 484.5 1395 c 128,-1,24
 594 1520 594 1520 817 1520 c 0,25,26
 882 1520 882 1520 950.5 1505.5 c 128,-1,27
 1019 1491 1019 1491 1092 1462 c 1,0,-1
EndSplineSet
Validated: 1
EndChar

StartChar: section
Encoding: 167 167 134
Width: 1233
Flags: W
LayerCount: 2
Fore
SplineSet
936 1462 m 1,0,-1
 936 1298 l 1,1,2
 853 1337 853 1337 781.5 1356.5 c 128,-1,3
 710 1376 710 1376 653 1376 c 0,4,5
 556 1376 556 1376 502.5 1336 c 128,-1,6
 449 1296 449 1296 449 1225 c 0,7,8
 449 1135 449 1135 654 1020 c 0,9,10
 680 1005 680 1005 694 997 c 0,11,12
 906 878 906 878 971 801 c 128,-1,13
 1036 724 1036 724 1036 623 c 0,14,15
 1036 533 1036 533 990.5 463 c 128,-1,16
 945 393 945 393 852 340 c 1,17,18
 913 288 913 288 942 233.5 c 128,-1,19
 971 179 971 179 971 115 c 0,20,21
 971 -27 971 -27 869 -111 c 128,-1,22
 767 -195 767 -195 594 -195 c 0,23,24
 521 -195 521 -195 443.5 -180.5 c 128,-1,25
 366 -166 366 -166 279 -137 c 1,26,-1
 279 27 l 1,27,28
 366 -12 366 -12 440 -31.5 c 128,-1,29
 514 -51 514 -51 571 -51 c 0,30,31
 673 -51 673 -51 729.5 -9 c 128,-1,32
 786 33 786 33 786 109 c 0,33,34
 786 211 786 211 565 334 c 1,35,-1
 541 348 l 1,36,37
 327 468 327 468 263 544.5 c 128,-1,38
 199 621 199 621 199 723 c 0,39,40
 199 814 199 814 245.5 885.5 c 128,-1,41
 292 957 292 957 383 1006 c 1,42,43
 323 1050 323 1050 293.5 1106 c 128,-1,44
 264 1162 264 1162 264 1231 c 0,45,46
 264 1361 264 1361 364 1440.5 c 128,-1,47
 464 1520 464 1520 631 1520 c 0,48,49
 703 1520 703 1520 779.5 1505.5 c 128,-1,50
 856 1491 856 1491 936 1462 c 1,0,-1
485 936 m 1,51,52
 423 891 423 891 392.5 846 c 128,-1,53
 362 801 362 801 362 754 c 0,54,55
 362 678 362 678 432.5 610.5 c 128,-1,56
 503 543 503 543 750 410 c 1,57,58
 812 455 812 455 842 500 c 128,-1,59
 872 545 872 545 872 592 c 0,60,61
 872 668 872 668 800.5 736 c 128,-1,62
 729 804 729 804 485 936 c 1,51,52
EndSplineSet
Validated: 1
EndChar

StartChar: bullet
Encoding: 8226 8226 135
Width: 1110
VWidth: 2220
Flags: W
HStem: 124 861<366 742>
VStem: 124 859<366 744>
LayerCount: 2
Fore
SplineSet
983 555 m 0,0,1
 983 440 983 440 926.5 341 c 128,-1,2
 870 242 870 242 770.5 183 c 128,-1,3
 671 124 671 124 553 124 c 0,4,5
 467 124 467 124 388 158.5 c 128,-1,6
 309 193 309 193 251 250.5 c 128,-1,7
 193 308 193 308 158.5 388 c 128,-1,8
 124 468 124 468 124 555 c 0,9,10
 124 670 124 670 181 769 c 128,-1,11
 238 868 238 868 337.5 927 c 128,-1,12
 437 986 437 986 555 986 c 0,13,14
 641 986 641 986 720 951.5 c 128,-1,15
 799 917 799 917 857 859.5 c 128,-1,16
 915 802 915 802 949 722 c 128,-1,17
 983 642 983 642 983 555 c 0,0,1
EndSplineSet
Validated: 1
EndChar

StartChar: paragraph
Encoding: 182 182 136
Width: 1233
Flags: W
LayerCount: 2
Fore
SplineSet
582 1493 m 2,0,-1
 1030 1493 l 1,1,-1
 1030 -197 l 1,2,-1
 889 -197 l 1,3,-1
 889 1370 l 1,4,-1
 698 1370 l 1,5,-1
 698 -197 l 1,6,-1
 557 -197 l 1,7,-1
 557 649 l 1,8,9
 342 666 342 666 224 776.5 c 128,-1,10
 106 887 106 887 106 1071 c 0,11,12
 106 1261 106 1261 236.5 1377 c 128,-1,13
 367 1493 367 1493 582 1493 c 2,0,-1
EndSplineSet
Validated: 1
EndChar

StartChar: germandbls
Encoding: 223 223 137
Width: 1233
Flags: W
LayerCount: 2
Fore
SplineSet
188 1137 m 2,0,1
 188 1350 188 1350 293 1453 c 128,-1,2
 398 1556 398 1556 614 1556 c 0,3,4
 818 1556 818 1556 923 1445.5 c 128,-1,5
 1028 1335 1028 1335 1030 1119 c 1,6,7
 875 1105 875 1105 791 1043 c 128,-1,8
 707 981 707 981 707 881 c 0,9,10
 707 832 707 832 734.5 793.5 c 128,-1,11
 762 755 762 755 829 713 c 2,12,-1
 887 676 l 1,13,14
 1038 583 1038 583 1093.5 501 c 128,-1,15
 1149 419 1149 419 1149 303 c 0,16,17
 1149 149 1149 149 1037 60 c 128,-1,18
 925 -29 925 -29 729 -29 c 0,19,20
 660 -29 660 -29 592.5 -16.5 c 128,-1,21
 525 -4 525 -4 459 20 c 1,22,-1
 459 184 l 1,23,24
 535 153 535 153 601.5 138 c 128,-1,25
 668 123 668 123 727 123 c 0,26,27
 835 123 835 123 899 171.5 c 128,-1,28
 963 220 963 220 963 301 c 0,29,30
 963 372 963 372 930.5 419.5 c 128,-1,31
 898 467 898 467 778 541 c 1,32,-1
 711 580 l 1,33,34
 619 636 619 636 573.5 702.5 c 128,-1,35
 528 769 528 769 528 848 c 0,36,37
 528 976 528 976 609 1061.5 c 128,-1,38
 690 1147 690 1147 846 1182 c 1,39,40
 844 1289 844 1289 783.5 1346 c 128,-1,41
 723 1403 723 1403 610 1403 c 0,42,43
 489 1403 489 1403 432 1337.5 c 128,-1,44
 375 1272 375 1272 375 1133 c 2,45,-1
 375 0 l 1,46,-1
 188 0 l 1,47,-1
 188 1137 l 2,0,1
EndSplineSet
Validated: 1
EndChar

StartChar: registered
Encoding: 174 174 138
Width: 1233
Flags: W
LayerCount: 2
Fore
SplineSet
600 1100 m 2,0,1
 747 1100 747 1100 819 1051 c 128,-1,2
 891 1002 891 1002 891 901 c 0,3,4
 891 830 891 830 847 783.5 c 128,-1,5
 803 737 803 737 723 723 c 1,6,7
 742 718 742 718 771 684.5 c 128,-1,8
 800 651 800 651 838 592 c 1,9,-1
 952 406 l 1,10,-1
 809 406 l 1,11,-1
 702 580 l 2,12,13
 653 660 653 660 622.5 681 c 128,-1,14
 592 702 592 702 547 702 c 2,15,-1
 492 702 l 1,16,-1
 492 406 l 1,17,-1
 362 406 l 1,18,-1
 362 1100 l 1,19,-1
 600 1100 l 2,0,1
594 1016 m 2,20,-1
 492 1016 l 1,21,-1
 492 784 l 1,22,-1
 594 784 l 2,23,24
 684 784 684 784 721 811 c 128,-1,25
 758 838 758 838 758 901 c 0,26,27
 758 963 758 963 721 989.5 c 128,-1,28
 684 1016 684 1016 594 1016 c 2,20,-1
616 1358 m 0,29,30
 743 1358 743 1358 852 1313 c 128,-1,31
 961 1268 961 1268 1051 1178 c 0,32,33
 1141 1087 1141 1087 1187 977 c 128,-1,34
 1233 867 1233 867 1233 741 c 0,35,36
 1233 616 1233 616 1187.5 507 c 128,-1,37
 1142 398 1142 398 1051 307 c 256,38,39
 960 216 960 216 851 170.5 c 128,-1,40
 742 125 742 125 616 125 c 0,41,42
 491 125 491 125 382 170.5 c 128,-1,43
 273 216 273 216 182 307 c 256,44,45
 91 398 91 398 45.5 507 c 128,-1,46
 0 616 0 616 0 741 c 0,47,48
 0 867 0 867 46 977 c 128,-1,49
 92 1087 92 1087 182 1178 c 0,50,51
 272 1268 272 1268 381 1313 c 128,-1,52
 490 1358 490 1358 616 1358 c 0,29,30
616 1255 m 0,53,54
 510 1255 510 1255 419.5 1218 c 128,-1,55
 329 1181 329 1181 254 1106 c 256,56,57
 179 1031 179 1031 140.5 939 c 128,-1,58
 102 847 102 847 102 741 c 0,59,60
 102 637 102 637 140.5 545.5 c 128,-1,61
 179 454 179 454 254 379 c 0,62,63
 330 303 330 303 420.5 265 c 128,-1,64
 511 227 511 227 616 227 c 0,65,66
 722 227 722 227 812.5 265 c 128,-1,67
 903 303 903 303 979 379 c 256,68,69
 1055 455 1055 455 1092.5 545.5 c 128,-1,70
 1130 636 1130 636 1130 741 c 0,71,72
 1130 847 1130 847 1092 939 c 128,-1,73
 1054 1031 1054 1031 979 1106 c 256,74,75
 904 1181 904 1181 813.5 1218 c 128,-1,76
 723 1255 723 1255 616 1255 c 0,53,54
EndSplineSet
Validated: 1
EndChar

StartChar: copyright
Encoding: 169 169 139
Width: 1233
Flags: W
LayerCount: 2
Fore
SplineSet
864 1071 m 1,0,-1
 864 963 l 1,1,2
 806 991 806 991 750.5 1004.5 c 128,-1,3
 695 1018 695 1018 637 1018 c 0,4,5
 520 1018 520 1018 452.5 943.5 c 128,-1,6
 385 869 385 869 385 741 c 0,7,8
 385 609 385 609 455 538 c 128,-1,9
 525 467 525 467 655 467 c 0,10,11
 711 467 711 467 762.5 479.5 c 128,-1,12
 814 492 814 492 864 518 c 1,13,-1
 864 414 l 1,14,15
 812 391 812 391 755 380 c 128,-1,16
 698 369 698 369 637 369 c 0,17,18
 457 369 457 369 353.5 469 c 128,-1,19
 250 569 250 569 250 741 c 0,20,21
 250 914 250 914 354 1015 c 128,-1,22
 458 1116 458 1116 637 1116 c 0,23,24
 698 1116 698 1116 755 1105 c 128,-1,25
 812 1094 812 1094 864 1071 c 1,0,-1
616 1255 m 0,26,27
 510 1255 510 1255 419.5 1218 c 128,-1,28
 329 1181 329 1181 254 1106 c 256,29,30
 179 1031 179 1031 140.5 939 c 128,-1,31
 102 847 102 847 102 741 c 0,32,33
 102 637 102 637 140.5 545.5 c 128,-1,34
 179 454 179 454 254 379 c 0,35,36
 330 303 330 303 420.5 265 c 128,-1,37
 511 227 511 227 616 227 c 0,38,39
 722 227 722 227 812.5 265 c 128,-1,40
 903 303 903 303 979 379 c 256,41,42
 1055 455 1055 455 1092.5 545.5 c 128,-1,43
 1130 636 1130 636 1130 741 c 0,44,45
 1130 847 1130 847 1092 939 c 128,-1,46
 1054 1031 1054 1031 979 1106 c 256,47,48
 904 1181 904 1181 813.5 1218 c 128,-1,49
 723 1255 723 1255 616 1255 c 0,26,27
616 1358 m 0,50,51
 743 1358 743 1358 852 1313 c 128,-1,52
 961 1268 961 1268 1051 1178 c 0,53,54
 1141 1087 1141 1087 1187 977 c 128,-1,55
 1233 867 1233 867 1233 741 c 0,56,57
 1233 616 1233 616 1187.5 507 c 128,-1,58
 1142 398 1142 398 1051 307 c 256,59,60
 960 216 960 216 851 170.5 c 128,-1,61
 742 125 742 125 616 125 c 0,62,63
 491 125 491 125 382 170.5 c 128,-1,64
 273 216 273 216 182 307 c 256,65,66
 91 398 91 398 45.5 507 c 128,-1,67
 0 616 0 616 0 741 c 0,68,69
 0 867 0 867 46 977 c 128,-1,70
 92 1087 92 1087 182 1178 c 0,71,72
 272 1268 272 1268 381 1313 c 128,-1,73
 490 1358 490 1358 616 1358 c 0,50,51
EndSplineSet
Validated: 1
EndChar

StartChar: trademark
Encoding: 8482 8482 140
Width: 1975
VWidth: 2220
Flags: W
HStem: 597 49<182 254 610 610 790 836 790 888 1006 1090 1521 1898 1867 1898> 1414 80<40 322 40 539> 1445 49<808 878 1601 1898>
VStem: 322 153<713 1412> 899 87<702 1330> 1636 153<722 1365>
DStem2: 484 673 444 599 0.371391 -0.928477 603 382 598 269 0.372777 0.927921
LayerCount: 2
Fore
SplineSet
1898 1494 m 1,0,-1
 1898 1445 l 1,1,-1
 1863 1445 l 2,2,3
 1818 1445 1818 1445 1803.5 1438 c 128,-1,4
 1789 1431 1789 1431 1789 1407 c 2,5,-1
 1789 722 l 2,6,7
 1789 679 1789 679 1808.5 665 c 128,-1,8
 1828 651 1828 651 1898 646 c 1,9,-1
 1898 597 l 1,10,-1
 1521 597 l 1,11,-1
 1521 646 l 1,12,13
 1589 648 1589 648 1612.5 663 c 128,-1,14
 1636 678 1636 678 1636 722 c 2,15,-1
 1636 1365 l 1,16,-1
 1328 597 l 1,17,-1
 1279 597 l 1,18,-1
 986 1330 l 1,19,-1
 986 733 l 2,20,21
 986 682 986 682 1006 665 c 128,-1,22
 1026 648 1026 648 1090 646 c 1,23,-1
 1090 597 l 1,24,-1
 790 597 l 1,25,-1
 790 646 l 1,26,27
 863 648 863 648 881 662.5 c 128,-1,28
 899 677 899 677 899 735 c 2,29,-1
 899 1407 l 2,30,31
 899 1434 899 1434 890 1439 c 0,32,33
 880 1445 880 1445 808 1445 c 1,34,-1
 808 1494 l 1,35,-1
 1074 1494 l 1,36,-1
 1339 848 l 1,37,-1
 1601 1494 l 1,38,-1
 1898 1494 l 1,0,-1
761 1494 m 1,39,-1
 761 1250 l 1,40,-1
 710 1250 l 1,41,42
 709 1287 709 1287 705 1311 c 128,-1,43
 701 1335 701 1335 690.5 1354.5 c 128,-1,44
 680 1374 680 1374 665 1384.5 c 128,-1,45
 650 1395 650 1395 623 1402.5 c 128,-1,46
 596 1410 596 1410 563 1412 c 128,-1,47
 530 1414 530 1414 480 1414 c 2,48,-1
 475 1414 l 1,49,-1
 475 713 l 2,50,51
 474 694 474 694 476.5 683 c 128,-1,52
 479 672 479 672 485.5 663.5 c 128,-1,53
 492 655 492 655 509 652 c 128,-1,54
 526 649 526 649 548 647.5 c 128,-1,55
 570 646 570 646 610 646 c 1,56,-1
 610 597 l 1,57,-1
 182 597 l 1,58,-1
 182 646 l 1,59,60
 231 646 231 646 256 648 c 128,-1,61
 281 650 281 650 297.5 658.5 c 128,-1,62
 314 667 314 667 318 679.5 c 128,-1,63
 322 692 322 692 322 717 c 2,64,-1
 322 1414 l 1,65,-1
 309 1414 l 2,66,67
 261 1412 261 1412 229.5 1409 c 128,-1,68
 198 1406 198 1406 172 1398.5 c 128,-1,69
 146 1391 146 1391 132 1380.5 c 128,-1,70
 118 1370 118 1370 107.5 1351 c 128,-1,71
 97 1332 97 1332 92 1309 c 128,-1,72
 87 1286 87 1286 84 1250 c 1,73,-1
 40 1250 l 1,74,-1
 40 1494 l 1,75,-1
 761 1494 l 1,39,-1
EndSplineSet
Validated: 1
EndChar

StartChar: acute
Encoding: 180 180 141
Width: 1233
Flags: W
LayerCount: 2
Fore
SplineSet
756 1638 m 1,0,-1
 954 1638 l 1,1,-1
 629 1262 l 1,2,-1
 475 1262 l 1,3,-1
 756 1638 l 1,0,-1
EndSplineSet
Validated: 1
EndChar

StartChar: dieresis
Encoding: 168 168 142
Width: 1233
Flags: W
LayerCount: 2
Fore
SplineSet
319 1552 m 1,0,-1
 522 1552 l 1,1,-1
 522 1350 l 1,2,-1
 319 1350 l 1,3,-1
 319 1552 l 1,0,-1
711 1552 m 1,4,-1
 913 1552 l 1,5,-1
 913 1350 l 1,6,-1
 711 1350 l 1,7,-1
 711 1552 l 1,4,-1
EndSplineSet
Validated: 1
EndChar

StartChar: notequal
Encoding: 8800 8800 143
Width: 1724
VWidth: 2220
Flags: W
HStem: 295 89<162 659 200 1547> 726 89<162 872 198 1547>
DStem2: 146 -178 181 -198 0.456935 0.8895
LayerCount: 2
Fore
SplineSet
945 815 m 1,0,-1
 1323 1550 l 2,1,2
 1343 1590 1343 1590 1372 1590 c 0,3,4
 1393 1590 1393 1590 1404.5 1575 c 128,-1,5
 1416 1560 1416 1560 1416 1545 c 1,6,7
 1417 1536 1417 1536 1401 1505 c 2,8,-1
 1047 815 l 1,9,-1
 1527 815 l 2,10,11
 1543 815 1543 815 1552.5 814 c 128,-1,12
 1562 813 1562 813 1575 809.5 c 128,-1,13
 1588 806 1588 806 1594.5 796 c 128,-1,14
 1601 786 1601 786 1601 770 c 0,15,16
 1601 757 1601 757 1595.5 748.5 c 128,-1,17
 1590 740 1590 740 1584 735.5 c 128,-1,18
 1578 731 1578 731 1566 729 c 128,-1,19
 1554 727 1554 727 1546.5 726.5 c 128,-1,20
 1539 726 1539 726 1525 726 c 2,21,-1
 1001 726 l 1,22,-1
 825 384 l 1,23,-1
 1525 384 l 2,24,25
 1539 384 1539 384 1546.5 383.5 c 128,-1,26
 1554 383 1554 383 1566 381 c 128,-1,27
 1578 379 1578 379 1584 374.5 c 128,-1,28
 1590 370 1590 370 1595.5 361 c 128,-1,29
 1601 352 1601 352 1601 340 c 0,30,31
 1601 324 1601 324 1594.5 314 c 128,-1,32
 1588 304 1588 304 1575 300.5 c 128,-1,33
 1562 297 1562 297 1552.5 296 c 128,-1,34
 1543 295 1543 295 1527 295 c 2,35,-1
 780 295 l 1,36,-1
 402 -440 l 2,37,38
 382 -480 382 -480 353 -480 c 0,39,40
 332 -480 332 -480 320.5 -465 c 128,-1,41
 309 -450 309 -450 309 -435 c 0,42,43
 309 -426 309 -426 324 -395 c 2,44,-1
 678 295 l 1,45,-1
 198 295 l 2,46,47
 182 295 182 295 172.5 296 c 128,-1,48
 163 297 163 297 150 300.5 c 128,-1,49
 137 304 137 304 130.5 314 c 128,-1,50
 124 324 124 324 124 340 c 0,51,52
 124 353 124 353 129 361.5 c 128,-1,53
 134 370 134 370 140.5 374.5 c 128,-1,54
 147 379 147 379 159 381 c 128,-1,55
 171 383 171 383 178.5 383.5 c 128,-1,56
 186 384 186 384 200 384 c 2,57,-1
 724 384 l 1,58,-1
 900 726 l 1,59,-1
 200 726 l 2,60,61
 186 726 186 726 178.5 726.5 c 128,-1,62
 171 727 171 727 159 729 c 128,-1,63
 147 731 147 731 140.5 735.5 c 128,-1,64
 134 740 134 740 129 749 c 128,-1,65
 124 758 124 758 124 770 c 0,66,67
 124 786 124 786 130 796 c 0,68,69
 137 806 137 806 150 809.5 c 128,-1,70
 163 813 163 813 172 814 c 128,-1,71
 181 815 181 815 198 815 c 2,72,-1
 945 815 l 1,0,-1
EndSplineSet
Validated: 1
EndChar

StartChar: AE
Encoding: 198 198 144
Width: 1233
Flags: W
LayerCount: 2
Fore
SplineSet
1161 1493 m 1,0,-1
 1161 1323 l 1,1,-1
 823 1323 l 1,2,-1
 823 881 l 1,3,-1
 1130 881 l 1,4,-1
 1130 711 l 1,5,-1
 823 711 l 1,6,-1
 823 170 l 1,7,-1
 1180 170 l 1,8,-1
 1180 0 l 1,9,-1
 637 0 l 1,10,-1
 637 383 l 1,11,-1
 285 383 l 1,12,-1
 184 0 l 1,13,-1
 0 0 l 1,14,-1
 410 1493 l 1,15,-1
 1161 1493 l 1,0,-1
530 1323 m 1,16,-1
 328 551 l 1,17,-1
 637 551 l 1,18,-1
 637 1323 l 1,19,-1
 530 1323 l 1,16,-1
EndSplineSet
Validated: 1
EndChar

StartChar: Oslash
Encoding: 216 216 145
Width: 1233
Flags: W
LayerCount: 2
Fore
SplineSet
371 303 m 1,0,1
 401 225 401 225 466.5 180 c 128,-1,2
 532 135 532 135 616 135 c 0,3,4
 770 135 770 135 837.5 275.5 c 128,-1,5
 905 416 905 416 905 745 c 0,6,7
 905 855 905 855 900 923 c 128,-1,8
 895 991 895 991 885 1036 c 1,9,-1
 371 303 l 1,0,1
338 471 m 1,10,-1
 842 1190 l 1,11,12
 817 1271 817 1271 759.5 1313.5 c 128,-1,13
 702 1356 702 1356 616 1356 c 0,14,15
 459 1356 459 1356 393.5 1210 c 128,-1,16
 328 1064 328 1064 328 686 c 0,17,18
 328 606 328 606 330.5 555.5 c 128,-1,19
 333 505 333 505 338 471 c 1,10,-1
1032 1247 m 1,20,21
 1073 1166 1073 1166 1094.5 1037 c 128,-1,22
 1116 908 1116 908 1116 745 c 0,23,24
 1116 355 1116 355 992.5 163 c 128,-1,25
 869 -29 869 -29 616 -29 c 0,26,27
 495 -29 495 -29 405 11.5 c 128,-1,28
 315 52 315 52 254 133 c 1,29,-1
 111 -70 l 1,30,-1
 8 0 l 1,31,-1
 186 252 l 1,32,33
 154 325 154 325 135.5 456 c 128,-1,34
 117 587 117 587 117 745 c 0,35,36
 117 1136 117 1136 240.5 1328 c 128,-1,37
 364 1520 364 1520 616 1520 c 0,38,39
 731 1520 731 1520 817.5 1479 c 128,-1,40
 904 1438 904 1438 961 1358 c 1,41,-1
 1100 1559 l 1,42,-1
 1200 1485 l 1,43,-1
 1032 1247 l 1,20,21
EndSplineSet
Validated: 1
EndChar

StartChar: infinity
Encoding: 8734 8734 146
Width: 2220
VWidth: 2220
Flags: W
HStem: -24 71<511 557> -24 107<1665 1707> 910 71<1649 1707>
VStem: 124 49<477 511> 2045 49<480 526>
LayerCount: 2
Fore
SplineSet
1128 604 m 1,0,1
 1139 623 1139 623 1150.5 641 c 128,-1,2
 1162 659 1162 659 1192.5 699.5 c 128,-1,3
 1223 740 1223 740 1254.5 773.5 c 128,-1,4
 1286 807 1286 807 1334 847.5 c 128,-1,5
 1382 888 1382 888 1431 915.5 c 128,-1,6
 1480 943 1480 943 1544 962 c 128,-1,7
 1608 981 1608 981 1674 981 c 0,8,9
 1751 981 1751 981 1818.5 952.5 c 128,-1,10
 1886 924 1886 924 1936 875.5 c 128,-1,11
 1986 827 1986 827 2022 763 c 128,-1,12
 2058 699 2058 699 2075.5 626.5 c 128,-1,13
 2093 554 2093 554 2093 480 c 0,14,15
 2093 382 2093 382 2062.5 290.5 c 128,-1,16
 2032 199 2032 199 1977.5 129 c 128,-1,17
 1923 59 1923 59 1842 17.5 c 128,-1,18
 1761 -24 1761 -24 1667 -24 c 0,19,20
 1471 -24 1471 -24 1290 129 c 0,21,22
 1253 161 1253 161 1227 190 c 128,-1,23
 1201 219 1201 219 1090 353 c 1,24,25
 1079 334 1079 334 1067.5 316 c 128,-1,26
 1056 298 1056 298 1025.5 257.5 c 128,-1,27
 995 217 995 217 963.5 183.5 c 128,-1,28
 932 150 932 150 884 109.5 c 128,-1,29
 836 69 836 69 786.5 41 c 128,-1,30
 737 13 737 13 673 -5.5 c 128,-1,31
 609 -24 609 -24 544 -24 c 0,32,33
 467 -24 467 -24 399 4 c 128,-1,34
 331 32 331 32 281.5 81 c 128,-1,35
 232 130 232 130 196 194 c 128,-1,36
 160 258 160 258 142 330.5 c 128,-1,37
 124 403 124 403 124 477 c 0,38,39
 124 575 124 575 155 666.5 c 128,-1,40
 186 758 186 758 240.5 827.5 c 128,-1,41
 295 897 295 897 376 939 c 128,-1,42
 457 981 457 981 551 981 c 0,43,44
 747 981 747 981 928 828 c 0,45,46
 965 796 965 796 991 767 c 128,-1,47
 1017 738 1017 738 1128 604 c 1,0,1
1185 526 m 1,48,49
 1207 499 1207 499 1290.5 390 c 128,-1,50
 1374 281 1374 281 1410 242 c 0,51,52
 1485 160 1485 160 1556 121 c 128,-1,53
 1627 82 1627 82 1703 82 c 0,54,55
 1795 82 1795 82 1873.5 134.5 c 128,-1,56
 1952 187 1952 187 1998.5 279 c 128,-1,57
 2045 371 2045 371 2045 480 c 0,58,59
 2045 541 2045 541 2031 601.5 c 128,-1,60
 2017 662 2017 662 1987.5 717.5 c 128,-1,61
 1958 773 1958 773 1916.5 816 c 128,-1,62
 1875 859 1875 859 1816.5 884.5 c 128,-1,63
 1758 910 1758 910 1689 910 c 0,64,65
 1617 910 1617 910 1548.5 884 c 128,-1,66
 1480 858 1480 858 1428 819 c 128,-1,67
 1376 780 1376 780 1327 725.5 c 128,-1,68
 1278 671 1278 671 1246 624.5 c 128,-1,69
 1214 578 1214 578 1185 526 c 1,48,49
1032 431 m 1,70,71
 1010 458 1010 458 926.5 567 c 128,-1,72
 843 676 843 676 808 715 c 0,73,74
 733 797 733 797 662 836 c 128,-1,75
 591 875 591 875 515 875 c 0,76,77
 423 875 423 875 344.5 822.5 c 128,-1,78
 266 770 266 770 219.5 678 c 128,-1,79
 173 586 173 586 173 477 c 0,80,81
 173 416 173 416 187 355.5 c 128,-1,82
 201 295 201 295 230.5 239.5 c 128,-1,83
 260 184 260 184 301.5 141 c 128,-1,84
 343 98 343 98 401.5 72.5 c 128,-1,85
 460 47 460 47 528 47 c 0,86,87
 600 47 600 47 669 73 c 128,-1,88
 738 99 738 99 790 137.5 c 128,-1,89
 842 176 842 176 891 230.5 c 128,-1,90
 940 285 940 285 971.5 332 c 128,-1,91
 1003 379 1003 379 1032 431 c 1,70,71
EndSplineSet
Validated: 1
EndChar

StartChar: plusminus
Encoding: 177 177 147
Width: 1724
VWidth: 2220
Flags: W
HStem: 0 89<161.384 819.18 907.98 1547.34> 695 89<161.384 819.18 907.98 1547.34> 1434 44G<841.38 885.78>
VStem: 819 89<86.58 694.86 781.44 1423.02>
LayerCount: 2
Fore
SplineSet
908 695 m 1,0,-1
 908 89 l 1,1,-1
 1527 89 l 2,2,3
 1543 89 1543 89 1552.5 88 c 128,-1,4
 1562 87 1562 87 1575 83.5 c 128,-1,5
 1588 80 1588 80 1594.5 70 c 128,-1,6
 1601 60 1601 60 1601 44.5 c 128,-1,7
 1601 29 1601 29 1594.5 19 c 128,-1,8
 1588 9 1588 9 1575 5.5 c 128,-1,9
 1562 2 1562 2 1553 1 c 128,-1,10
 1544 0 1544 0 1527 0 c 2,11,-1
 198 0 l 2,12,13
 182 0 182 0 172.5 1 c 128,-1,14
 163 2 163 2 150 5.5 c 128,-1,15
 137 9 137 9 130.5 19 c 128,-1,16
 124 29 124 29 124 44.5 c 128,-1,17
 124 60 124 60 130.5 70 c 128,-1,18
 137 80 137 80 150 83.5 c 128,-1,19
 163 87 163 87 172 88 c 128,-1,20
 181 89 181 89 198 89 c 2,21,-1
 819 89 l 1,22,-1
 819 695 l 1,23,-1
 198 695 l 2,24,25
 182 695 182 695 172.5 696 c 128,-1,26
 163 697 163 697 150 700.5 c 128,-1,27
 137 704 137 704 130.5 714 c 128,-1,28
 124 724 124 724 124 739.5 c 128,-1,29
 124 755 124 755 130.5 765 c 128,-1,30
 137 775 137 775 150 778.5 c 128,-1,31
 163 782 163 782 172 783 c 128,-1,32
 181 784 181 784 198 784 c 2,33,-1
 819 784 l 1,34,-1
 819 1407 l 2,35,36
 819 1423 819 1423 820 1432 c 128,-1,37
 821 1441 821 1441 824.5 1454 c 128,-1,38
 828 1467 828 1467 838 1473 c 128,-1,39
 848 1479 848 1479 863.5 1478.5 c 128,-1,40
 879 1478 879 1478 889 1471.5 c 128,-1,41
 899 1465 899 1465 902.5 1450.5 c 128,-1,42
 906 1436 906 1436 907 1426 c 128,-1,43
 908 1416 908 1416 908 1399 c 2,44,-1
 908 784 l 1,45,-1
 1527 784 l 2,46,47
 1543 784 1543 784 1552.5 783 c 128,-1,48
 1562 782 1562 782 1575 778.5 c 128,-1,49
 1588 775 1588 775 1594.5 765 c 128,-1,50
 1601 755 1601 755 1601 739.5 c 128,-1,51
 1601 724 1601 724 1594.5 714 c 128,-1,52
 1588 704 1588 704 1575 700.5 c 128,-1,53
 1562 697 1562 697 1553 696 c 128,-1,54
 1544 695 1544 695 1527 695 c 2,55,-1
 908 695 l 1,0,-1
EndSplineSet
Validated: 1
EndChar

StartChar: lessequal
Encoding: 8804 8804 148
Width: 1724
VWidth: 2220
Flags: W
HStem: -304 89<222 1505>
DStem2: 102 368 150 346 0.904597 0.426267 150 346 102 325 0.904301 -0.426895
LayerCount: 2
Fore
SplineSet
1501 1321 m 2,0,-1
 333 768 l 1,1,-1
 1498 218 l 2,2,3
 1512 211 1512 211 1517 208 c 128,-1,4
 1522 205 1522 205 1529 199.5 c 128,-1,5
 1536 194 1536 194 1538.5 187.5 c 128,-1,6
 1541 181 1541 181 1541 171 c 0,7,8
 1541 153 1541 153 1528 140 c 128,-1,9
 1515 127 1515 127 1496 127 c 0,10,11
 1483 127 1483 127 1459 140 c 2,12,-1
 226 722 l 2,13,14
 213 728 213 728 205.5 732 c 128,-1,15
 198 736 198 736 191 746 c 128,-1,16
 184 756 184 756 184 768 c 0,17,18
 184 778 184 778 187 786 c 128,-1,19
 190 794 190 794 197.5 800 c 128,-1,20
 205 806 205 806 209.5 808.5 c 128,-1,21
 214 811 214 811 226 817 c 2,22,-1
 1461 1399 l 2,23,24
 1485 1412 1485 1412 1496 1412 c 0,25,26
 1514 1412 1514 1412 1527.5 1399 c 128,-1,27
 1541 1386 1541 1386 1541 1368 c 0,28,29
 1541 1348 1541 1348 1531 1338.5 c 128,-1,30
 1521 1329 1521 1329 1501 1321 c 2,0,-1
1467 -304 m 2,31,-1
 258 -304 l 2,32,33
 242 -304 242 -304 232.5 -303 c 128,-1,34
 223 -302 223 -302 210 -298.5 c 128,-1,35
 197 -295 197 -295 190.5 -285 c 128,-1,36
 184 -275 184 -275 184 -259.5 c 128,-1,37
 184 -244 184 -244 191 -234 c 128,-1,38
 198 -224 198 -224 211.5 -220.5 c 128,-1,39
 225 -217 225 -217 234 -216 c 128,-1,40
 243 -215 243 -215 260 -215 c 2,41,-1
 1465 -215 l 2,42,43
 1479 -215 1479 -215 1486.5 -215.5 c 128,-1,44
 1494 -216 1494 -216 1506 -218.5 c 128,-1,45
 1518 -221 1518 -221 1524 -225 c 128,-1,46
 1530 -229 1530 -229 1535.5 -238 c 128,-1,47
 1541 -247 1541 -247 1541 -260 c 0,48,49
 1541 -276 1541 -276 1534.5 -285.5 c 128,-1,50
 1528 -295 1528 -295 1515 -298.5 c 128,-1,51
 1502 -302 1502 -302 1492.5 -303 c 128,-1,52
 1483 -304 1483 -304 1467 -304 c 2,31,-1
EndSplineSet
Validated: 1
EndChar

StartChar: greaterequal
Encoding: 8805 8805 149
Width: 1724
VWidth: 2220
Flags: W
HStem: -304 89<222 1503>
DStem2: 101 98 266 140 0.904301 0.426895 121 629 102 595 0.904634 -0.42619
LayerCount: 2
Fore
SplineSet
1498 722 m 2,0,-1
 266 140 l 2,1,2
 242 127 242 127 229 127 c 0,3,4
 211 127 211 127 197.5 140 c 128,-1,5
 184 153 184 153 184 171 c 0,6,7
 184 184 184 184 191 194 c 128,-1,8
 198 204 198 204 204.5 208 c 128,-1,9
 211 212 211 212 224 218 c 2,10,-1
 1392 770 l 1,11,-1
 226 1321 l 2,12,13
 201 1332 201 1332 192.5 1340.5 c 128,-1,14
 184 1349 184 1349 184 1367.5 c 128,-1,15
 184 1386 184 1386 197 1399 c 128,-1,16
 210 1412 210 1412 229 1412 c 0,17,18
 240 1412 240 1412 269 1396 c 2,19,-1
 1498 817 l 2,20,21
 1510 811 1510 811 1515 808.5 c 128,-1,22
 1520 806 1520 806 1527.5 800 c 128,-1,23
 1535 794 1535 794 1538 786 c 128,-1,24
 1541 778 1541 778 1541 768 c 0,25,26
 1541 750 1541 750 1529.5 740.5 c 128,-1,27
 1518 731 1518 731 1498 722 c 2,0,-1
1467 -304 m 2,28,-1
 258 -304 l 2,29,30
 242 -304 242 -304 232.5 -303 c 128,-1,31
 223 -302 223 -302 210 -298.5 c 128,-1,32
 197 -295 197 -295 190.5 -285 c 128,-1,33
 184 -275 184 -275 184 -259.5 c 128,-1,34
 184 -244 184 -244 191 -234 c 128,-1,35
 198 -224 198 -224 211.5 -220.5 c 128,-1,36
 225 -217 225 -217 234 -216 c 128,-1,37
 243 -215 243 -215 260 -215 c 2,38,-1
 1465 -215 l 2,39,40
 1479 -215 1479 -215 1486.5 -215.5 c 128,-1,41
 1494 -216 1494 -216 1506 -218.5 c 128,-1,42
 1518 -221 1518 -221 1524 -225 c 128,-1,43
 1530 -229 1530 -229 1535.5 -238 c 128,-1,44
 1541 -247 1541 -247 1541 -260 c 0,45,46
 1541 -276 1541 -276 1534.5 -285.5 c 128,-1,47
 1528 -295 1528 -295 1515 -298.5 c 128,-1,48
 1502 -302 1502 -302 1492.5 -303 c 128,-1,49
 1483 -304 1483 -304 1467 -304 c 2,28,-1
EndSplineSet
Validated: 1
EndChar

StartChar: yen
Encoding: 165 165 150
Width: 1233
Flags: W
LayerCount: 2
Fore
SplineSet
37 1493 m 1,0,-1
 252 1493 l 1,1,-1
 616 834 l 1,2,-1
 979 1493 l 1,3,-1
 1196 1493 l 1,4,-1
 866 932 l 1,5,-1
 1118 932 l 1,6,-1
 1118 821 l 1,7,-1
 803 821 l 1,8,-1
 717 670 l 1,9,-1
 717 635 l 1,10,-1
 1118 635 l 1,11,-1
 1118 524 l 1,12,-1
 717 524 l 1,13,-1
 717 0 l 1,14,-1
 514 0 l 1,15,-1
 514 524 l 1,16,-1
 115 524 l 1,17,-1
 115 635 l 1,18,-1
 514 635 l 1,19,-1
 514 670 l 1,20,-1
 424 821 l 1,21,-1
 115 821 l 1,22,-1
 115 932 l 1,23,-1
 358 932 l 1,24,-1
 37 1493 l 1,0,-1
EndSplineSet
Validated: 1
EndChar

StartChar: uni00B5
Encoding: 181 181 151
Width: 1233
Flags: W
LayerCount: 2
Fore
SplineSet
195 -428 m 1,0,-1
 195 1120 l 1,1,-1
 379 1120 l 1,2,-1
 379 424 l 2,3,4
 379 282 379 282 439 206.5 c 128,-1,5
 499 131 499 131 610 131 c 0,6,7
 737 131 737 131 801.5 216 c 128,-1,8
 866 301 866 301 866 467 c 2,9,-1
 866 1120 l 1,10,-1
 1051 1120 l 1,11,-1
 1051 256 l 2,12,13
 1051 197 1051 197 1067 169 c 128,-1,14
 1083 141 1083 141 1116 141 c 0,15,16
 1125 141 1125 141 1139.5 146 c 128,-1,17
 1154 151 1154 151 1182 164 c 1,18,-1
 1182 16 l 1,19,20
 1144 -7 1144 -7 1110 -18 c 128,-1,21
 1076 -29 1076 -29 1042 -29 c 0,22,23
 980 -29 980 -29 942.5 10.5 c 128,-1,24
 905 50 905 50 893 129 c 1,25,26
 847 49 847 49 780.5 10 c 128,-1,27
 714 -29 714 -29 625 -29 c 0,28,29
 533 -29 533 -29 469.5 9 c 128,-1,30
 406 47 406 47 362 127 c 1,31,-1
 362 -428 l 1,32,-1
 195 -428 l 1,0,-1
EndSplineSet
Validated: 1
EndChar

StartChar: partialdiff
Encoding: 8706 8706 152
Width: 1346
VWidth: 2220
Flags: W
HStem: -49 62<477 517> 966 49<741 781> 1161 195<437 457> 1534 56<737 801>
VStem: 89 171<264 346> 353 204<1239 1279> 1090 166<1015 1132>
LayerCount: 2
Fore
SplineSet
1028 753 m 1,0,-1
 1030 753 l 1,1,2
 1090 984 1090 984 1090 1132 c 0,3,4
 1090 1235 1090 1235 1063.5 1315 c 128,-1,5
 1037 1395 1037 1395 991.5 1441.5 c 128,-1,6
 946 1488 946 1488 891 1511 c 128,-1,7
 836 1534 836 1534 773 1534 c 0,8,9
 748 1534 748 1534 723.5 1531.5 c 128,-1,10
 699 1529 699 1529 660.5 1518.5 c 128,-1,11
 622 1508 622 1508 588.5 1490 c 128,-1,12
 555 1472 555 1472 518 1437.5 c 128,-1,13
 481 1403 481 1403 453 1356 c 1,14,15
 469 1356 469 1356 478 1355.5 c 128,-1,16
 487 1355 487 1355 504 1351 c 128,-1,17
 521 1347 521 1347 531 1339.5 c 128,-1,18
 541 1332 541 1332 549 1316.5 c 128,-1,19
 557 1301 557 1301 557 1279 c 0,20,21
 557 1237 557 1237 523 1199 c 128,-1,22
 489 1161 489 1161 437 1161 c 0,23,24
 392 1161 392 1161 372.5 1185 c 128,-1,25
 353 1209 353 1209 353 1239 c 0,26,27
 353 1254 353 1254 359.5 1278 c 128,-1,28
 366 1302 366 1302 381 1335.5 c 128,-1,29
 396 1369 396 1369 418 1403 c 128,-1,30
 440 1437 440 1437 475 1471 c 128,-1,31
 510 1505 510 1505 552 1531 c 128,-1,32
 594 1557 594 1557 652.5 1573.5 c 128,-1,33
 711 1590 711 1590 777 1590 c 0,34,35
 879 1590 879 1590 967 1549 c 128,-1,36
 1055 1508 1055 1508 1119 1434.5 c 128,-1,37
 1183 1361 1183 1361 1220 1252.5 c 128,-1,38
 1257 1144 1257 1144 1257 1015 c 0,39,40
 1257 945 1257 945 1243 856 c 128,-1,41
 1229 767 1229 767 1198.5 665 c 128,-1,42
 1168 563 1168 563 1124.5 463 c 128,-1,43
 1081 363 1081 363 1017.5 270 c 128,-1,44
 954 177 954 177 879 106.5 c 128,-1,45
 804 36 804 36 705 -6.5 c 128,-1,46
 606 -49 606 -49 497 -49 c 0,47,48
 408 -49 408 -49 335.5 -21 c 128,-1,49
 263 7 263 7 218.5 50 c 128,-1,50
 174 93 174 93 143.5 148 c 128,-1,51
 113 203 113 203 101 252.5 c 128,-1,52
 89 302 89 302 89 346 c 0,53,54
 89 373 89 373 91.5 403 c 128,-1,55
 94 433 94 433 106 484.5 c 128,-1,56
 118 536 118 536 138 585 c 128,-1,57
 158 634 158 634 197 694 c 128,-1,58
 236 754 236 754 289 806 c 0,59,60
 409 926 409 926 517.5 970.5 c 128,-1,61
 626 1015 626 1015 741 1015 c 0,62,63
 804 1015 804 1015 855.5 993.5 c 128,-1,64
 907 972 907 972 941.5 935 c 128,-1,65
 976 898 976 898 997.5 852 c 128,-1,66
 1019 806 1019 806 1028 753 c 1,0,-1
504 13 m 0,67,68
 574 13 574 13 638 41.5 c 128,-1,69
 702 70 702 70 749.5 116 c 128,-1,70
 797 162 797 162 837.5 222.5 c 128,-1,71
 878 283 878 283 905 346 c 128,-1,72
 932 409 932 409 951.5 472 c 128,-1,73
 971 535 971 535 979.5 586 c 128,-1,74
 988 637 988 637 988 673 c 0,75,76
 988 688 988 688 987 703.5 c 128,-1,77
 986 719 986 719 981 750 c 128,-1,78
 976 781 976 781 967 807 c 128,-1,79
 958 833 958 833 939.5 864 c 128,-1,80
 921 895 921 895 896 916 c 128,-1,81
 871 937 871 937 831 951.5 c 128,-1,82
 791 966 791 966 741 966 c 0,83,84
 544 966 544 966 406 768 c 0,85,86
 346 680 346 680 303 505.5 c 128,-1,87
 260 331 260 331 260 264 c 0,88,89
 260 253 260 253 260.5 242.5 c 128,-1,90
 261 232 261 232 265.5 205 c 128,-1,91
 270 178 270 178 278.5 155.5 c 128,-1,92
 287 133 287 133 305.5 105.5 c 128,-1,93
 324 78 324 78 348.5 59 c 128,-1,94
 373 40 373 40 413.5 26.5 c 128,-1,95
 454 13 454 13 504 13 c 0,67,68
EndSplineSet
EndChar

StartChar: summation
Encoding: 8721 8721 153
Width: 2342
VWidth: 2220
Flags: W
HStem: -444 122<311 2027> 1687 89<186 1370>
DStem2: 164 760 56 768 0.588076 -0.808806 66 -173 140 -145 0.62879 0.777575
LayerCount: 2
Fore
SplineSet
1081 630 m 2,0,-1
 311 -322 l 1,1,-1
 1254 -322 l 2,2,3
 1563 -322 1563 -322 1769 -258 c 0,4,5
 1912 -209 1912 -209 2016.5 -112 c 128,-1,6
 2121 -15 2121 -15 2162 109 c 1,7,-1
 2218 109 l 1,8,-1
 2027 -444 l 1,9,-1
 186 -444 l 2,10,11
 167 -444 167 -444 159.5 -443.5 c 128,-1,12
 152 -443 152 -443 142.5 -441 c 128,-1,13
 133 -439 133 -439 130 -434 c 128,-1,14
 127 -429 127 -429 127 -420 c 0,15,16
 127 -409 127 -409 147 -384 c 2,17,-1
 935 591 l 1,18,-1
 124 1705 l 1,19,20
 124 1757 124 1757 132.5 1766.5 c 128,-1,21
 141 1776 141 1776 186 1776 c 2,22,-1
 2027 1776 l 1,23,-1
 2218 1257 l 1,24,-1
 2162 1257 l 1,25,26
 2137 1324 2137 1324 2097.5 1380.5 c 128,-1,27
 2058 1437 2058 1437 2013.5 1478.5 c 128,-1,28
 1969 1520 1969 1520 1911 1553 c 128,-1,29
 1853 1586 1853 1586 1799 1607 c 128,-1,30
 1745 1628 1745 1628 1679 1644 c 128,-1,31
 1613 1660 1613 1660 1560 1668 c 128,-1,32
 1507 1676 1507 1676 1442.5 1680.5 c 128,-1,33
 1378 1685 1378 1685 1337 1686 c 128,-1,34
 1296 1687 1296 1687 1243 1687 c 2,35,-1
 364 1687 l 1,36,-1
 1086 697 l 2,37,38
 1091 689 1091 689 1094 685 c 128,-1,39
 1097 681 1097 681 1098.5 677.5 c 128,-1,40
 1100 674 1100 674 1100.5 671.5 c 128,-1,41
 1101 669 1101 669 1101 666 c 0,42,43
 1101 656 1101 656 1081 630 c 2,0,-1
EndSplineSet
Validated: 1
EndChar

StartChar: product
Encoding: 8719 8719 154
Width: 2095
VWidth: 2220
Flags: W
HStem: -444 89<124 177 797 797 1296 1349 1969 1969> 1687 89<124 177 124 1525 124 1969>
VStem: 353 215<-227 1547> 1525 215<-227 1547>
LayerCount: 2
Fore
SplineSet
1740 1512 m 2,0,-1
 1740 -180 l 2,1,2
 1740 -195 1740 -195 1740.5 -203.5 c 128,-1,3
 1741 -212 1741 -212 1743 -228.5 c 128,-1,4
 1745 -245 1745 -245 1749 -255 c 128,-1,5
 1753 -265 1753 -265 1760.5 -280 c 128,-1,6
 1768 -295 1768 -295 1779.5 -304.5 c 128,-1,7
 1791 -314 1791 -314 1808.5 -324.5 c 128,-1,8
 1826 -335 1826 -335 1848 -341 c 128,-1,9
 1870 -347 1870 -347 1901 -351 c 128,-1,10
 1932 -355 1932 -355 1969 -355 c 1,11,-1
 1969 -444 l 1,12,-1
 1296 -444 l 1,13,-1
 1296 -355 l 1,14,15
 1333 -355 1333 -355 1364 -351 c 128,-1,16
 1395 -347 1395 -347 1417.5 -341 c 128,-1,17
 1440 -335 1440 -335 1457.5 -324.5 c 128,-1,18
 1475 -314 1475 -314 1486 -304.5 c 128,-1,19
 1497 -295 1497 -295 1505 -280 c 128,-1,20
 1513 -265 1513 -265 1517 -255 c 128,-1,21
 1521 -245 1521 -245 1523 -228.5 c 128,-1,22
 1525 -212 1525 -212 1525 -203.5 c 128,-1,23
 1525 -195 1525 -195 1525 -180 c 2,24,-1
 1525 1687 l 1,25,-1
 568 1687 l 1,26,-1
 568 -180 l 2,27,28
 568 -195 568 -195 568.5 -203.5 c 128,-1,29
 569 -212 569 -212 571 -228.5 c 128,-1,30
 573 -245 573 -245 577 -255 c 128,-1,31
 581 -265 581 -265 588.5 -280 c 128,-1,32
 596 -295 596 -295 607.5 -304.5 c 128,-1,33
 619 -314 619 -314 636.5 -324.5 c 128,-1,34
 654 -335 654 -335 676 -341 c 128,-1,35
 698 -347 698 -347 729 -351 c 128,-1,36
 760 -355 760 -355 797 -355 c 1,37,-1
 797 -444 l 1,38,-1
 124 -444 l 1,39,-1
 124 -355 l 1,40,41
 161 -355 161 -355 192 -351 c 128,-1,42
 223 -347 223 -347 245.5 -341 c 128,-1,43
 268 -335 268 -335 285.5 -324.5 c 128,-1,44
 303 -314 303 -314 314 -304.5 c 128,-1,45
 325 -295 325 -295 333 -280 c 128,-1,46
 341 -265 341 -265 344.5 -255 c 128,-1,47
 348 -245 348 -245 350 -228.5 c 128,-1,48
 352 -212 352 -212 352.5 -203.5 c 128,-1,49
 353 -195 353 -195 353 -180 c 2,50,-1
 353 1512 l 2,51,52
 353 1527 353 1527 352.5 1535.5 c 128,-1,53
 352 1544 352 1544 350 1560.5 c 128,-1,54
 348 1577 348 1577 344.5 1587 c 128,-1,55
 341 1597 341 1597 333 1612 c 128,-1,56
 325 1627 325 1627 314 1636.5 c 128,-1,57
 303 1646 303 1646 285.5 1656.5 c 128,-1,58
 268 1667 268 1667 245.5 1673 c 128,-1,59
 223 1679 223 1679 192 1683 c 128,-1,60
 161 1687 161 1687 124 1687 c 1,61,-1
 124 1776 l 1,62,-1
 1969 1776 l 1,63,-1
 1969 1687 l 1,64,65
 1932 1687 1932 1687 1901 1683 c 128,-1,66
 1870 1679 1870 1679 1848 1673 c 128,-1,67
 1826 1667 1826 1667 1808.5 1656.5 c 128,-1,68
 1791 1646 1791 1646 1779.5 1636.5 c 128,-1,69
 1768 1627 1768 1627 1760.5 1612 c 128,-1,70
 1753 1597 1753 1597 1749 1587 c 128,-1,71
 1745 1577 1745 1577 1743 1560.5 c 128,-1,72
 1741 1544 1741 1544 1740.5 1535.5 c 128,-1,73
 1740 1527 1740 1527 1740 1512 c 2,0,-1
EndSplineSet
Validated: 1
EndChar

StartChar: pi
Encoding: 960 960 155
Width: 1265
VWidth: 2220
Flags: W
HStem: -24 47G<279 326 827 866> 828 129<377 531 426 839 426 1174>
VStem: 746 111<255 475>
LayerCount: 2
Fore
SplineSet
588 828 m 1,0,-1
 464 337 l 2,1,2
 427 196 427 196 404 120 c 0,3,4
 400 108 400 108 396 96 c 128,-1,5
 392 84 392 84 388.5 73 c 128,-1,6
 385 62 385 62 381 52.5 c 128,-1,7
 377 43 377 43 372.5 34 c 128,-1,8
 368 25 368 25 363.5 17 c 128,-1,9
 359 9 359 9 353.5 2.5 c 128,-1,10
 348 -4 348 -4 341.5 -9 c 128,-1,11
 335 -14 335 -14 327.5 -17.5 c 128,-1,12
 320 -21 320 -21 311.5 -22.5 c 128,-1,13
 303 -24 303 -24 293 -24 c 0,14,15
 268 -24 268 -24 248.5 -9 c 128,-1,16
 229 6 229 6 229 36 c 0,17,18
 229 49 229 49 231.5 57 c 128,-1,19
 234 65 234 65 246 89 c 0,20,21
 305 217 305 217 347.5 314.5 c 128,-1,22
 390 412 390 412 444 557.5 c 128,-1,23
 498 703 498 703 531 828 c 1,24,-1
 404 828 l 2,25,26
 387 828 387 828 374.5 827 c 128,-1,27
 362 826 362 826 336 822 c 128,-1,28
 310 818 310 818 286.5 806.5 c 128,-1,29
 263 795 263 795 234.5 777.5 c 128,-1,30
 206 760 206 760 177 729 c 128,-1,31
 148 698 148 698 122 657 c 0,32,33
 117 650 117 650 113.5 645 c 128,-1,34
 110 640 110 640 106 637 c 128,-1,35
 102 634 102 634 97.5 632 c 128,-1,36
 93 630 93 630 87 630 c 0,37,38
 75 630 75 630 68 636 c 128,-1,39
 61 642 61 642 60.5 645.5 c 128,-1,40
 60 649 60 649 60 653 c 0,41,42
 60 664 60 664 102 729.5 c 128,-1,43
 144 795 144 795 195 852 c 0,44,45
 229 889 229 889 263.5 912.5 c 128,-1,46
 298 936 298 936 330.5 944.5 c 128,-1,47
 363 953 363 953 381.5 955 c 128,-1,48
 400 957 400 957 426 957 c 2,49,-1
 1170 957 l 2,50,51
 1187 957 1187 957 1196 956.5 c 128,-1,52
 1205 956 1205 956 1219 953.5 c 128,-1,53
 1233 951 1233 951 1240 945.5 c 128,-1,54
 1247 940 1247 940 1253 929.5 c 128,-1,55
 1259 919 1259 919 1259 904 c 0,56,57
 1259 829 1259 829 1150 828 c 2,58,-1
 897 828 l 1,59,60
 857 639 857 639 857 475 c 0,61,62
 857 269 857 269 921 109 c 0,63,64
 934 78 934 78 935 60 c 0,65,66
 935 27 935 27 906 1.5 c 128,-1,67
 877 -24 877 -24 844 -24 c 0,68,69
 816 -24 816 -24 797.5 -2.5 c 128,-1,70
 779 19 779 19 764 87 c 0,71,72
 746 162 746 162 746 255 c 0,73,74
 746 361 746 361 763 462.5 c 128,-1,75
 780 564 780 564 839 828 c 1,76,-1
 588 828 l 1,0,-1
EndSplineSet
Validated: 1
EndChar

StartChar: integral
Encoding: 8747 8747 156
Width: 1149
VWidth: 2220
Flags: W
HStem: -480 49<280 300> -480 271<205 287> 1319 271<862 945> 1541 49<850 868>
LayerCount: 2
Fore
SplineSet
949 1498 m 1,0,1
 945 1504 945 1504 937 1512.5 c 128,-1,2
 929 1521 929 1521 908.5 1531 c 128,-1,3
 888 1541 888 1541 865 1541 c 128,-1,4
 842 1541 842 1541 823 1530.5 c 128,-1,5
 804 1520 804 1520 790.5 1498.5 c 128,-1,6
 777 1477 777 1477 767 1453.5 c 128,-1,7
 757 1430 757 1430 749.5 1394.5 c 128,-1,8
 742 1359 742 1359 737 1329.5 c 128,-1,9
 732 1300 732 1300 727 1259 c 0,10,11
 716 1184 716 1184 692 932 c 0,12,13
 661 581 661 581 601 231 c 128,-1,14
 541 -119 541 -119 512 -238 c 0,15,16
 500 -287 500 -287 481.5 -327.5 c 128,-1,17
 463 -368 463 -368 436 -403.5 c 128,-1,18
 409 -439 409 -439 371 -459.5 c 128,-1,19
 333 -480 333 -480 287 -480 c 0,20,21
 210 -480 210 -480 162 -424.5 c 128,-1,22
 114 -369 114 -369 114 -302 c 0,23,24
 114 -255 114 -255 142 -232 c 128,-1,25
 170 -209 170 -209 205.5 -209 c 128,-1,26
 241 -209 241 -209 267.5 -233.5 c 128,-1,27
 294 -258 294 -258 294 -297 c 0,28,29
 294 -345 294 -345 266.5 -365.5 c 128,-1,30
 239 -386 239 -386 201 -388 c 1,31,32
 205 -394 205 -394 213 -402.5 c 128,-1,33
 221 -411 221 -411 241.5 -421 c 128,-1,34
 262 -431 262 -431 285 -431 c 0,35,36
 308 -431 308 -431 326.5 -421 c 128,-1,37
 345 -411 345 -411 358 -391 c 128,-1,38
 371 -371 371 -371 381 -348.5 c 128,-1,39
 391 -326 391 -326 398 -293.5 c 128,-1,40
 405 -261 405 -261 409.5 -235 c 128,-1,41
 414 -209 414 -209 418 -173 c 0,42,43
 432 -84 432 -84 458 178 c 0,44,45
 489 529 489 529 549 879 c 128,-1,46
 609 1229 609 1229 638 1348 c 0,47,48
 650 1397 650 1397 668.5 1437.5 c 128,-1,49
 687 1478 687 1478 714 1513.5 c 128,-1,50
 741 1549 741 1549 779 1569.5 c 128,-1,51
 817 1590 817 1590 862 1590 c 0,52,53
 939 1590 939 1590 987.5 1534.5 c 128,-1,54
 1036 1479 1036 1479 1036 1412 c 0,55,56
 1036 1365 1036 1365 1008 1342 c 128,-1,57
 980 1319 980 1319 944.5 1319 c 128,-1,58
 909 1319 909 1319 882.5 1343.5 c 128,-1,59
 856 1368 856 1368 856 1407 c 0,60,61
 856 1455 856 1455 883.5 1475.5 c 128,-1,62
 911 1496 911 1496 949 1498 c 1,0,1
EndSplineSet
Validated: 1
EndChar

StartChar: ordfeminine
Encoding: 170 170 157
Width: 1233
Flags: W
LayerCount: 2
Fore
SplineSet
684 1104 m 2,0,1
 540 1104 540 1104 478 1070 c 128,-1,2
 416 1036 416 1036 416 958 c 0,3,4
 416 894 416 894 459.5 855.5 c 128,-1,5
 503 817 503 817 575 817 c 0,6,7
 680 817 680 817 745.5 888.5 c 128,-1,8
 811 960 811 960 811 1075 c 2,9,-1
 811 1104 l 1,10,-1
 684 1104 l 2,0,1
954 1165 m 2,11,-1
 954 717 l 1,12,-1
 811 717 l 1,13,-1
 811 829 l 1,14,15
 762 764 762 764 696.5 731 c 128,-1,16
 631 698 631 698 549 698 c 0,17,18
 420 698 420 698 345 766 c 128,-1,19
 270 834 270 834 270 950 c 0,20,21
 270 1079 270 1079 363.5 1149 c 128,-1,22
 457 1219 457 1219 629 1219 c 2,23,-1
 811 1219 l 1,24,-1
 811 1223 l 2,25,26
 811 1313 811 1313 751.5 1359 c 128,-1,27
 692 1405 692 1405 575 1405 c 0,28,29
 524 1405 524 1405 461.5 1387.5 c 128,-1,30
 399 1370 399 1370 332 1337 c 1,31,-1
 332 1464 l 1,32,33
 400 1492 400 1492 467.5 1506 c 128,-1,34
 535 1520 535 1520 598 1520 c 0,35,36
 782 1520 782 1520 868 1434 c 128,-1,37
 954 1348 954 1348 954 1165 c 2,11,-1
293 592 m 1,38,-1
 961 592 l 1,39,-1
 961 469 l 1,40,-1
 293 469 l 1,41,-1
 293 592 l 1,38,-1
EndSplineSet
Validated: 1
EndChar

StartChar: ordmasculine
Encoding: 186 186 158
Width: 1233
Flags: W
LayerCount: 2
Fore
SplineSet
616 1403 m 0,0,1
 514 1403 514 1403 456.5 1325 c 128,-1,2
 399 1247 399 1247 399 1108 c 256,3,4
 399 969 399 969 456.5 892 c 128,-1,5
 514 815 514 815 616 815 c 0,6,7
 717 815 717 815 775.5 893.5 c 128,-1,8
 834 972 834 972 834 1108 c 0,9,10
 834 1247 834 1247 776.5 1325 c 128,-1,11
 719 1403 719 1403 616 1403 c 0,0,1
616 1520 m 0,12,13
 786 1520 786 1520 887.5 1408 c 128,-1,14
 989 1296 989 1296 989 1108 c 0,15,16
 989 921 989 921 888 809.5 c 128,-1,17
 787 698 787 698 616 698 c 0,18,19
 446 698 446 698 345 809.5 c 128,-1,20
 244 921 244 921 244 1108 c 0,21,22
 244 1296 244 1296 345.5 1408 c 128,-1,23
 447 1520 447 1520 616 1520 c 0,12,13
276 592 m 1,24,-1
 952 592 l 1,25,-1
 952 469 l 1,26,-1
 276 469 l 1,27,-1
 276 592 l 1,24,-1
EndSplineSet
Validated: 1
EndChar

StartChar: Omega
Encoding: 937 937 159
Width: 1602
VWidth: 2220
Flags: W
HStem: 0 144<340 517 1083 1261 1261 1325> 1516 49<698 906>
VStem: 124 229<927 1160> 517 64 1019 64 1248 229<927 1162>
LayerCount: 2
Fore
SplineSet
1503 360 m 1,0,-1
 1430 0 l 1,1,-1
 1077 0 l 2,2,3
 1037 0 1037 0 1028 6.5 c 128,-1,4
 1019 13 1019 13 1019 47 c 0,5,6
 1019 201 1019 201 1123 493 c 0,7,8
 1155 584 1155 584 1171 631.5 c 128,-1,9
 1187 679 1187 679 1208.5 753 c 128,-1,10
 1230 827 1230 827 1239 889 c 128,-1,11
 1248 951 1248 951 1248 1010 c 0,12,13
 1248 1110 1248 1110 1221.5 1195 c 128,-1,14
 1195 1280 1195 1280 1151 1338.5 c 128,-1,15
 1107 1397 1107 1397 1049 1437.5 c 128,-1,16
 991 1478 991 1478 928 1497 c 128,-1,17
 865 1516 865 1516 799 1516 c 0,18,19
 737 1516 737 1516 675.5 1498 c 128,-1,20
 614 1480 614 1480 555 1440 c 128,-1,21
 496 1400 496 1400 451.5 1342.5 c 128,-1,22
 407 1285 407 1285 380 1199 c 128,-1,23
 353 1113 353 1113 353 1010 c 0,24,25
 353 951 353 951 362.5 887.5 c 128,-1,26
 372 824 372 824 391 757 c 128,-1,27
 410 690 410 690 424 647 c 128,-1,28
 438 604 438 604 462 539 c 0,29,30
 497 442 497 442 517.5 378 c 128,-1,31
 538 314 538 314 560 216 c 128,-1,32
 582 118 582 118 582 47 c 0,33,34
 582 13 582 13 573 6.5 c 128,-1,35
 564 0 564 0 526 0 c 2,36,-1
 171 0 l 1,37,-1
 98 360 l 1,38,-1
 153 360 l 1,39,40
 176 244 176 244 193 195 c 0,41,42
 198 179 198 179 203 172.5 c 128,-1,43
 208 166 208 166 222 158 c 128,-1,44
 236 150 236 150 264.5 147 c 128,-1,45
 293 144 293 144 340 144 c 2,46,-1
 517 144 l 1,47,48
 507 189 507 189 490 232 c 128,-1,49
 473 275 473 275 442.5 327.5 c 128,-1,50
 412 380 412 380 389.5 415.5 c 128,-1,51
 367 451 367 451 320 522 c 0,52,53
 274 591 274 591 244 641.5 c 128,-1,54
 214 692 214 692 184 756 c 128,-1,55
 154 820 154 820 139 882.5 c 128,-1,56
 124 945 124 945 124 1008 c 0,57,58
 124 1120 124 1120 176.5 1223 c 128,-1,59
 229 1326 229 1326 319 1401 c 128,-1,60
 409 1476 409 1476 535 1520.5 c 128,-1,61
 661 1565 661 1565 801 1565 c 0,62,63
 939 1565 939 1565 1064.5 1521 c 128,-1,64
 1190 1477 1190 1477 1280 1402.5 c 128,-1,65
 1370 1328 1370 1328 1423 1225 c 128,-1,66
 1476 1122 1476 1122 1476 1008 c 0,67,68
 1476 945 1476 945 1461.5 882.5 c 128,-1,69
 1447 820 1447 820 1416.5 756 c 128,-1,70
 1386 692 1386 692 1356.5 641.5 c 128,-1,71
 1327 591 1327 591 1281 522 c 0,72,73
 1193 393 1193 393 1148 311.5 c 128,-1,74
 1103 230 1103 230 1083 144 c 1,75,-1
 1261 144 l 2,76,77
 1308 144 1308 144 1336 147 c 128,-1,78
 1364 150 1364 150 1378.5 158 c 128,-1,79
 1393 166 1393 166 1397.5 173.5 c 128,-1,80
 1402 181 1402 181 1407 198 c 0,81,82
 1425 246 1425 246 1447 360 c 1,83,-1
 1503 360 l 1,0,-1
EndSplineSet
Validated: 1
EndChar

StartChar: ae
Encoding: 230 230 160
Width: 1233
Flags: W
LayerCount: 2
Fore
SplineSet
543 442 m 2,0,-1
 543 514 l 1,1,-1
 494 514 l 2,2,3
 325 514 325 514 265 469 c 128,-1,4
 205 424 205 424 205 311 c 0,5,6
 205 222 205 222 249.5 173.5 c 128,-1,7
 294 125 294 125 377 125 c 0,8,9
 469 125 469 125 506 191.5 c 128,-1,10
 543 258 543 258 543 442 c 2,0,-1
1036 657 m 1,11,-1
 1036 709 l 2,12,13
 1036 860 1036 860 997.5 926.5 c 128,-1,14
 959 993 959 993 872 993 c 256,15,16
 785 993 785 993 747 925 c 128,-1,17
 709 857 709 857 709 700 c 2,18,-1
 709 657 l 1,19,-1
 1036 657 l 1,11,-1
1200 514 m 1,20,-1
 709 514 l 1,21,22
 708 499 708 499 707.5 481.5 c 128,-1,23
 707 464 707 464 707 430 c 0,24,25
 707 269 707 269 757.5 197 c 128,-1,26
 808 125 808 125 920 125 c 0,27,28
 999 125 999 125 1063.5 150.5 c 128,-1,29
 1128 176 1128 176 1178 227 c 1,30,-1
 1178 55 l 1,31,32
 1123 14 1123 14 1057 -7.5 c 128,-1,33
 991 -29 991 -29 920 -29 c 0,34,35
 810 -29 810 -29 735.5 12 c 128,-1,36
 661 53 661 53 629 131 c 1,37,38
 590 51 590 51 523.5 11 c 128,-1,39
 457 -29 457 -29 360 -29 c 0,40,41
 204 -29 204 -29 122.5 57 c 128,-1,42
 41 143 41 143 41 307 c 0,43,44
 41 478 41 478 141 567.5 c 128,-1,45
 241 657 241 657 432 657 c 2,46,-1
 549 657 l 1,47,-1
 549 745 l 2,48,49
 549 865 549 865 499.5 929 c 128,-1,50
 450 993 450 993 356 993 c 0,51,52
 300 993 300 993 234 971.5 c 128,-1,53
 168 950 168 950 106 911 c 1,54,-1
 106 1079 l 1,55,56
 183 1114 183 1114 249 1130.5 c 128,-1,57
 315 1147 315 1147 375 1147 c 0,58,59
 466 1147 466 1147 528 1115.5 c 128,-1,60
 590 1084 590 1084 627 1020 c 1,61,62
 660 1081 660 1081 726 1114 c 128,-1,63
 792 1147 792 1147 881 1147 c 0,64,65
 1055 1147 1055 1147 1127.5 1028.5 c 128,-1,66
 1200 910 1200 910 1200 604 c 2,67,-1
 1200 514 l 1,20,-1
EndSplineSet
Validated: 1
EndChar

StartChar: oslash
Encoding: 248 248 161
Width: 1233
Flags: W
LayerCount: 2
Fore
SplineSet
877 780 m 1,0,-1
 414 221 l 1,1,2
 450 174 450 174 500.5 150.5 c 128,-1,3
 551 127 551 127 616 127 c 0,4,5
 757 127 757 127 829 236.5 c 128,-1,6
 901 346 901 346 901 559 c 0,7,8
 901 611 901 611 895 666.5 c 128,-1,9
 889 722 889 722 877 780 c 1,0,-1
817 897 m 1,10,11
 782 945 782 945 732.5 968 c 128,-1,12
 683 991 683 991 616 991 c 0,13,14
 477 991 477 991 402.5 884 c 128,-1,15
 328 777 328 777 328 575 c 0,16,17
 328 527 328 527 335 469 c 128,-1,18
 342 411 342 411 356 340 c 1,19,-1
 817 897 l 1,10,11
217 180 m 1,20,21
 178 251 178 251 157.5 348.5 c 128,-1,22
 137 446 137 446 137 559 c 0,23,24
 137 845 137 845 260 996 c 128,-1,25
 383 1147 383 1147 616 1147 c 0,26,27
 716 1147 716 1147 795 1119.5 c 128,-1,28
 874 1092 874 1092 934 1036 c 1,29,-1
 1081 1212 l 1,30,-1
 1174 1135 l 1,31,-1
 1010 940 l 1,32,33
 1052 874 1052 874 1074 777.5 c 128,-1,34
 1096 681 1096 681 1096 559 c 0,35,36
 1096 272 1096 272 973 121.5 c 128,-1,37
 850 -29 850 -29 616 -29 c 0,38,39
 513 -29 513 -29 434.5 0.5 c 128,-1,40
 356 30 356 30 299 90 c 1,41,-1
 139 -96 l 1,42,-1
 47 -20 l 1,43,-1
 217 180 l 1,20,21
EndSplineSet
Validated: 1
EndChar

StartChar: questiondown
Encoding: 191 191 162
Width: 1233
Flags: W
LayerCount: 2
Fore
SplineSet
549 1092 m 1,0,-1
 739 1092 l 1,1,-1
 739 938 l 2,2,3
 739 840 739 840 708.5 771.5 c 128,-1,4
 678 703 678 703 594 621 c 2,5,-1
 504 532 l 1,6,7
 442 473 442 473 418.5 429 c 128,-1,8
 395 385 395 385 395 336 c 0,9,10
 395 247 395 247 460.5 192 c 128,-1,11
 526 137 526 137 635 137 c 0,12,13
 713 137 713 137 802 171.5 c 128,-1,14
 891 206 891 206 989 274 c 1,15,-1
 989 86 l 1,16,17
 895 29 895 29 799.5 1 c 128,-1,18
 704 -27 704 -27 600 -27 c 0,19,20
 414 -27 414 -27 303.5 69 c 128,-1,21
 193 165 193 165 193 326 c 0,22,23
 193 402 193 402 226.5 467.5 c 128,-1,24
 260 533 260 533 354 625 c 2,25,-1
 442 711 l 1,26,27
 509 775 509 775 528 817 c 128,-1,28
 547 859 547 859 547 922 c 0,29,30
 547 923 547 923 547 927 c 0,31,32
 549 950 549 950 549 969 c 2,33,-1
 549 1092 l 1,0,-1
745 1239 m 1,34,-1
 543 1239 l 1,35,-1
 543 1493 l 1,36,-1
 745 1493 l 1,37,-1
 745 1239 l 1,34,-1
EndSplineSet
Validated: 1
EndChar

StartChar: exclamdown
Encoding: 161 161 163
Width: 1233
Flags: W
LayerCount: 2
Fore
SplineSet
516 1239 m 1,0,-1
 516 1493 l 1,1,-1
 719 1493 l 1,2,-1
 719 1239 l 1,3,-1
 516 1239 l 1,0,-1
516 0 m 1,4,-1
 516 655 l 1,5,-1
 537 1012 l 1,6,-1
 698 1012 l 1,7,-1
 719 655 l 1,8,-1
 719 0 l 1,9,-1
 516 0 l 1,4,-1
EndSplineSet
Validated: 1
EndChar

StartChar: logicalnot
Encoding: 172 172 164
Width: 1478
VWidth: 2220
Flags: W
HStem: 701.52 88.8<161.384 1267.62>
VStem: 1265.4 88.8<233.666 701.52>
LayerCount: 2
Fore
SplineSet
1354.2 717.06 m 2,0,-1
 1354.2 270.84 l 2,1,2
 1354.2 257.254 1354.2 257.254 1353.89 250.008 c 128,-1,3
 1353.58 242.761 1353.58 242.761 1351.31 231.093 c 128,-1,4
 1349.04 219.425 1349.04 219.425 1344.66 213.351 c 128,-1,5
 1340.27 207.277 1340.27 207.277 1331.42 202.428 c 128,-1,6
 1322.57 197.58 1322.57 197.58 1309.8 197.58 c 128,-1,7
 1297.03 197.58 1297.03 197.58 1288.18 202.428 c 128,-1,8
 1279.33 207.277 1279.33 207.277 1274.94 213.351 c 128,-1,9
 1270.56 219.425 1270.56 219.425 1268.29 231.093 c 128,-1,10
 1266.02 242.761 1266.02 242.761 1265.71 250.008 c 128,-1,11
 1265.4 257.254 1265.4 257.254 1265.4 270.84 c 2,12,-1
 1265.4 701.52 l 1,13,-1
 197.58 701.52 l 2,14,15
 181.346 701.52 181.346 701.52 172.258 702.369 c 128,-1,16
 163.17 703.218 163.17 703.218 150.058 706.914 c 128,-1,17
 136.946 710.611 136.946 710.611 130.633 720.406 c 128,-1,18
 124.32 730.202 124.32 730.202 124.32 745.92 c 128,-1,19
 124.32 761.638 124.32 761.638 130.633 771.433 c 128,-1,20
 136.946 781.229 136.946 781.229 150.058 784.926 c 128,-1,21
 163.17 788.622 163.17 788.622 172.258 789.471 c 128,-1,22
 181.346 790.32 181.346 790.32 197.58 790.32 c 2,23,-1
 1280.94 790.32 l 2,24,25
 1329.23 790.32 1329.23 790.32 1341.71 777.833 c 128,-1,26
 1354.2 765.345 1354.2 765.345 1354.2 717.06 c 2,0,-1
EndSplineSet
Validated: 1
EndChar

StartChar: radical
Encoding: 8730 8730 165
Width: 1218
VWidth: 2220
Flags: W
DStem2: 10 449 26 414 0.899301 0.437331 156 520 121 461 0.438495 -0.898734 353 123 363 -35 0.159134 0.987257
LayerCount: 2
Fore
SplineSet
806 -78 m 1,0,-1
 269 1023 l 1,1,-1
 58 919 l 1,2,-1
 22 997 l 1,3,-1
 346 1154 l 1,4,-1
 784 273 l 1,5,-1
 1066 2027 l 1,6,-1
 1143 2016 l 1,7,-1
 806 -78 l 1,0,-1
EndSplineSet
Validated: 1
EndChar

StartChar: florin
Encoding: 402 402 166
Width: 1233
Flags: W
LayerCount: 2
Fore
SplineSet
1063 1556 m 1,0,-1
 1063 1403 l 1,1,-1
 854 1403 l 1,2,-1
 852 1403 l 2,3,4
 755 1403 755 1403 716 1362 c 0,5,6
 678 1322 678 1322 678 1219 c 2,7,-1
 678 1120 l 1,8,-1
 1063 1120 l 1,9,-1
 1063 977 l 1,10,-1
 678 977 l 1,11,-1
 678 -20 l 2,12,13
 678 -234 678 -234 597 -330 c 0,14,15
 515 -426 515 -426 334 -426 c 2,16,-1
 264 -426 l 1,17,-1
 264 -270 l 1,18,-1
 313 -270 l 2,19,20
 418 -270 418 -270 456 -222 c 0,21,22
 494 -173 494 -173 494 -20 c 2,23,-1
 492 977 l 1,24,-1
 195 977 l 1,25,-1
 195 1120 l 1,26,-1
 491 1120 l 1,27,-1
 491 1198 l 2,28,29
 491 1378 491 1378 578 1470 c 0,30,31
 615 1509 615 1509 675 1530 c 1,32,33
 745 1556 745 1556 842 1556 c 2,34,-1
 851 1556 l 1,35,-1
 854 1556 l 1,36,-1
 1063 1556 l 1,0,-1
EndSplineSet
EndChar

StartChar: approxequal
Encoding: 8776 8776 167
Width: 1724
VWidth: 2220
Flags: W
HStem: 124 124<1190 1263> 431 124<493 517> 642 124<1190 1263> 948 124<493 517>
VStem: 124 62<173 193 690 710>
LayerCount: 2
Fore
SplineSet
1601 1003 m 0,0,1
 1601 902 1601 902 1551.5 819 c 128,-1,2
 1502 736 1502 736 1417.5 689 c 128,-1,3
 1333 642 1333 642 1232 642 c 0,4,5
 1182 642 1182 642 1133 653.5 c 128,-1,6
 1084 665 1084 665 1034 690 c 128,-1,7
 984 715 984 715 955.5 732 c 128,-1,8
 927 749 927 749 877 781 c 0,9,10
 818 820 818 820 790 838 c 128,-1,11
 762 856 762 856 716.5 882 c 128,-1,12
 671 908 671 908 640.5 919 c 128,-1,13
 610 930 610 930 571 939 c 128,-1,14
 532 948 532 948 493 948 c 0,15,16
 458 948 458 948 419.5 940 c 128,-1,17
 381 932 381 932 340.5 912.5 c 128,-1,18
 300 893 300 893 267 865 c 128,-1,19
 234 837 234 837 212 792.5 c 128,-1,20
 190 748 190 748 186 695 c 0,21,22
 186 681 186 681 178.5 662.5 c 128,-1,23
 171 644 171 644 155 644 c 0,24,25
 142 644 142 644 133 660 c 128,-1,26
 124 676 124 676 124 710 c 0,27,28
 124 811 124 811 173.5 894.5 c 128,-1,29
 223 978 223 978 307.5 1025 c 128,-1,30
 392 1072 392 1072 493 1072 c 0,31,32
 543 1072 543 1072 592 1060.5 c 128,-1,33
 641 1049 641 1049 691 1024 c 128,-1,34
 741 999 741 999 769.5 982 c 128,-1,35
 798 965 798 965 848 932 c 0,36,37
 907 893 907 893 934.5 875.5 c 128,-1,38
 962 858 962 858 1008 832 c 128,-1,39
 1054 806 1054 806 1084.5 795 c 128,-1,40
 1115 784 1115 784 1154 775 c 128,-1,41
 1193 766 1193 766 1232 766 c 0,42,43
 1304 766 1304 766 1372 795 c 128,-1,44
 1440 824 1440 824 1487 881 c 128,-1,45
 1534 938 1534 938 1538 1010 c 0,46,47
 1544 1070 1544 1070 1570 1070 c 0,48,49
 1583 1070 1583 1070 1592 1053 c 128,-1,50
 1601 1036 1601 1036 1601 1003 c 0,0,1
1601 484 m 0,51,52
 1601 386 1601 386 1552.5 303.5 c 128,-1,53
 1504 221 1504 221 1419 172.5 c 128,-1,54
 1334 124 1334 124 1232 124 c 0,55,56
 1182 124 1182 124 1133 135.5 c 128,-1,57
 1084 147 1084 147 1034 172.5 c 128,-1,58
 984 198 984 198 955.5 214.5 c 128,-1,59
 927 231 927 231 877 264 c 0,60,61
 818 303 818 303 790 321 c 128,-1,62
 762 339 762 339 716.5 365 c 128,-1,63
 671 391 671 391 640.5 402 c 128,-1,64
 610 413 610 413 571 422 c 128,-1,65
 532 431 532 431 493 431 c 0,66,67
 458 431 458 431 419.5 422.5 c 128,-1,68
 381 414 381 414 340.5 395 c 128,-1,69
 300 376 300 376 267 347.5 c 128,-1,70
 234 319 234 319 212 275 c 128,-1,71
 190 231 190 231 186 178 c 0,72,73
 186 164 186 164 178.5 145.5 c 128,-1,74
 171 127 171 127 155 127 c 0,75,76
 142 127 142 127 133 143 c 128,-1,77
 124 159 124 159 124 193 c 0,78,79
 124 294 124 294 173.5 377.5 c 128,-1,80
 223 461 223 461 307.5 508 c 128,-1,81
 392 555 392 555 493 555 c 0,82,83
 543 555 543 555 592 543.5 c 128,-1,84
 641 532 641 532 691 507 c 128,-1,85
 741 482 741 482 769.5 465 c 128,-1,86
 798 448 798 448 848 415 c 0,87,88
 907 376 907 376 934.5 358.5 c 128,-1,89
 962 341 962 341 1008 314.5 c 128,-1,90
 1054 288 1054 288 1084.5 277 c 128,-1,91
 1115 266 1115 266 1154 257.5 c 128,-1,92
 1193 249 1193 249 1232 249 c 0,93,94
 1350 249 1350 249 1440 317.5 c 128,-1,95
 1530 386 1530 386 1538 482 c 0,96,97
 1539 503 1539 503 1541.5 516 c 128,-1,98
 1544 529 1544 529 1551 541 c 128,-1,99
 1558 553 1558 553 1570 553 c 0,100,101
 1583 553 1583 553 1592 535 c 128,-1,102
 1601 517 1601 517 1601 484 c 0,51,52
EndSplineSet
Validated: 1025
EndChar

StartChar: uni2206
Encoding: 8710 8710 168
Width: 1849
VWidth: 2220
Flags: W
HStem: 0 169<253 1450> 1545 44<905 942>
VStem: 104 1638<9 19>
LayerCount: 2
Fore
SplineSet
981 1550 m 2,0,-1
 1732 44 l 2,1,2
 1743 24 1743 24 1743 18 c 0,3,4
 1743 6 1743 6 1733.5 3 c 128,-1,5
 1724 0 1724 0 1694 0 c 2,6,-1
 153 0 l 2,7,8
 132 0 132 0 124 0.5 c 128,-1,9
 116 1 116 1 110 5 c 128,-1,10
 104 9 104 9 104 18 c 0,11,12
 104 25 104 25 115 44 c 2,13,-1
 866 1550 l 2,14,15
 876 1568 876 1568 880 1574 c 128,-1,16
 884 1580 884 1580 894.5 1585 c 128,-1,17
 905 1590 905 1590 923.5 1590 c 128,-1,18
 942 1590 942 1590 952.5 1585 c 128,-1,19
 963 1580 963 1580 967 1574 c 128,-1,20
 971 1568 971 1568 981 1550 c 2,0,-1
852 1368 m 1,21,-1
 253 169 l 1,22,-1
 1450 169 l 1,23,-1
 852 1368 l 1,21,-1
EndSplineSet
Validated: 1
EndChar

StartChar: guillemotleft
Encoding: 171 171 169
Width: 1233
Flags: W
LayerCount: 2
Fore
SplineSet
588 1059 m 1,0,-1
 588 868 l 1,1,-1
 287 600 l 1,2,-1
 588 332 l 1,3,-1
 588 141 l 1,4,-1
 119 559 l 1,5,-1
 119 641 l 1,6,-1
 588 1059 l 1,0,-1
1042 1059 m 1,7,-1
 1042 868 l 1,8,-1
 741 600 l 1,9,-1
 1042 332 l 1,10,-1
 1042 141 l 1,11,-1
 573 559 l 1,12,-1
 573 641 l 1,13,-1
 1042 1059 l 1,7,-1
EndSplineSet
Validated: 1
EndChar

StartChar: guillemotright
Encoding: 187 187 170
Width: 1233
Flags: W
LayerCount: 2
Fore
SplineSet
647 1059 m 1,0,-1
 1116 641 l 1,1,-1
 1116 559 l 1,2,-1
 647 141 l 1,3,-1
 647 332 l 1,4,-1
 948 600 l 1,5,-1
 647 868 l 1,6,-1
 647 1059 l 1,0,-1
193 1059 m 1,7,-1
 662 641 l 1,8,-1
 662 559 l 1,9,-1
 193 141 l 1,10,-1
 193 332 l 1,11,-1
 494 600 l 1,12,-1
 193 868 l 1,13,-1
 193 1059 l 1,7,-1
EndSplineSet
Validated: 1
EndChar

StartChar: ellipsis
Encoding: 8230 8230 171
Width: 2220
VWidth: 2220
Flags: W
HStem: -29 47G<336 405 1076 1144 1815 1884>
VStem: 246 249<98 115> 986 249<98 115> 1725 249<98 115>
LayerCount: 2
Fore
SplineSet
373 222 m 0,0,1
 421 222 421 222 458 184.5 c 128,-1,2
 495 147 495 147 495 98 c 0,3,4
 495 46 495 46 458.5 8.5 c 128,-1,5
 422 -29 422 -29 370.5 -29 c 128,-1,6
 319 -29 319 -29 282.5 8.5 c 128,-1,7
 246 46 246 46 246 98 c 0,8,9
 246 149 246 149 283.5 185.5 c 128,-1,10
 321 222 321 222 373 222 c 0,0,1
1112 222 m 0,11,12
 1160 222 1160 222 1197 184.5 c 128,-1,13
 1234 147 1234 147 1234 98 c 0,14,15
 1234 46 1234 46 1197.5 8.5 c 128,-1,16
 1161 -29 1161 -29 1110 -29 c 128,-1,17
 1059 -29 1059 -29 1022.5 8.5 c 128,-1,18
 986 46 986 46 986 98 c 0,19,20
 986 149 986 149 1023 185.5 c 128,-1,21
 1060 222 1060 222 1112 222 c 0,11,12
1851 222 m 0,22,23
 1899 222 1899 222 1936.5 184.5 c 128,-1,24
 1974 147 1974 147 1974 98 c 0,25,26
 1974 46 1974 46 1937.5 8.5 c 128,-1,27
 1901 -29 1901 -29 1849.5 -29 c 128,-1,28
 1798 -29 1798 -29 1761.5 8.5 c 128,-1,29
 1725 46 1725 46 1725 98 c 0,30,31
 1725 149 1725 149 1762 185.5 c 128,-1,32
 1799 222 1799 222 1851 222 c 0,22,23
EndSplineSet
Validated: 1
EndChar

StartChar: OE
Encoding: 338 338 176
Width: 1233
Flags: W
LayerCount: 2
Fore
SplineSet
1217 170 m 1,0,-1
 1217 0 l 1,1,-1
 612 0 l 2,2,3
 317 0 317 0 194.5 166.5 c 128,-1,4
 72 333 72 333 72 745 c 0,5,6
 72 1162 72 1162 194 1327.5 c 128,-1,7
 316 1493 316 1493 612 1493 c 2,8,-1
 1206 1493 l 1,9,-1
 1206 1323 l 1,10,-1
 848 1323 l 1,11,-1
 848 881 l 1,12,-1
 1176 881 l 1,13,-1
 1176 711 l 1,14,-1
 848 711 l 1,15,-1
 848 170 l 1,16,-1
 1217 170 l 1,0,-1
590 1323 m 2,17,18
 413 1323 413 1323 343.5 1208 c 128,-1,19
 274 1093 274 1093 274 745 c 0,20,21
 274 399 274 399 343.5 284.5 c 128,-1,22
 413 170 413 170 590 170 c 2,23,-1
 651 170 l 1,24,-1
 651 1323 l 1,25,-1
 590 1323 l 2,17,18
EndSplineSet
EndChar

StartChar: oe
Encoding: 339 339 177
Width: 1233
Flags: W
LayerCount: 2
Fore
SplineSet
1047 657 m 1,0,1
 1047 668 1047 668 1048 687 c 128,-1,2
 1049 706 1049 706 1049 715 c 0,3,4
 1049 860 1049 860 1009 927.5 c 128,-1,5
 969 995 969 995 883 995 c 0,6,7
 796 995 796 995 757.5 926.5 c 128,-1,8
 719 858 719 858 719 700 c 2,9,-1
 719 657 l 1,10,-1
 1047 657 l 1,0,1
373 123 m 0,11,12
 475 123 475 123 516 207 c 128,-1,13
 557 291 557 291 557 530 c 0,14,15
 557 821 557 821 517 908 c 128,-1,16
 477 995 477 995 373 995 c 0,17,18
 270 995 270 995 230 911.5 c 128,-1,19
 190 828 190 828 190 559 c 256,20,21
 190 290 190 290 230 206.5 c 128,-1,22
 270 123 270 123 373 123 c 0,11,12
1210 514 m 1,23,-1
 719 514 l 1,24,-1
 719 430 l 2,25,26
 719 267 719 267 768.5 195 c 128,-1,27
 818 123 818 123 930 123 c 0,28,29
 1010 123 1010 123 1075.5 149.5 c 128,-1,30
 1141 176 1141 176 1188 227 c 1,31,-1
 1188 55 l 1,32,33
 1129 12 1129 12 1066.5 -8.5 c 128,-1,34
 1004 -29 1004 -29 930 -29 c 0,35,36
 832 -29 832 -29 758.5 4.5 c 128,-1,37
 685 38 685 38 637 104 c 1,38,39
 585 36 585 36 521 3.5 c 128,-1,40
 457 -29 457 -29 373 -29 c 0,41,42
 184 -29 184 -29 99 109 c 128,-1,43
 14 247 14 247 14 559 c 256,44,45
 14 871 14 871 99 1009 c 128,-1,46
 184 1147 184 1147 373 1147 c 0,47,48
 462 1147 462 1147 526 1116 c 128,-1,49
 590 1085 590 1085 637 1020 c 1,50,51
 674 1082 674 1082 739 1114.5 c 128,-1,52
 804 1147 804 1147 891 1147 c 0,53,54
 1066 1147 1066 1147 1138 1028.5 c 128,-1,55
 1210 910 1210 910 1210 604 c 2,56,-1
 1210 514 l 1,23,-1
EndSplineSet
EndChar

StartChar: endash
Encoding: 8211 8211 178
Width: 1024
Flags: W
LayerCount: 2
Fore
SplineSet
100 633 m 1,0,-1
 924 633 l 1,1,-1
 924 489 l 1,2,-1
 100 489 l 1,3,-1
 100 633 l 1,0,-1
EndSplineSet
EndChar

StartChar: emdash
Encoding: 8212 8212 179
Width: 2048
Flags: W
LayerCount: 2
Fore
SplineSet
100 633 m 1,0,-1
 1948 633 l 1,1,-1
 1948 489 l 1,2,-1
 100 489 l 1,3,-1
 100 633 l 1,0,-1
EndSplineSet
EndChar

StartChar: quotedblleft
Encoding: 8220 8220 180
Width: 1233
Flags: W
LayerCount: 2
Fore
SplineSet
924 967 m 1,0,-1
 672 967 l 1,1,-1
 672 1174 l 1,2,-1
 868 1556 l 1,3,-1
 1022 1556 l 1,4,-1
 924 1174 l 1,5,-1
 924 967 l 1,0,-1
465 967 m 1,6,-1
 211 967 l 1,7,-1
 211 1174 l 1,8,-1
 410 1556 l 1,9,-1
 563 1556 l 1,10,-1
 465 1174 l 1,11,-1
 465 967 l 1,6,-1
EndSplineSet
Validated: 1
EndChar

StartChar: quotedblright
Encoding: 8221 8221 181
Width: 1233
Flags: W
LayerCount: 2
Fore
SplineSet
768 1556 m 1,0,-1
 1020 1556 l 1,1,-1
 1020 1350 l 1,2,-1
 823 967 l 1,3,-1
 670 967 l 1,4,-1
 768 1350 l 1,5,-1
 768 1556 l 1,0,-1
309 1556 m 1,6,-1
 561 1556 l 1,7,-1
 561 1350 l 1,8,-1
 365 967 l 1,9,-1
 211 967 l 1,10,-1
 309 1350 l 1,11,-1
 309 1556 l 1,6,-1
EndSplineSet
Validated: 1
EndChar

StartChar: quoteleft
Encoding: 8216 8216 182
Width: 1233
Flags: W
LayerCount: 2
Fore
SplineSet
715 967 m 1,0,-1
 463 967 l 1,1,-1
 463 1174 l 1,2,-1
 659 1556 l 1,3,-1
 813 1556 l 1,4,-1
 715 1174 l 1,5,-1
 715 967 l 1,0,-1
EndSplineSet
Validated: 1
EndChar

StartChar: quoteright
Encoding: 8217 8217 183
Width: 1233
Flags: W
LayerCount: 2
Fore
SplineSet
561 1556 m 1,0,-1
 813 1556 l 1,1,-1
 813 1350 l 1,2,-1
 616 967 l 1,3,-1
 463 967 l 1,4,-1
 561 1350 l 1,5,-1
 561 1556 l 1,0,-1
EndSplineSet
Validated: 1
EndChar

StartChar: divide
Encoding: 247 247 184
Width: 1724
VWidth: 2220
Flags: W
HStem: -67 284<839.304 870.24> 511 89<161.384 1547.34> 892 284<839.304 870.24>
VStem: 722 284<51.0074 82.14 1010.05 1041.18>
LayerCount: 2
Fore
SplineSet
1006 1035 m 0,0,1
 1006 976 1006 976 963.5 934 c 128,-1,2
 921 892 921 892 864 892 c 0,3,4
 807 892 807 892 764.5 934.5 c 128,-1,5
 722 977 722 977 722 1035 c 0,6,7
 722 1094 722 1094 764 1135.5 c 128,-1,8
 806 1177 806 1177 864 1176 c 0,9,10
 921 1176 921 1176 963.5 1134.5 c 128,-1,11
 1006 1093 1006 1093 1006 1035 c 0,0,1
1006 75 m 0,12,13
 1006 16 1006 16 963.5 -25.5 c 128,-1,14
 921 -67 921 -67 864 -67 c 0,15,16
 807 -67 807 -67 764.5 -24.5 c 128,-1,17
 722 18 722 18 722 75 c 0,18,19
 722 134 722 134 764 176 c 128,-1,20
 806 218 806 218 864 217 c 0,21,22
 921 217 921 217 963.5 175 c 128,-1,23
 1006 133 1006 133 1006 75 c 0,12,13
198 600 m 2,24,-1
 1530 600 l 2,25,26
 1546 600 1546 600 1555 599 c 128,-1,27
 1564 598 1564 598 1577 594 c 128,-1,28
 1590 590 1590 590 1596.5 580.5 c 128,-1,29
 1603 571 1603 571 1603 555 c 128,-1,30
 1603 539 1603 539 1596.5 529.5 c 128,-1,31
 1590 520 1590 520 1577 516 c 128,-1,32
 1564 512 1564 512 1555 511.5 c 128,-1,33
 1546 511 1546 511 1530 511 c 2,34,-1
 198 511 l 2,35,36
 182 511 182 511 172.5 511.5 c 128,-1,37
 163 512 163 512 150 516 c 128,-1,38
 137 520 137 520 130.5 529.5 c 128,-1,39
 124 539 124 539 124 555 c 128,-1,40
 124 571 124 571 130.5 580.5 c 128,-1,41
 137 590 137 590 150 594 c 128,-1,42
 163 598 163 598 172.5 599 c 128,-1,43
 182 600 182 600 198 600 c 2,24,-1
EndSplineSet
Validated: 33
EndChar

StartChar: lozenge
Encoding: 9674 9674 185
Width: 1478
VWidth: 2220
Flags: W
HStem: -295 129<735 744>
DStem2: 100 291 63 274 0.536595 -0.84384 65 311 100 291 0.535466 0.844557 355 699 333 659 0.536595 -0.84384 334 -75 355 -116 0.535466 0.844557
LayerCount: 2
Fore
SplineSet
1334 604 m 2,0,-1
 788 -258 l 2,1,2
 779 -272 779 -272 774.5 -277.5 c 128,-1,3
 770 -283 770 -283 760.5 -289 c 128,-1,4
 751 -295 751 -295 739.5 -295 c 128,-1,5
 728 -295 728 -295 718.5 -289 c 128,-1,6
 709 -283 709 -283 704.5 -277 c 128,-1,7
 700 -271 700 -271 690 -258 c 2,8,-1
 140 608 l 1,9,10
 140 609 140 609 136 615.5 c 128,-1,11
 132 622 132 622 128 631 c 128,-1,12
 124 640 124 640 124 646 c 0,13,14
 124 655 124 655 127 662.5 c 128,-1,15
 130 670 130 670 144 690 c 2,16,-1
 690 1552 l 2,17,18
 699 1566 699 1566 704 1571.5 c 128,-1,19
 709 1577 709 1577 718.5 1583.5 c 128,-1,20
 728 1590 728 1590 739.5 1590 c 128,-1,21
 751 1590 751 1590 760.5 1583.5 c 128,-1,22
 770 1577 770 1577 774.5 1571 c 128,-1,23
 779 1565 779 1565 788 1552 c 2,24,-1
 1339 686 l 1,25,26
 1339 685 1339 685 1342.5 678.5 c 128,-1,27
 1346 672 1346 672 1350 663 c 128,-1,28
 1354 654 1354 654 1354 648 c 0,29,30
 1354 639 1354 639 1351 631.5 c 128,-1,31
 1348 624 1348 624 1334 604 c 2,0,-1
222 646 m 1,32,-1
 737 -166 l 1,33,-1
 741 -166 l 1,34,-1
 1257 648 l 1,35,-1
 739 1463 l 1,36,-1
 222 646 l 1,32,-1
EndSplineSet
Validated: 1
EndChar

StartChar: Ydieresis
Encoding: 376 376 187
Width: 1233
Flags: W
LayerCount: 2
Fore
SplineSet
319 1870 m 5,0,-1
 522 1870 l 5,1,-1
 522 1667 l 5,2,-1
 319 1667 l 5,3,-1
 319 1870 l 5,0,-1
711 1870 m 5,4,-1
 913 1870 l 5,5,-1
 913 1667 l 5,6,-1
 711 1667 l 5,7,-1
 711 1870 l 5,4,-1
EndSplineSet
Refer: 60 89 N 1 0 0 1 0 0 2
EndChar

StartChar: uni2215
Encoding: 8725 8725 188
Width: 1110
VWidth: 2220
Flags: W
DStem2: 61 -212 97 -230 0.34038 0.940288
LayerCount: 2
Fore
SplineSet
972 1581 m 2,0,-1
 215 -511 l 2,1,2
 211 -525 211 -525 207 -533 c 128,-1,3
 203 -541 203 -541 193 -548 c 128,-1,4
 183 -555 183 -555 169 -555 c 0,5,6
 151 -555 151 -555 137.5 -542 c 128,-1,7
 124 -529 124 -529 124 -511 c 0,8,9
 124 -500 124 -500 135 -471 c 2,10,-1
 892 1621 l 2,11,12
 896 1635 896 1635 900.5 1643 c 128,-1,13
 905 1651 905 1651 915 1658 c 128,-1,14
 925 1665 925 1665 939 1665 c 0,15,16
 957 1665 957 1665 970 1652 c 128,-1,17
 983 1639 983 1639 983 1621 c 0,18,19
 983 1610 983 1610 972 1581 c 2,0,-1
EndSplineSet
Validated: 1
EndChar

StartChar: currency
Encoding: 164 164 189
Width: 1233
Flags: W
LayerCount: 2
Fore
SplineSet
868 643 m 0,0,1
 868 733 868 733 806 794.5 c 128,-1,2
 744 856 744 856 653 856 c 0,3,4
 563 856 563 856 500.5 794.5 c 128,-1,5
 438 733 438 733 438 643 c 0,6,7
 438 551 438 551 500.5 488.5 c 128,-1,8
 563 426 563 426 653 426 c 0,9,10
 744 426 744 426 806 489 c 128,-1,11
 868 552 868 552 868 643 c 0,0,1
844 924 m 1,12,-1
 1010 1090 l 1,13,-1
 1100 997 l 1,14,-1
 934 831 l 1,15,16
 964 782 964 782 978.5 735.5 c 128,-1,17
 993 689 993 689 993 641 c 0,18,19
 993 591 993 591 978 545.5 c 128,-1,20
 963 500 963 500 932 455 c 1,21,-1
 1100 289 l 1,22,-1
 1006 195 l 1,23,-1
 840 362 l 1,24,25
 794 331 794 331 748.5 316 c 128,-1,26
 703 301 703 301 653 301 c 0,27,28
 605 301 605 301 557 315.5 c 128,-1,29
 509 330 509 330 461 358 c 1,30,-1
 297 195 l 1,31,-1
 205 285 l 1,32,-1
 371 451 l 1,33,34
 340 502 340 502 325.5 548.5 c 128,-1,35
 311 595 311 595 311 641 c 0,36,37
 311 691 311 691 326.5 737.5 c 128,-1,38
 342 784 342 784 373 829 c 1,39,-1
 205 995 l 1,40,-1
 299 1090 l 1,41,-1
 465 922 l 1,42,43
 511 953 511 953 556.5 968 c 128,-1,44
 602 983 602 983 653 983 c 0,45,46
 699 983 699 983 746 968.5 c 128,-1,47
 793 954 793 954 844 924 c 1,12,-1
EndSplineSet
Validated: 1
EndChar

StartChar: guilsinglleft
Encoding: 8249 8249 190
Width: 1233
Flags: W
LayerCount: 2
Fore
SplineSet
815 1059 m 1,0,-1
 815 868 l 1,1,-1
 514 600 l 1,2,-1
 815 332 l 1,3,-1
 815 141 l 1,4,-1
 346 559 l 1,5,-1
 346 641 l 1,6,-1
 815 1059 l 1,0,-1
EndSplineSet
EndChar

StartChar: guilsinglright
Encoding: 8250 8250 191
Width: 1233
Flags: W
LayerCount: 2
Fore
SplineSet
420 1059 m 1,0,-1
 889 641 l 1,1,-1
 889 559 l 1,2,-1
 420 141 l 1,3,-1
 420 332 l 1,4,-1
 721 600 l 1,5,-1
 420 868 l 1,6,-1
 420 1059 l 1,0,-1
EndSplineSet
EndChar

StartChar: uniFB01
Encoding: 64257 64257 192
Width: 1233
Flags: W
LayerCount: 2
Fore
SplineSet
895 1554 m 1,0,-1
 1079 1554 l 1,1,-1
 1079 1321 l 1,2,-1
 895 1321 l 1,3,-1
 895 1554 l 1,0,-1
776 1556 m 1,4,-1
 776 1403 l 1,5,-1
 596 1403 l 2,6,7
 497 1403 497 1403 458.5 1362.5 c 128,-1,8
 420 1322 420 1322 420 1219 c 2,9,-1
 420 1118 l 1,10,-1
 1079 1118 l 1,11,-1
 1079 0 l 1,12,-1
 895 0 l 1,13,-1
 895 977 l 1,14,-1
 420 977 l 1,15,-1
 420 0 l 1,16,-1
 236 0 l 1,17,-1
 236 977 l 1,18,-1
 35 977 l 1,19,-1
 35 1120 l 1,20,-1
 236 1120 l 1,21,-1
 236 1198 l 2,22,23
 236 1382 236 1382 320.5 1469 c 128,-1,24
 405 1556 405 1556 584 1556 c 2,25,-1
 776 1556 l 1,4,-1
EndSplineSet
Validated: 1
EndChar

StartChar: uniFB02
Encoding: 64258 64258 193
Width: 1233
Flags: W
LayerCount: 2
Fore
SplineSet
1079 1556 m 1,0,-1
 1079 0 l 1,1,-1
 895 0 l 1,2,-1
 895 1403 l 1,3,-1
 596 1403 l 2,4,5
 497 1403 497 1403 458.5 1362.5 c 128,-1,6
 420 1322 420 1322 420 1219 c 2,7,-1
 420 1118 l 1,8,-1
 713 1118 l 1,9,-1
 713 977 l 1,10,-1
 420 977 l 1,11,-1
 420 0 l 1,12,-1
 236 0 l 1,13,-1
 236 977 l 1,14,-1
 35 977 l 1,15,-1
 35 1120 l 1,16,-1
 236 1120 l 1,17,-1
 236 1198 l 2,18,19
 236 1382 236 1382 320.5 1469 c 128,-1,20
 405 1556 405 1556 584 1556 c 2,21,-1
 1079 1556 l 1,0,-1
EndSplineSet
Validated: 1
EndChar

StartChar: daggerdbl
Encoding: 8225 8225 194
Width: 1134
VWidth: 2220
Flags: W
HStem: -71 246<177 418 718 957> 935 244<176 420 714 958> 1538 20G<544 578>
VStem: 444 246<-415 -138 242 520 588 870 1244 1525>
LayerCount: 2
Fore
SplineSet
602 1021 m 1,0,1
 607 986 607 986 612.5 965 c 128,-1,2
 618 944 618 944 637 892 c 0,3,4
 655 845 655 845 662.5 823.5 c 128,-1,5
 670 802 670 802 680 758.5 c 128,-1,6
 690 715 690 715 690 684 c 0,7,8
 690 620 690 620 653 587.5 c 128,-1,9
 616 555 616 555 566 555 c 0,10,11
 547 555 547 555 527 561.5 c 128,-1,12
 507 568 507 568 487.5 582 c 128,-1,13
 468 596 468 596 456 622.5 c 128,-1,14
 444 649 444 649 444 684 c 0,15,16
 444 757 444 757 495 890 c 0,17,18
 509 925 509 925 516.5 949 c 128,-1,19
 524 973 524 973 526 984 c 128,-1,20
 528 995 528 995 533 1021 c 1,21,22
 484 1009 484 1009 442 988 c 0,23,24
 392 963 392 963 354.5 950.5 c 128,-1,25
 317 938 317 938 303 936.5 c 128,-1,26
 289 935 289 935 269 935 c 0,27,28
 237 935 237 935 212.5 945 c 128,-1,29
 188 955 188 955 175 969 c 128,-1,30
 162 983 162 983 154 1001.5 c 128,-1,31
 146 1020 146 1020 144 1033 c 128,-1,32
 142 1046 142 1046 142 1057 c 0,33,34
 142 1107 142 1107 175 1143 c 128,-1,35
 208 1179 208 1179 266 1179 c 0,36,37
 333 1179 333 1179 444 1123 c 0,38,39
 480 1106 480 1106 533 1092 c 1,40,41
 528 1127 528 1127 522 1148 c 128,-1,42
 516 1169 516 1169 497 1221 c 0,43,44
 479 1268 479 1268 472 1290 c 128,-1,45
 465 1312 465 1312 454.5 1355 c 128,-1,46
 444 1398 444 1398 444 1430 c 0,47,48
 444 1494 444 1494 481.5 1526 c 128,-1,49
 519 1558 519 1558 568 1558 c 0,50,51
 587 1558 587 1558 607 1551.5 c 128,-1,52
 627 1545 627 1545 646.5 1531 c 128,-1,53
 666 1517 666 1517 678 1490.5 c 128,-1,54
 690 1464 690 1464 690 1430 c 0,55,56
 690 1357 690 1357 639 1223 c 0,57,58
 625 1188 625 1188 617.5 1164 c 128,-1,59
 610 1140 610 1140 608 1129 c 128,-1,60
 606 1118 606 1118 602 1092 c 1,61,62
 631 1099 631 1099 651.5 1107 c 128,-1,63
 672 1115 672 1115 724 1139 c 0,64,65
 804 1179 804 1179 868 1179 c 0,66,67
 926 1179 926 1179 959 1143 c 128,-1,68
 992 1107 992 1107 992 1057 c 0,69,70
 992 1046 992 1046 990 1033 c 128,-1,71
 988 1020 988 1020 980 1001.5 c 128,-1,72
 972 983 972 983 959.5 969 c 128,-1,73
 947 955 947 955 922.5 945 c 128,-1,74
 898 935 898 935 866 935 c 0,75,76
 831 935 831 935 794 946 c 128,-1,77
 757 957 757 957 690 990 c 0,78,79
 655 1007 655 1007 602 1021 c 1,0,1
602 18 m 1,80,81
 606 -8 606 -8 608.5 -20.5 c 128,-1,82
 611 -33 611 -33 618.5 -57.5 c 128,-1,83
 626 -82 626 -82 642 -122 c 0,84,85
 658 -165 658 -165 666 -191 c 128,-1,86
 674 -217 674 -217 682 -254 c 128,-1,87
 690 -291 690 -291 690 -320 c 0,88,89
 690 -384 690 -384 653 -416 c 128,-1,90
 616 -448 616 -448 566 -448 c 0,91,92
 547 -448 547 -448 527 -441.5 c 128,-1,93
 507 -435 507 -435 487.5 -421 c 128,-1,94
 468 -407 468 -407 456 -380.5 c 128,-1,95
 444 -354 444 -354 444 -320 c 0,96,97
 444 -252 444 -252 488 -138 c 0,98,99
 513 -69 513 -69 520 -43.5 c 128,-1,100
 527 -18 527 -18 533 18 c 1,101,102
 495 8 495 8 413 -29 c 0,103,104
 329 -71 329 -71 269 -71 c 0,105,106
 210 -71 210 -71 176 -34.5 c 128,-1,107
 142 2 142 2 142 53 c 0,108,109
 142 101 142 101 174 138 c 128,-1,110
 206 175 206 175 269 175 c 0,111,112
 296 175 296 175 330 165.5 c 128,-1,113
 364 156 364 156 385.5 147 c 128,-1,114
 407 138 407 138 446 120 c 0,115,116
 490 97 490 97 533 87 c 1,117,118
 529 113 529 113 526.5 125 c 128,-1,119
 524 137 524 137 516 161.5 c 128,-1,120
 508 186 508 186 493 226 c 0,121,122
 477 269 477 269 468.5 295 c 128,-1,123
 460 321 460 321 452 358 c 128,-1,124
 444 395 444 395 444 424 c 0,125,126
 444 488 444 488 481.5 520.5 c 128,-1,127
 519 553 519 553 568 553 c 0,128,129
 587 553 587 553 607 546 c 128,-1,130
 627 539 627 539 646.5 525 c 128,-1,131
 666 511 666 511 678 485 c 128,-1,132
 690 459 690 459 690 424 c 0,133,134
 690 356 690 356 646 242 c 0,135,136
 621 173 621 173 614 148 c 128,-1,137
 607 123 607 123 602 87 c 1,138,139
 654 101 654 101 722 133 c 0,140,141
 806 175 806 175 866 175 c 0,142,143
 925 175 925 175 958.5 138.5 c 128,-1,144
 992 102 992 102 992 51 c 0,145,146
 992 3 992 3 960.5 -34 c 128,-1,147
 929 -71 929 -71 866 -71 c 0,148,149
 806 -71 806 -71 726 -31 c 0,150,151
 635 9 635 9 602 18 c 1,80,81
EndSplineSet
Validated: 1025
EndChar

StartChar: periodcentered
Encoding: 183 183 195
Width: 614
VWidth: 2220
Flags: W
HStem: 437 235<214.472 402.688>
VStem: 191 235<460.892 649.108>
LayerCount: 2
Fore
SplineSet
426 555 m 128,-1,1
 426 507 426 507 391.5 472 c 128,-1,2
 357 437 357 437 308.5 437 c 128,-1,3
 260 437 260 437 225.5 472 c 128,-1,4
 191 507 191 507 191 555 c 128,-1,5
 191 603 191 603 225.5 638 c 128,-1,6
 260 673 260 673 308.5 672.5 c 128,-1,7
 357 672 357 672 391.5 637.5 c 128,-1,0
 426 603 426 603 426 555 c 128,-1,1
EndSplineSet
Validated: 33
EndChar

StartChar: quotesinglbase
Encoding: 8218 8218 196
Width: 1233
Flags: W
LayerCount: 2
Fore
SplineSet
502 303 m 1,0,-1
 754 303 l 1,1,-1
 754 96 l 1,2,-1
 557 -287 l 1,3,-1
 403 -287 l 1,4,-1
 502 96 l 1,5,-1
 502 303 l 1,0,-1
EndSplineSet
Validated: 1
EndChar

StartChar: quotedblbase
Encoding: 8222 8222 197
Width: 1233
Flags: W
LayerCount: 2
Fore
SplineSet
768 303 m 1,0,-1
 1020 303 l 1,1,-1
 1020 96 l 1,2,-1
 823 -287 l 1,3,-1
 670 -287 l 1,4,-1
 768 96 l 1,5,-1
 768 303 l 1,0,-1
309 303 m 1,6,-1
 561 303 l 1,7,-1
 561 96 l 1,8,-1
 365 -287 l 1,9,-1
 211 -287 l 1,10,-1
 309 96 l 1,11,-1
 309 303 l 1,6,-1
EndSplineSet
Validated: 1
EndChar

StartChar: perthousand
Encoding: 8240 8240 198
Width: 2632
VWidth: 2220
Flags: W
HStem: -124 49<1441 1463 2193 2233> 722 49<1441 1463 2193 2233> 770 49<453 468> 1374 49<986 1061> 1616 49<453 468>
DStem2: 154 -16 184 -41 0.557749 0.83001
LayerCount: 2
Fore
SplineSet
2210 -75 m 0,0,1
 2301 -75 2301 -75 2371 38 c 128,-1,2
 2441 151 2441 151 2441 324 c 0,3,4
 2441 409 2441 409 2421.5 484 c 128,-1,5
 2402 559 2402 559 2369.5 610.5 c 128,-1,6
 2337 662 2337 662 2295.5 692 c 128,-1,7
 2254 722 2254 722 2210 722 c 0,8,9
 2197 722 2197 722 2184.5 719.5 c 128,-1,10
 2172 717 2172 717 2152 707 c 128,-1,11
 2132 697 2132 697 2115 681 c 128,-1,12
 2098 665 2098 665 2080 634.5 c 128,-1,13
 2062 604 2062 604 2049 563.5 c 128,-1,14
 2036 523 2036 523 2027.5 460.5 c 128,-1,15
 2019 398 2019 398 2019 322 c 128,-1,16
 2019 246 2019 246 2027.5 184 c 128,-1,17
 2036 122 2036 122 2049 81.5 c 128,-1,18
 2062 41 2062 41 2080.5 11 c 128,-1,19
 2099 -19 2099 -19 2116 -35 c 128,-1,20
 2133 -51 2133 -51 2153 -61 c 128,-1,21
 2173 -71 2173 -71 2185.5 -73 c 128,-1,22
 2198 -75 2198 -75 2210 -75 c 0,0,1
2496 322 m 0,23,24
 2496 199 2496 199 2458 96.5 c 128,-1,25
 2420 -6 2420 -6 2353.5 -65 c 128,-1,26
 2287 -124 2287 -124 2208 -124 c 0,27,28
 2146 -124 2146 -124 2087 -91.5 c 128,-1,29
 2028 -59 2028 -59 1982.5 -1.5 c 128,-1,30
 1937 56 1937 56 1909 141 c 128,-1,31
 1881 226 1881 226 1881 324 c 0,32,33
 1881 419 1881 419 1908.5 503 c 128,-1,34
 1936 587 1936 587 1981 645 c 128,-1,35
 2026 703 2026 703 2085.5 736.5 c 128,-1,36
 2145 770 2145 770 2208 770 c 0,37,38
 2286 770 2286 770 2352 712 c 128,-1,39
 2418 654 2418 654 2457 550.5 c 128,-1,40
 2496 447 2496 447 2496 322 c 0,23,24
1533 1581 m 2,41,-1
 410 -91 l 2,42,43
 405 -98 405 -98 400.5 -103.5 c 128,-1,44
 396 -109 396 -109 392.5 -113 c 128,-1,45
 389 -117 389 -117 385 -119.5 c 128,-1,46
 381 -122 381 -122 376.5 -123 c 128,-1,47
 372 -124 372 -124 365 -124 c 0,48,49
 348 -124 348 -124 334.5 -111 c 128,-1,50
 321 -98 321 -98 321 -80 c 0,51,52
 321 -64 321 -64 341 -36 c 2,53,-1
 1338 1450 l 1,54,-1
 1335 1452 l 1,55,56
 1325 1445 1325 1445 1305.5 1435.5 c 128,-1,57
 1286 1426 1286 1426 1247.5 1410.5 c 128,-1,58
 1209 1395 1209 1395 1153.5 1384.5 c 128,-1,59
 1098 1374 1098 1374 1040 1374 c 0,60,61
 869 1374 869 1374 705 1467 c 1,62,63
 752 1352 752 1352 751 1217 c 0,64,65
 751 1094 751 1094 713 991.5 c 128,-1,66
 675 889 675 889 609 829.5 c 128,-1,67
 543 770 543 770 463 770 c 0,68,69
 401 770 401 770 342 803 c 128,-1,70
 283 836 283 836 237.5 893.5 c 128,-1,71
 192 951 192 951 164.5 1036 c 128,-1,72
 137 1121 137 1121 137 1219 c 0,73,74
 137 1314 137 1314 164 1398 c 128,-1,75
 191 1482 191 1482 236.5 1540 c 128,-1,76
 282 1598 282 1598 341 1631.5 c 128,-1,77
 400 1665 400 1665 463 1665 c 0,78,79
 511 1665 511 1665 548 1646.5 c 128,-1,80
 585 1628 585 1628 623 1594 c 0,81,82
 804 1423 804 1423 1038 1423 c 0,83,84
 1305 1423 1305 1423 1460 1634 c 0,85,86
 1464 1639 1464 1639 1467.5 1643.5 c 128,-1,87
 1471 1648 1471 1648 1475.5 1652 c 128,-1,88
 1480 1656 1480 1656 1484 1659 c 128,-1,89
 1488 1662 1488 1662 1494 1663.5 c 128,-1,90
 1500 1665 1500 1665 1506 1665 c 0,91,92
 1524 1665 1524 1665 1537.5 1652 c 128,-1,93
 1551 1639 1551 1639 1551 1621 c 0,94,95
 1551 1608 1551 1608 1533 1581 c 2,41,-1
465 819 m 0,96,97
 556 819 556 819 626 932.5 c 128,-1,98
 696 1046 696 1046 696 1219 c 0,99,100
 696 1304 696 1304 676.5 1379 c 128,-1,101
 657 1454 657 1454 625 1505.5 c 128,-1,102
 593 1557 593 1557 551 1586.5 c 128,-1,103
 509 1616 509 1616 465 1616 c 0,104,105
 452 1616 452 1616 439.5 1613.5 c 128,-1,106
 427 1611 427 1611 407 1601.5 c 128,-1,107
 387 1592 387 1592 370 1576 c 128,-1,108
 353 1560 353 1560 335 1529.5 c 128,-1,109
 317 1499 317 1499 304 1458.5 c 128,-1,110
 291 1418 291 1418 282.5 1355.5 c 128,-1,111
 274 1293 274 1293 274 1217 c 128,-1,112
 274 1141 274 1141 282.5 1079 c 128,-1,113
 291 1017 291 1017 304 976.5 c 128,-1,114
 317 936 317 936 335.5 905.5 c 128,-1,115
 354 875 354 875 371 859 c 128,-1,116
 388 843 388 843 408 833.5 c 128,-1,117
 428 824 428 824 440.5 821.5 c 128,-1,118
 453 819 453 819 465 819 c 0,96,97
1449 -75 m 0,119,120
 1540 -75 1540 -75 1609.5 38 c 128,-1,121
 1679 151 1679 151 1679 324 c 0,122,123
 1679 409 1679 409 1659.5 484 c 128,-1,124
 1640 559 1640 559 1608 610.5 c 128,-1,125
 1576 662 1576 662 1534 692 c 128,-1,126
 1492 722 1492 722 1449 722 c 0,127,128
 1436 722 1436 722 1423 719.5 c 128,-1,129
 1410 717 1410 717 1390.5 707 c 128,-1,130
 1371 697 1371 697 1354 681 c 128,-1,131
 1337 665 1337 665 1318.5 634.5 c 128,-1,132
 1300 604 1300 604 1287 563.5 c 128,-1,133
 1274 523 1274 523 1266 460.5 c 128,-1,134
 1258 398 1258 398 1258 322 c 128,-1,135
 1258 246 1258 246 1266 184 c 128,-1,136
 1274 122 1274 122 1287.5 81.5 c 128,-1,137
 1301 41 1301 41 1319 11 c 128,-1,138
 1337 -19 1337 -19 1354.5 -35 c 128,-1,139
 1372 -51 1372 -51 1391.5 -61 c 128,-1,140
 1411 -71 1411 -71 1424 -73 c 128,-1,141
 1437 -75 1437 -75 1449 -75 c 0,119,120
1735 322 m 0,142,143
 1735 199 1735 199 1697 96.5 c 128,-1,144
 1659 -6 1659 -6 1592.5 -65 c 128,-1,145
 1526 -124 1526 -124 1446 -124 c 0,146,147
 1384 -124 1384 -124 1325 -91.5 c 128,-1,148
 1266 -59 1266 -59 1220.5 -1.5 c 128,-1,149
 1175 56 1175 56 1147.5 141 c 128,-1,150
 1120 226 1120 226 1120 324 c 0,151,152
 1120 419 1120 419 1147.5 503 c 128,-1,153
 1175 587 1175 587 1220 645 c 128,-1,154
 1265 703 1265 703 1324.5 736.5 c 128,-1,155
 1384 770 1384 770 1446 770 c 0,156,157
 1524 770 1524 770 1590.5 712 c 128,-1,158
 1657 654 1657 654 1696 550.5 c 128,-1,159
 1735 447 1735 447 1735 322 c 0,142,143
EndSplineSet
Validated: 1057
EndChar

StartChar: dotlessi
Encoding: 305 305 214
Width: 1233
Flags: W
LayerCount: 2
Fore
SplineSet
256 1120 m 1,0,-1
 727 1120 l 1,1,-1
 727 143 l 1,2,-1
 1092 143 l 1,3,-1
 1092 0 l 1,4,-1
 178 0 l 1,5,-1
 178 143 l 1,6,-1
 543 143 l 1,7,-1
 543 977 l 1,8,-1
 256 977 l 1,9,-1
 256 1120 l 1,0,-1
EndSplineSet
EndChar

StartChar: circumflex
Encoding: 710 710 215
Width: 1233
Flags: W
LayerCount: 2
Fore
SplineSet
543 1638 m 1,0,-1
 690 1638 l 1,1,-1
 936 1262 l 1,2,-1
 797 1262 l 1,3,-1
 616 1507 l 1,4,-1
 436 1262 l 1,5,-1
 297 1262 l 1,6,-1
 543 1638 l 1,0,-1
EndSplineSet
Validated: 1
EndChar

StartChar: tilde
Encoding: 732 732 216
Width: 1233
Flags: W
LayerCount: 2
Fore
SplineSet
612 1370 m 1,0,-1
 555 1425 l 2,1,2
 534 1445 534 1445 517.5 1454.5 c 128,-1,3
 501 1464 501 1464 487 1464 c 0,4,5
 449 1464 449 1464 431 1427 c 128,-1,6
 413 1390 413 1390 411 1309 c 1,7,-1
 287 1309 l 1,8,9
 288 1443 288 1443 339 1517 c 128,-1,10
 390 1591 390 1591 481 1591 c 0,11,12
 520 1591 520 1591 552 1577 c 128,-1,13
 584 1563 584 1563 621 1530 c 1,14,-1
 678 1475 l 2,15,16
 699 1455 699 1455 715.5 1445.5 c 128,-1,17
 732 1436 732 1436 745 1436 c 0,18,19
 784 1436 784 1436 802 1473 c 128,-1,20
 820 1510 820 1510 821 1591 c 1,21,-1
 946 1591 l 1,22,23
 945 1457 945 1457 894 1383 c 128,-1,24
 843 1309 843 1309 752 1309 c 0,25,26
 713 1309 713 1309 681 1323 c 128,-1,27
 649 1337 649 1337 612 1370 c 1,0,-1
EndSplineSet
Validated: 1
EndChar

StartChar: macron
Encoding: 175 175 217
Width: 1233
Flags: W
LayerCount: 2
Fore
SplineSet
317 1526 m 1,0,-1
 915 1526 l 1,1,-1
 915 1378 l 1,2,-1
 317 1378 l 1,3,-1
 317 1526 l 1,0,-1
EndSplineSet
Validated: 1
EndChar

StartChar: breve
Encoding: 728 728 218
Width: 1233
Flags: W
LayerCount: 2
Fore
SplineSet
303 1608 m 1,0,-1
 422 1608 l 1,1,2
 433 1532 433 1532 481 1495 c 128,-1,3
 529 1458 529 1458 616 1458 c 0,4,5
 701 1458 701 1458 749 1495 c 128,-1,6
 797 1532 797 1532 811 1608 c 1,7,-1
 930 1608 l 1,8,9
 919 1465 919 1465 840 1393 c 128,-1,10
 761 1321 761 1321 616 1321 c 0,11,12
 472 1321 472 1321 393 1393 c 128,-1,13
 314 1465 314 1465 303 1608 c 1,0,-1
EndSplineSet
Validated: 1
EndChar

StartChar: dotaccent
Encoding: 729 729 219
Width: 1233
Flags: W
LayerCount: 2
Fore
SplineSet
514 1552 m 1,0,-1
 719 1552 l 1,1,-1
 719 1348 l 1,2,-1
 514 1348 l 1,3,-1
 514 1552 l 1,0,-1
EndSplineSet
Validated: 1
EndChar

StartChar: ring
Encoding: 730 730 220
Width: 1233
Flags: W
LayerCount: 2
Fore
SplineSet
891 1524 m 256,0,1
 891 1409 891 1409 811.5 1329 c 128,-1,2
 732 1249 732 1249 616 1249 c 0,3,4
 501 1249 501 1249 421.5 1329 c 128,-1,5
 342 1409 342 1409 342 1524 c 256,6,7
 342 1639 342 1639 421.5 1718.5 c 128,-1,8
 501 1798 501 1798 616 1798 c 0,9,10
 732 1798 732 1798 811.5 1718.5 c 128,-1,11
 891 1639 891 1639 891 1524 c 256,0,1
768 1524 m 0,12,13
 768 1587 768 1587 724 1631 c 128,-1,14
 680 1675 680 1675 616 1675 c 256,15,16
 552 1675 552 1675 508.5 1631.5 c 128,-1,17
 465 1588 465 1588 465 1524 c 0,18,19
 465 1459 465 1459 508.5 1415.5 c 128,-1,20
 552 1372 552 1372 616 1372 c 256,21,22
 680 1372 680 1372 724 1416 c 128,-1,23
 768 1460 768 1460 768 1524 c 0,12,13
EndSplineSet
Validated: 1
EndChar

StartChar: cedilla
Encoding: 184 184 221
Width: 1233
Flags: W
LayerCount: 2
Fore
SplineSet
700 0 m 1,0,1
 756 -62 756 -62 782.5 -114.5 c 128,-1,2
 809 -167 809 -167 809 -215 c 0,3,4
 809 -304 809 -304 749 -349.5 c 128,-1,5
 689 -395 689 -395 571 -395 c 0,6,7
 526 -395 526 -395 482.5 -389 c 128,-1,8
 439 -383 439 -383 395 -371 c 1,9,-1
 395 -240 l 1,10,11
 429 -257 429 -257 466.5 -264.5 c 128,-1,12
 504 -272 504 -272 551 -272 c 0,13,14
 609 -272 609 -272 639.5 -248 c 128,-1,15
 670 -224 670 -224 670 -178 c 0,16,17
 670 -148 670 -148 648 -104.5 c 128,-1,18
 626 -61 626 -61 582 0 c 1,19,-1
 700 0 l 1,0,1
EndSplineSet
Validated: 1
EndChar

StartChar: hungarumlaut
Encoding: 733 733 222
Width: 1233
Flags: W
LayerCount: 2
Fore
SplineSet
535 1638 m 1,0,-1
 705 1638 l 1,1,-1
 481 1262 l 1,2,-1
 344 1262 l 1,3,-1
 535 1638 l 1,0,-1
868 1638 m 1,4,-1
 1047 1638 l 1,5,-1
 799 1262 l 1,6,-1
 664 1262 l 1,7,-1
 868 1638 l 1,4,-1
EndSplineSet
Validated: 1
EndChar

StartChar: ogonek
Encoding: 731 731 223
Width: 1233
Flags: W
LayerCount: 2
Fore
SplineSet
528 0 m 1,0,-1
 647 0 l 1,1,2
 602 -61 602 -61 580.5 -105 c 128,-1,3
 559 -149 559 -149 559 -180 c 0,4,5
 559 -226 559 -226 586.5 -249 c 128,-1,6
 614 -272 614 -272 668 -272 c 0,7,8
 700 -272 700 -272 731 -264.5 c 128,-1,9
 762 -257 762 -257 793 -242 c 1,10,-1
 793 -375 l 1,11,12
 755 -385 755 -385 721 -390 c 128,-1,13
 687 -395 687 -395 657 -395 c 0,14,15
 535 -395 535 -395 477.5 -351.5 c 128,-1,16
 420 -308 420 -308 420 -215 c 0,17,18
 420 -167 420 -167 446.5 -114.5 c 128,-1,19
 473 -62 473 -62 528 0 c 1,0,-1
EndSplineSet
Validated: 1
EndChar

StartChar: caron
Encoding: 711 711 224
Width: 1233
Flags: W
LayerCount: 2
Fore
SplineSet
543 1262 m 1,0,-1
 297 1638 l 1,1,-1
 436 1638 l 1,2,-1
 616 1393 l 1,3,-1
 797 1638 l 1,4,-1
 936 1638 l 1,5,-1
 690 1262 l 1,6,-1
 543 1262 l 1,0,-1
EndSplineSet
Validated: 1
EndChar

StartChar: Lslash
Encoding: 321 321 225
Width: 1233
Flags: W
LayerCount: 2
Fore
SplineSet
215 1493 m 1,0,-1
 418 1493 l 1,1,-1
 418 877 l 1,2,-1
 733 1096 l 1,3,-1
 811 985 l 1,4,-1
 418 711 l 1,5,-1
 418 170 l 1,6,-1
 1139 170 l 1,7,-1
 1139 0 l 1,8,-1
 215 0 l 1,9,-1
 215 571 l 1,10,-1
 70 465 l 1,11,-1
 -10 575 l 1,12,-1
 215 733 l 1,13,-1
 215 1493 l 1,0,-1
EndSplineSet
EndChar

StartChar: lslash
Encoding: 322 322 226
Width: 1233
Flags: W
LayerCount: 2
Fore
SplineSet
639 406 m 2,0,1
 639 282 639 282 684.5 219 c 128,-1,2
 730 156 730 156 819 156 c 2,3,-1
 1034 156 l 1,4,-1
 1034 0 l 1,5,-1
 801 0 l 2,6,7
 636 0 636 0 545.5 106 c 128,-1,8
 455 212 455 212 455 406 c 2,9,-1
 455 698 l 1,10,-1
 156 489 l 1,11,-1
 76 600 l 1,12,-1
 455 864 l 1,13,-1
 455 1423 l 1,14,-1
 160 1423 l 1,15,-1
 160 1567 l 1,16,-1
 639 1567 l 1,17,-1
 639 989 l 1,18,-1
 954 1208 l 1,19,-1
 1034 1098 l 1,20,-1
 639 823 l 1,21,-1
 639 406 l 2,0,1
EndSplineSet
EndChar

StartChar: Scaron
Encoding: 352 352 227
Width: 1233
Flags: W
LayerCount: 2
Fore
SplineSet
522 1635 m 5,0,-1
 311 1901 l 5,1,-1
 451 1901 l 5,2,-1
 616 1723 l 5,3,-1
 782 1901 l 5,4,-1
 922 1901 l 5,5,-1
 711 1635 l 5,6,-1
 522 1635 l 5,0,-1
EndSplineSet
Refer: 54 83 N 1 0 0 1 0 0 2
EndChar

StartChar: Zcaron
Encoding: 381 381 229
Width: 1233
Flags: W
LayerCount: 2
Fore
SplineSet
522 1635 m 5,0,-1
 311 1901 l 5,1,-1
 451 1901 l 5,2,-1
 616 1723 l 5,3,-1
 782 1901 l 5,4,-1
 922 1901 l 5,5,-1
 711 1635 l 5,6,-1
 522 1635 l 5,0,-1
EndSplineSet
Refer: 61 90 N 1 0 0 1 0 0 2
EndChar

StartChar: brokenbar
Encoding: 166 166 231
Width: 1233
Flags: W
LayerCount: 2
Fore
SplineSet
702 1432 m 1,0,-1
 702 674 l 1,1,-1
 530 674 l 1,2,-1
 530 1432 l 1,3,-1
 702 1432 l 1,0,-1
702 408 m 1,4,-1
 702 -350 l 1,5,-1
 530 -350 l 1,6,-1
 530 408 l 1,7,-1
 702 408 l 1,4,-1
EndSplineSet
Validated: 1
EndChar

StartChar: Eth
Encoding: 208 208 232
Width: 1233
Flags: W
LayerCount: 2
Fore
SplineSet
436 1493 m 2,0,1
 778 1493 778 1493 940 1311 c 128,-1,2
 1102 1129 1102 1129 1102 745 c 0,3,4
 1102 363 1102 363 939.5 181.5 c 128,-1,5
 777 0 777 0 436 0 c 2,6,-1
 133 0 l 1,7,-1
 133 709 l 1,8,-1
 8 709 l 1,9,-1
 8 858 l 1,10,-1
 133 858 l 1,11,-1
 133 1493 l 1,12,-1
 436 1493 l 2,0,1
436 166 m 2,13,14
 691 166 691 166 792 291.5 c 128,-1,15
 893 417 893 417 893 745 c 0,16,17
 893 1076 893 1076 792.5 1201.5 c 128,-1,18
 692 1327 692 1327 436 1327 c 2,19,-1
 340 1327 l 1,20,-1
 340 858 l 1,21,-1
 604 858 l 1,22,-1
 604 709 l 1,23,-1
 340 709 l 1,24,-1
 340 166 l 1,25,-1
 436 166 l 2,13,14
EndSplineSet
Validated: 1
EndChar

StartChar: eth
Encoding: 240 240 233
Width: 1233
Flags: W
LayerCount: 2
Fore
SplineSet
717 1327 m 1,0,1
 914 1115 914 1115 1005 925 c 128,-1,2
 1096 735 1096 735 1096 535 c 0,3,4
 1096 267 1096 267 970.5 119 c 128,-1,5
 845 -29 845 -29 616 -29 c 0,6,7
 388 -29 388 -29 262.5 119 c 128,-1,8
 137 267 137 267 137 535 c 0,9,10
 137 800 137 800 262.5 948 c 128,-1,11
 388 1096 388 1096 612 1096 c 0,12,13
 646 1096 646 1096 663.5 1095 c 128,-1,14
 681 1094 681 1094 696 1092 c 1,15,16
 663 1137 663 1137 627 1181.5 c 128,-1,17
 591 1226 591 1226 553 1270 c 1,18,-1
 274 1178 l 1,19,-1
 244 1276 l 1,20,-1
 481 1356 l 1,21,-1
 299 1556 l 1,22,-1
 518 1556 l 1,23,-1
 645 1411 l 1,24,-1
 934 1505 l 1,25,-1
 967 1407 l 1,26,-1
 717 1327 l 1,0,1
793 918 m 1,27,28
 758 931 758 931 717 937.5 c 128,-1,29
 676 944 676 944 631 944 c 0,30,31
 485 944 485 944 408.5 839 c 128,-1,32
 332 734 332 734 332 535 c 0,33,34
 332 339 332 339 406 233 c 128,-1,35
 480 127 480 127 616 127 c 0,36,37
 753 127 753 127 827 233 c 128,-1,38
 901 339 901 339 901 535 c 0,39,40
 901 645 901 645 872 746.5 c 128,-1,41
 843 848 843 848 793 918 c 1,27,28
EndSplineSet
Validated: 1
EndChar

StartChar: Thorn
Encoding: 222 222 236
Width: 1233
Flags: W
LayerCount: 2
Fore
SplineSet
403 1057 m 1,0,-1
 403 532 l 1,1,-1
 637 532 l 2,2,3
 795 532 795 532 873.5 598 c 128,-1,4
 952 664 952 664 952 795 c 256,5,6
 952 926 952 926 873.5 991.5 c 128,-1,7
 795 1057 795 1057 637 1057 c 2,8,-1
 403 1057 l 1,0,-1
201 1493 m 1,9,-1
 403 1493 l 1,10,-1
 403 1223 l 1,11,-1
 657 1223 l 2,12,13
 917 1223 917 1223 1041 1118 c 128,-1,14
 1165 1013 1165 1013 1165 795 c 0,15,16
 1165 576 1165 576 1041 471.5 c 128,-1,17
 917 367 917 367 657 367 c 2,18,-1
 403 367 l 1,19,-1
 403 0 l 1,20,-1
 201 0 l 1,21,-1
 201 1493 l 1,9,-1
EndSplineSet
Validated: 1
EndChar

StartChar: thorn
Encoding: 254 254 237
Width: 1233
Flags: W
LayerCount: 2
Fore
SplineSet
375 141 m 1,0,-1
 375 -426 l 1,1,-1
 190 -426 l 1,2,-1
 190 1567 l 1,3,-1
 375 1567 l 1,4,-1
 375 977 l 1,5,6
 421 1060 421 1060 497.5 1103.5 c 128,-1,7
 574 1147 574 1147 674 1147 c 0,8,9
 877 1147 877 1147 992.5 990 c 128,-1,10
 1108 833 1108 833 1108 555 c 0,11,12
 1108 282 1108 282 992 126.5 c 128,-1,13
 876 -29 876 -29 674 -29 c 0,14,15
 572 -29 572 -29 495.5 14.5 c 128,-1,16
 419 58 419 58 375 141 c 1,0,-1
915 559 m 256,17,18
 915 773 915 773 847.5 882 c 128,-1,19
 780 991 780 991 647 991 c 0,20,21
 513 991 513 991 444 881.5 c 128,-1,22
 375 772 375 772 375 559 c 0,23,24
 375 347 375 347 444 237 c 128,-1,25
 513 127 513 127 647 127 c 0,26,27
 780 127 780 127 847.5 236 c 128,-1,28
 915 345 915 345 915 559 c 256,17,18
EndSplineSet
Validated: 1
EndChar

StartChar: minus
Encoding: 8722 8722 238
Width: 1724
VWidth: 2220
Flags: W
HStem: 511 89<258 1467>
VStem: 184 1356<533 577>
LayerCount: 2
Fore
SplineSet
1467 511 m 2,0,-1
 258 511 l 2,1,2
 242 511 242 511 232.5 511.5 c 128,-1,3
 223 512 223 512 210 516 c 128,-1,4
 197 520 197 520 190.5 529.5 c 128,-1,5
 184 539 184 539 184 555 c 128,-1,6
 184 571 184 571 190.5 580.5 c 128,-1,7
 197 590 197 590 210 594 c 128,-1,8
 223 598 223 598 232 598.5 c 128,-1,9
 241 599 241 599 258 599 c 2,10,-1
 1467 599 l 2,11,12
 1483 599 1483 599 1492.5 598.5 c 128,-1,13
 1502 598 1502 598 1515 594 c 128,-1,14
 1528 590 1528 590 1534.5 580.5 c 128,-1,15
 1541 571 1541 571 1541 555 c 128,-1,16
 1541 539 1541 539 1534.5 529.5 c 128,-1,17
 1528 520 1528 520 1515 516 c 128,-1,18
 1502 512 1502 512 1492.5 511.5 c 128,-1,19
 1483 511 1483 511 1467 511 c 2,0,-1
EndSplineSet
Validated: 1
EndChar

StartChar: multiply
Encoding: 215 215 239
Width: 1724
VWidth: 2220
Flags: W
DStem2: 188 478 160 450 0.707931 -0.706281 160 51 188 22 0.707931 0.706281
LayerCount: 2
Fore
SplineSet
928 555 m 1,0,-1
 1370 111 l 2,1,2
 1389 92 1389 92 1394 84.5 c 128,-1,3
 1399 77 1399 77 1399 64 c 0,4,5
 1399 45 1399 45 1386.5 32.5 c 128,-1,6
 1374 20 1374 20 1354 20 c 0,7,8
 1334 20 1334 20 1305 49 c 2,9,-1
 861 493 l 1,10,-1
 417 49 l 2,11,12
 398 30 398 30 390.5 25 c 128,-1,13
 383 20 383 20 371 20 c 0,14,15
 354 20 354 20 340 33 c 128,-1,16
 326 46 326 46 326 64 c 0,17,18
 326 84 326 84 355 113 c 2,19,-1
 797 555 l 1,20,-1
 355 999 l 2,21,22
 338 1016 338 1016 332 1024.5 c 128,-1,23
 326 1033 326 1033 326 1046 c 0,24,25
 326 1064 326 1064 340 1077 c 128,-1,26
 354 1090 354 1090 371 1090 c 0,27,28
 384 1090 384 1090 391 1085.5 c 128,-1,29
 398 1081 398 1081 417 1061 c 2,30,-1
 864 617 l 1,31,-1
 1308 1061 l 2,32,33
 1325 1078 1325 1078 1333.5 1084 c 128,-1,34
 1342 1090 1342 1090 1354 1090 c 0,35,36
 1372 1090 1372 1090 1385.5 1077 c 128,-1,37
 1399 1064 1399 1064 1399 1046 c 0,38,39
 1399 1033 1399 1033 1394 1025.5 c 128,-1,40
 1389 1018 1389 1018 1370 999 c 2,41,-1
 928 555 l 1,0,-1
EndSplineSet
Validated: 1
EndChar

StartChar: uni00B9
Encoding: 185 185 240
Width: 1233
Flags: W
LayerCount: 2
Fore
SplineSet
362 778 m 1,0,-1
 567 778 l 1,1,-1
 567 1389 l 1,2,-1
 344 1348 l 1,3,-1
 344 1464 l 1,4,-1
 573 1503 l 1,5,-1
 711 1503 l 1,6,-1
 711 778 l 1,7,-1
 915 778 l 1,8,-1
 915 668 l 1,9,-1
 362 668 l 1,10,-1
 362 778 l 1,0,-1
EndSplineSet
Validated: 1
EndChar

StartChar: uni00B2
Encoding: 178 178 241
Width: 1233
Flags: W
LayerCount: 2
Fore
SplineSet
483 782 m 1,0,-1
 893 782 l 1,1,-1
 893 668 l 1,2,-1
 322 668 l 1,3,-1
 322 778 l 1,4,-1
 553 1004 l 1,5,6
 654 1101 654 1101 694.5 1162 c 128,-1,7
 735 1223 735 1223 735 1274 c 0,8,9
 735 1335 735 1335 685 1373 c 128,-1,10
 635 1411 635 1411 553 1411 c 0,11,12
 504 1411 504 1411 447.5 1393 c 128,-1,13
 391 1375 391 1375 328 1339 c 1,14,-1
 328 1464 l 1,15,16
 393 1492 393 1492 453.5 1506 c 128,-1,17
 514 1520 514 1520 573 1520 c 0,18,19
 715 1520 715 1520 801 1453.5 c 128,-1,20
 887 1387 887 1387 887 1280 c 0,21,22
 887 1223 887 1223 850 1163.5 c 128,-1,23
 813 1104 813 1104 694 987 c 2,24,-1
 483 782 l 1,0,-1
EndSplineSet
Validated: 1
EndChar

StartChar: uni00B3
Encoding: 179 179 242
Width: 1233
Flags: W
LayerCount: 2
Fore
SplineSet
731 1120 m 1,0,1
 825 1099 825 1099 874.5 1045 c 128,-1,2
 924 991 924 991 924 911 c 0,3,4
 924 787 924 787 829 720 c 128,-1,5
 734 653 734 653 557 653 c 0,6,7
 499 653 499 653 442 663.5 c 128,-1,8
 385 674 385 674 326 694 c 1,9,-1
 326 815 l 1,10,11
 395 788 395 788 451.5 775 c 128,-1,12
 508 762 508 762 553 762 c 0,13,14
 654 762 654 762 713 802.5 c 128,-1,15
 772 843 772 843 772 911 c 0,16,17
 772 985 772 985 717 1023 c 128,-1,18
 662 1061 662 1061 553 1061 c 2,19,-1
 487 1061 l 1,20,-1
 487 1169 l 1,21,-1
 561 1169 l 2,22,23
 654 1169 654 1169 703 1200.5 c 128,-1,24
 752 1232 752 1232 752 1292 c 0,25,26
 752 1348 752 1348 704 1379.5 c 128,-1,27
 656 1411 656 1411 569 1411 c 0,28,29
 525 1411 525 1411 469 1399 c 128,-1,30
 413 1387 413 1387 354 1364 c 1,31,-1
 354 1485 l 1,32,33
 423 1502 423 1502 481.5 1511 c 128,-1,34
 540 1520 540 1520 590 1520 c 0,35,36
 735 1520 735 1520 819 1461 c 128,-1,37
 903 1402 903 1402 903 1303 c 0,38,39
 903 1232 903 1232 859 1185.5 c 128,-1,40
 815 1139 815 1139 731 1120 c 1,0,1
EndSplineSet
Validated: 1
EndChar

StartChar: Gbreve
Encoding: 286 286 246
Width: 1233
Flags: W
LayerCount: 2
Fore
SplineSet
353 1901 m 5,0,-1
 472 1901 l 5,1,2
 484 1847 484 1847 534 1818.5 c 4,3,4
 584 1790 584 1790 666 1790 c 4,5,6
 749 1790 749 1790 797.5 1817.5 c 4,7,8
 846 1845 846 1845 861 1901 c 5,9,-1
 980 1901 l 5,10,11
 969 1782 969 1782 889.5 1720.5 c 4,12,13
 810 1659 810 1659 666 1659 c 260,14,15
 522 1659 522 1659 443 1720 c 4,16,17
 364 1781 364 1781 353 1901 c 5,0,-1
EndSplineSet
Refer: 42 71 N 1 0 0 1 0 0 2
EndChar

StartChar: gbreve
Encoding: 287 287 247
Width: 1233
Flags: W
LayerCount: 2
Fore
SplineSet
303 1608 m 5,0,-1
 422 1608 l 5,1,2
 433 1532 433 1532 481 1495 c 4,3,4
 529 1458 529 1458 616 1458 c 4,5,6
 701 1458 701 1458 749 1495 c 4,7,8
 797 1532 797 1532 811 1608 c 5,9,-1
 930 1608 l 5,10,11
 919 1465 919 1465 840 1393 c 4,12,13
 761 1321 761 1321 616 1321 c 4,14,15
 472 1321 472 1321 393 1393 c 4,16,17
 314 1465 314 1465 303 1608 c 5,0,-1
EndSplineSet
Refer: 74 103 N 1 0 0 1 0 0 2
EndChar

StartChar: Idotaccent
Encoding: 304 304 248
Width: 1233
Flags: W
LayerCount: 2
Fore
SplineSet
513 1872 m 5,0,-1
 718 1872 l 5,1,-1
 718 1667 l 5,2,-1
 513 1667 l 5,3,-1
 513 1872 l 5,0,-1
EndSplineSet
Refer: 44 73 N 1 0 0 1 0 0 2
EndChar

StartChar: Scedilla
Encoding: 350 350 249
Width: 1233
Flags: W
LayerCount: 2
Fore
SplineSet
700 0 m 5,0,1
 756 -62 756 -62 782.5 -114.5 c 4,2,3
 809 -167 809 -167 809 -215 c 4,4,5
 809 -304 809 -304 749 -349.5 c 4,6,7
 689 -395 689 -395 571 -395 c 4,8,9
 526 -395 526 -395 482.5 -389 c 4,10,11
 439 -383 439 -383 395 -371 c 5,12,-1
 395 -240 l 5,13,14
 429 -257 429 -257 466.5 -264.5 c 4,15,16
 504 -272 504 -272 551 -272 c 4,17,18
 609 -272 609 -272 639.5 -248 c 4,19,20
 670 -224 670 -224 670 -178 c 4,21,22
 670 -148 670 -148 648 -104.5 c 4,23,24
 626 -61 626 -61 582 0 c 5,25,-1
 700 0 l 5,0,1
EndSplineSet
Refer: 54 83 N 1 0 0 1 0 0 2
EndChar

StartChar: scedilla
Encoding: 351 351 250
Width: 1233
Flags: W
LayerCount: 2
Fore
SplineSet
700 0 m 5,0,1
 756 -62 756 -62 782.5 -114.5 c 4,2,3
 809 -167 809 -167 809 -215 c 4,4,5
 809 -304 809 -304 749 -349.5 c 4,6,7
 689 -395 689 -395 571 -395 c 4,8,9
 526 -395 526 -395 482.5 -389 c 4,10,11
 439 -383 439 -383 395 -371 c 5,12,-1
 395 -240 l 5,13,14
 429 -257 429 -257 466.5 -264.5 c 4,15,16
 504 -272 504 -272 551 -272 c 4,17,18
 609 -272 609 -272 639.5 -248 c 4,19,20
 670 -224 670 -224 670 -178 c 4,21,22
 670 -148 670 -148 648 -104.5 c 4,23,24
 626 -61 626 -61 582 0 c 5,25,-1
 700 0 l 5,0,1
EndSplineSet
Refer: 86 115 N 1 0 0 1 0 0 2
EndChar

StartChar: Cacute
Encoding: 262 262 251
Width: 1233
Flags: W
LayerCount: 2
Fore
SplineSet
762 1899 m 5,0,-1
 948 1899 l 5,1,-1
 719 1635 l 5,2,-1
 565 1635 l 5,3,-1
 762 1899 l 5,0,-1
EndSplineSet
Refer: 38 67 N 1 0 0 1 0 0 2
EndChar

StartChar: Ccaron
Encoding: 268 268 253
Width: 1233
Flags: W
LayerCount: 2
Fore
SplineSet
612 1635 m 5,0,-1
 401 1901 l 5,1,-1
 541 1901 l 5,2,-1
 706 1723 l 5,3,-1
 872 1901 l 5,4,-1
 1012 1901 l 5,5,-1
 801 1635 l 5,6,-1
 612 1635 l 5,0,-1
EndSplineSet
Refer: 38 67 N 1 0 0 1 0 0 2
EndChar

StartChar: dcroat
Encoding: 273 273 255
Width: 1233
Flags: W
LayerCount: 2
Fore
SplineSet
858 977 m 1,0,-1
 858 1286 l 1,1,-1
 553 1286 l 1,2,-1
 553 1407 l 1,3,-1
 858 1407 l 1,4,-1
 858 1556 l 1,5,-1
 1042 1556 l 1,6,-1
 1042 1407 l 1,7,-1
 1233 1407 l 1,8,-1
 1233 1286 l 1,9,-1
 1042 1286 l 1,10,-1
 1042 0 l 1,11,-1
 858 0 l 1,12,-1
 858 141 l 1,13,14
 812 58 812 58 735.5 14.5 c 128,-1,15
 659 -29 659 -29 559 -29 c 0,16,17
 356 -29 356 -29 239.5 128.5 c 128,-1,18
 123 286 123 286 123 563 c 0,19,20
 123 836 123 836 240 991.5 c 128,-1,21
 357 1147 357 1147 559 1147 c 0,22,23
 660 1147 660 1147 737 1103.5 c 128,-1,24
 814 1060 814 1060 858 977 c 1,0,-1
317 559 m 256,25,26
 317 345 317 345 385 236 c 128,-1,27
 453 127 453 127 586 127 c 256,28,29
 719 127 719 127 788.5 237 c 128,-1,30
 858 347 858 347 858 559 c 0,31,32
 858 772 858 772 788.5 881.5 c 128,-1,33
 719 991 719 991 586 991 c 256,34,35
 453 991 453 991 385 882 c 128,-1,36
 317 773 317 773 317 559 c 256,25,26
EndSplineSet
EndChar

StartChar: uni00AD
Encoding: 173 173 256
Width: 1233
Flags: W
LayerCount: 2
Fore
SplineSet
356 643 m 1,0,-1
 877 643 l 1,1,-1
 877 479 l 1,2,-1
 356 479 l 1,3,-1
 356 643 l 1,0,-1
EndSplineSet
Validated: 1
EndChar

StartChar: uni2219
Encoding: 8729 8729 257
Width: 1110
VWidth: 2220
Flags: W
HStem: 941 44G<434 672>
LayerCount: 2
Fore
SplineSet
983 555 m 0,0,1
 983 440 983 440 926.5 341 c 128,-1,2
 870 242 870 242 770.5 183 c 128,-1,3
 671 124 671 124 553 124 c 0,4,5
 467 124 467 124 388 158.5 c 128,-1,6
 309 193 309 193 251 250.5 c 128,-1,7
 193 308 193 308 158.5 388 c 128,-1,8
 124 468 124 468 124 555 c 0,9,10
 124 670 124 670 181 769 c 128,-1,11
 238 868 238 868 337.5 927 c 128,-1,12
 437 986 437 986 555 986 c 0,13,14
 641 986 641 986 720 951.5 c 128,-1,15
 799 917 799 917 857 859.5 c 128,-1,16
 915 802 915 802 949 722 c 128,-1,17
 983 642 983 642 983 555 c 0,0,1
EndSplineSet
Validated: 1
EndChar

StartChar: Euro
Encoding: 8364 8364 258
Width: 1233
Flags: W
LayerCount: 2
Fore
SplineSet
211 948 m 1,0,1
 259 1231 259 1231 396 1375.5 c 128,-1,2
 533 1520 533 1520 756 1520 c 0,3,4
 840 1520 840 1520 913.5 1500 c 128,-1,5
 987 1480 987 1480 1061 1438 c 1,6,-1
 1061 1231 l 1,7,8
 995 1292 995 1292 915.5 1326 c 128,-1,9
 836 1360 836 1360 758 1360 c 0,10,11
 612 1360 612 1360 525 1256 c 128,-1,12
 438 1152 438 1152 414 948 c 1,13,-1
 895 948 l 1,14,-1
 846 840 l 1,15,-1
 404 840 l 1,16,17
 402 820 402 820 401.5 797.5 c 128,-1,18
 401 775 401 775 401 729 c 0,19,20
 401 714 401 714 401.5 695 c 128,-1,21
 402 676 402 676 403 653 c 1,22,-1
 764 653 l 1,23,-1
 715 543 l 1,24,-1
 414 543 l 1,25,26
 437 340 437 340 524 235.5 c 128,-1,27
 611 131 611 131 758 131 c 0,28,29
 837 131 837 131 915.5 164.5 c 128,-1,30
 994 198 994 198 1061 260 c 1,31,-1
 1061 53 l 1,32,33
 989 11 989 11 915 -9 c 128,-1,34
 841 -29 841 -29 756 -29 c 0,35,36
 530 -29 530 -29 392.5 115 c 128,-1,37
 255 259 255 259 211 543 c 1,38,-1
 37 543 l 1,39,-1
 86 653 l 1,40,-1
 203 653 l 1,41,42
 202 665 202 665 201 685 c 0,43,44
 199 730 199 730 199 745 c 0,45,46
 199 763 199 763 201 810 c 0,47,48
 202 829 202 829 203 840 c 1,49,-1
 37 840 l 1,50,-1
 86 948 l 1,51,-1
 211 948 l 1,0,1
EndSplineSet
Validated: 1
EndChar

StartChar: u10003
Encoding: 65539 65539 259
AltUni2: 010003.ffffffff.0
Width: 1233
Flags: W
LayerCount: 2
Fore
SplineSet
319 1497 m 1,0,-1
 522 1497 l 1,1,-1
 522 1294 l 1,2,-1
 319 1294 l 1,3,-1
 319 1497 l 1,0,-1
711 1497 m 1,4,-1
 913 1497 l 1,5,-1
 913 1294 l 1,6,-1
 711 1294 l 1,7,-1
 711 1497 l 1,4,-1
EndSplineSet
Validated: 1
EndChar

StartChar: u10004
Encoding: 65540 65540 260
AltUni2: 010004.ffffffff.0
Width: 1233
Flags: W
LayerCount: 2
Fore
SplineSet
672 1526 m 1,0,-1
 858 1526 l 1,1,-1
 629 1262 l 1,2,-1
 475 1262 l 1,3,-1
 672 1526 l 1,0,-1
EndSplineSet
Validated: 1
EndChar

StartChar: u10005
Encoding: 65541 65541 261
AltUni2: 010005.ffffffff.0
Width: 1233
Flags: W
LayerCount: 2
Fore
SplineSet
612 1337 m 1,0,-1
 555 1370 l 2,1,2
 530 1384 530 1384 514.5 1389.5 c 128,-1,3
 499 1395 499 1395 487 1395 c 0,4,5
 452 1395 452 1395 432 1370 c 128,-1,6
 412 1345 412 1345 412 1300 c 2,7,-1
 412 1294 l 1,8,-1
 287 1294 l 1,9,10
 287 1395 287 1395 338.5 1454 c 128,-1,11
 390 1513 390 1513 475 1513 c 0,12,13
 511 1513 511 1513 541.5 1505 c 128,-1,14
 572 1497 572 1497 621 1470 c 1,15,-1
 678 1440 l 1,16,17
 700 1427 700 1427 717.5 1421 c 128,-1,18
 735 1415 735 1415 750 1415 c 0,19,20
 781 1415 781 1415 801 1440.5 c 128,-1,21
 821 1466 821 1466 821 1507 c 2,22,-1
 821 1513 l 1,23,-1
 946 1513 l 1,24,25
 944 1413 944 1413 893 1353.5 c 128,-1,26
 842 1294 842 1294 758 1294 c 0,27,28
 724 1294 724 1294 694 1302 c 128,-1,29
 664 1310 664 1310 612 1337 c 1,0,-1
EndSplineSet
Validated: 1
EndChar

StartChar: u10006
Encoding: 65542 65542 262
AltUni2: 010006.ffffffff.0
Width: 1233
Flags: W
LayerCount: 2
Fore
SplineSet
561 1526 m 1,0,-1
 758 1262 l 1,1,-1
 604 1262 l 1,2,-1
 377 1526 l 1,3,-1
 561 1526 l 1,0,-1
EndSplineSet
Validated: 1
EndChar

StartChar: u10007
Encoding: 65543 65543 263
AltUni2: 010007.ffffffff.0
Width: 1233
Flags: W
LayerCount: 2
Fore
SplineSet
522 1528 m 1,0,-1
 711 1528 l 1,1,-1
 922 1262 l 1,2,-1
 782 1262 l 1,3,-1
 616 1440 l 1,4,-1
 451 1262 l 1,5,-1
 311 1262 l 1,6,-1
 522 1528 l 1,0,-1
EndSplineSet
Validated: 1
EndChar

StartChar: u10008
Encoding: 65544 65544 264
AltUni2: 010008.ffffffff.0
Width: 1233
Flags: W
LayerCount: 2
Fore
SplineSet
522 1262 m 1,0,-1
 311 1528 l 1,1,-1
 451 1528 l 1,2,-1
 616 1350 l 1,3,-1
 782 1528 l 1,4,-1
 922 1528 l 1,5,-1
 711 1262 l 1,6,-1
 522 1262 l 1,0,-1
EndSplineSet
Validated: 1
EndChar

StartChar: u10009
Encoding: 65545 65545 265
AltUni2: 010009.ffffffff.0
Width: 1233
Flags: W
LayerCount: 2
Fore
SplineSet
51 504 m 1,0,-1
 27 612 l 1,1,-1
 1087 874 l 1,2,-1
 1114 766 l 1,3,-1
 51 504 l 1,0,-1
EndSplineSet
Validated: 1
EndChar

StartChar: u1000A
Encoding: 65546 65546 266
AltUni2: 01000a.ffffffff.0
Width: 1233
Flags: W
LayerCount: 2
Fore
SplineSet
631 1503 m 1,0,-1
 793 1503 l 1,1,-1
 793 965 l 1,2,-1
 909 965 l 1,3,-1
 909 854 l 1,4,-1
 793 854 l 1,5,-1
 793 668 l 1,6,-1
 655 668 l 1,7,-1
 655 854 l 1,8,-1
 268 854 l 1,9,-1
 268 975 l 1,10,-1
 631 1503 l 1,0,-1
655 1378 m 1,11,-1
 381 965 l 1,12,-1
 655 965 l 1,13,-1
 655 1378 l 1,11,-1
EndSplineSet
Validated: 1
EndChar

StartChar: u1000B
Encoding: 65547 65547 267
AltUni2: 01000b.ffffffff.0
Width: 1233
Flags: W
LayerCount: 2
Fore
SplineSet
303 1528 m 1,0,-1
 422 1528 l 1,1,2
 434 1474 434 1474 484 1445.5 c 128,-1,3
 534 1417 534 1417 616 1417 c 0,4,5
 699 1417 699 1417 747.5 1444.5 c 128,-1,6
 796 1472 796 1472 811 1528 c 1,7,-1
 930 1528 l 1,8,9
 919 1409 919 1409 839.5 1347.5 c 128,-1,10
 760 1286 760 1286 616 1286 c 256,11,12
 472 1286 472 1286 393 1347 c 128,-1,13
 314 1408 314 1408 303 1528 c 1,0,-1
EndSplineSet
Validated: 1
EndChar

StartChar: u1000C
Encoding: 65548 65548 268
AltUni2: 01000c.ffffffff.0
Width: 1233
Flags: W
LayerCount: 2
Fore
SplineSet
514 1499 m 1,0,-1
 719 1499 l 1,1,-1
 719 1294 l 1,2,-1
 514 1294 l 1,3,-1
 514 1499 l 1,0,-1
EndSplineSet
Validated: 1
EndChar

StartChar: Alpha
Encoding: 913 913 269
Width: 1665
VWidth: 2220
Flags: W
HStem: 0 69<71 71 553 553 981 981 1592 1592> 506 69<517 1017> 1545 44
VStem: 71 1521<0 69>
LayerCount: 2
Fore
SplineSet
884 1545 m 2,0,-1
 1363 158 l 2,1,2
 1376 120 1376 120 1394.5 101.5 c 128,-1,3
 1413 83 1413 83 1448 76 c 128,-1,4
 1483 69 1483 69 1552 69 c 2,5,-1
 1592 69 l 1,6,-1
 1592 0 l 1,7,8
 1452 7 1452 7 1301 7 c 0,9,10
 1061 7 1061 7 981 0 c 1,11,-1
 981 69 l 1,12,13
 1003 69 1003 69 1016.5 69.5 c 128,-1,14
 1030 70 1030 70 1055 71.5 c 128,-1,15
 1080 73 1080 73 1096.5 77.5 c 128,-1,16
 1113 82 1113 82 1130.5 88.5 c 128,-1,17
 1148 95 1148 95 1157 107 c 128,-1,18
 1166 119 1166 119 1166 135 c 0,19,20
 1166 138 1166 138 1159 166 c 2,21,-1
 1041 506 l 1,22,-1
 493 506 l 1,23,-1
 391 215 l 2,24,25
 387 206 387 206 386 182 c 0,26,27
 386 135 386 135 430 102 c 128,-1,28
 474 69 474 69 553 69 c 1,29,-1
 553 0 l 1,30,31
 340 7 340 7 297 7 c 0,32,33
 224 7 224 7 71 0 c 1,34,-1
 71 69 l 1,35,36
 168 71 168 71 229.5 104 c 128,-1,37
 291 137 291 137 320 218 c 2,38,-1
 779 1545 l 2,39,40
 788 1571 788 1571 798 1580.5 c 128,-1,41
 808 1590 808 1590 832 1590 c 0,42,43
 845 1590 845 1590 853.5 1587.5 c 128,-1,44
 862 1585 862 1585 867.5 1577.5 c 128,-1,45
 873 1570 873 1570 875.5 1565 c 128,-1,46
 878 1560 878 1560 884 1545 c 2,0,-1
766 1296 m 1,47,-1
 517 575 l 1,48,-1
 1017 575 l 1,49,-1
 766 1296 l 1,47,-1
EndSplineSet
Validated: 1
EndChar

StartChar: Beta
Encoding: 914 914 270
Width: 1571
VWidth: 2220
Flags: W
HStem: 0 69<80 133 133 219 602 879 879 950> 764 49<493 815 815 910> 1447 69<80 133 549 602 602 877>
VStem: 309 184<173 764 813 1343 1343 1359> 1170 215<1070 1200> 1223 222<330 483>
LayerCount: 2
Fore
SplineSet
493 813 m 1,0,-1
 815 813 l 2,1,2
 886 813 886 813 946 833.5 c 128,-1,3
 1006 854 1006 854 1046.5 887.5 c 128,-1,4
 1087 921 1087 921 1115.5 964 c 128,-1,5
 1144 1007 1144 1007 1157 1052 c 128,-1,6
 1170 1097 1170 1097 1170 1141 c 0,7,8
 1170 1178 1170 1178 1160.5 1218 c 128,-1,9
 1151 1258 1151 1258 1128.5 1299.5 c 128,-1,10
 1106 1341 1106 1341 1073.5 1373.5 c 128,-1,11
 1041 1406 1041 1406 990 1426.5 c 128,-1,12
 939 1447 939 1447 877 1447 c 2,13,-1
 602 1447 l 2,14,15
 562 1447 562 1447 540.5 1444.5 c 128,-1,16
 519 1442 519 1442 508 1430 c 128,-1,17
 497 1418 497 1418 495 1404 c 128,-1,18
 493 1390 493 1390 493 1359 c 2,19,-1
 493 813 l 1,0,-1
1017 793 m 1,20,21
 1138 780 1138 780 1236.5 724.5 c 128,-1,22
 1335 669 1335 669 1390 585.5 c 128,-1,23
 1445 502 1445 502 1445 406 c 0,24,25
 1445 328 1445 328 1408.5 254.5 c 128,-1,26
 1372 181 1372 181 1308.5 124.5 c 128,-1,27
 1245 68 1245 68 1151.5 34 c 128,-1,28
 1058 0 1058 0 950 0 c 2,29,-1
 80 0 l 1,30,-1
 80 69 l 1,31,-1
 133 69 l 2,32,33
 170 69 170 69 196.5 71 c 128,-1,34
 223 73 223 73 242.5 75.5 c 128,-1,35
 262 78 262 78 274 85 c 128,-1,36
 286 92 286 92 293.5 98 c 128,-1,37
 301 104 301 104 304 117.5 c 128,-1,38
 307 131 307 131 308 142 c 128,-1,39
 309 153 309 153 309 173 c 2,40,-1
 309 1343 l 2,41,42
 309 1363 309 1363 308 1374 c 128,-1,43
 307 1385 307 1385 304 1398.5 c 128,-1,44
 301 1412 301 1412 293.5 1418 c 128,-1,45
 286 1424 286 1424 274 1431 c 128,-1,46
 262 1438 262 1438 242.5 1441 c 128,-1,47
 223 1444 223 1444 196.5 1445.5 c 128,-1,48
 170 1447 170 1447 133 1447 c 2,49,-1
 80 1447 l 1,50,-1
 80 1516 l 1,51,-1
 892 1516 l 2,52,53
 997 1516 997 1516 1090.5 1484.5 c 128,-1,54
 1184 1453 1184 1453 1247.5 1401 c 128,-1,55
 1311 1349 1311 1349 1348 1281 c 128,-1,56
 1385 1213 1385 1213 1385 1141 c 0,57,58
 1385 1018 1385 1018 1282 921.5 c 128,-1,59
 1179 825 1179 825 1017 793 c 1,20,21
879 69 m 2,60,61
 945 69 945 69 1002 89 c 128,-1,62
 1059 109 1059 109 1099 143 c 128,-1,63
 1139 177 1139 177 1167.5 221 c 128,-1,64
 1196 265 1196 265 1209.5 312.5 c 128,-1,65
 1223 360 1223 360 1223 408 c 0,66,67
 1223 454 1223 454 1212 502 c 128,-1,68
 1201 550 1201 550 1176 597.5 c 128,-1,69
 1151 645 1151 645 1115.5 681.5 c 128,-1,70
 1080 718 1080 718 1026.5 741 c 128,-1,71
 973 764 973 764 910 764 c 2,72,-1
 493 764 l 1,73,-1
 493 158 l 2,74,75
 493 127 493 127 495 112.5 c 128,-1,76
 497 98 497 98 508 86.5 c 128,-1,77
 519 75 519 75 540 72 c 128,-1,78
 561 69 561 69 602 69 c 2,79,-1
 879 69 l 2,60,61
EndSplineSet
Validated: 1
EndChar

StartChar: Gamma
Encoding: 915 915 271
Width: 1387
VWidth: 2220
Flags: W
HStem: 0 69<73 99 757 784> 1441 69<73 182 73 892>
VStem: 302 198<140 1356>
LayerCount: 2
Fore
SplineSet
1230 1510 m 1,0,-1
 1292 1010 l 1,1,-1
 1237 1010 l 1,2,3
 1231 1064 1231 1064 1224.5 1104 c 128,-1,4
 1218 1144 1218 1144 1208.5 1185 c 128,-1,5
 1199 1226 1199 1226 1187.5 1255 c 128,-1,6
 1176 1284 1176 1284 1160 1312.5 c 128,-1,7
 1144 1341 1144 1341 1122.5 1360 c 128,-1,8
 1101 1379 1101 1379 1073.5 1395.5 c 128,-1,9
 1046 1412 1046 1412 1011 1421 c 128,-1,10
 976 1430 976 1430 933 1435.5 c 128,-1,11
 890 1441 890 1441 837 1441 c 2,12,-1
 608 1441 l 2,13,14
 568 1441 568 1441 547 1438 c 128,-1,15
 526 1435 526 1435 515 1423 c 128,-1,16
 504 1411 504 1411 502 1397 c 128,-1,17
 500 1383 500 1383 500 1352 c 2,18,-1
 500 175 l 2,19,20
 500 158 500 158 500 150.5 c 128,-1,21
 500 143 500 143 501.5 130.5 c 128,-1,22
 503 118 503 118 507 113 c 128,-1,23
 511 108 511 108 518 99.5 c 128,-1,24
 525 91 525 91 536 87.5 c 128,-1,25
 547 84 547 84 562 79.5 c 128,-1,26
 577 75 577 75 598.5 73 c 128,-1,27
 620 71 620 71 647.5 70 c 128,-1,28
 675 69 675 69 710 69 c 2,29,-1
 784 69 l 1,30,-1
 784 0 l 1,31,32
 704 7 704 7 411 7 c 0,33,34
 151 7 151 7 73 0 c 1,35,-1
 73 69 l 1,36,-1
 127 69 l 2,37,38
 164 69 164 69 190.5 71 c 128,-1,39
 217 73 217 73 236 75.5 c 128,-1,40
 255 78 255 78 267 85 c 128,-1,41
 279 92 279 92 286.5 98 c 128,-1,42
 294 104 294 104 297 117.5 c 128,-1,43
 300 131 300 131 301 142 c 128,-1,44
 302 153 302 153 302 173 c 2,45,-1
 302 1336 l 2,46,47
 302 1356 302 1356 301 1367 c 128,-1,48
 300 1378 300 1378 297 1391.5 c 128,-1,49
 294 1405 294 1405 286.5 1411.5 c 128,-1,50
 279 1418 279 1418 267 1425 c 128,-1,51
 255 1432 255 1432 236 1434.5 c 128,-1,52
 217 1437 217 1437 190.5 1439 c 128,-1,53
 164 1441 164 1441 127 1441 c 2,54,-1
 73 1441 l 1,55,-1
 73 1510 l 1,56,-1
 1230 1510 l 1,0,-1
EndSplineSet
Validated: 1
EndChar

StartChar: Epsilon
Encoding: 917 917 272
Width: 1509
VWidth: 2220
Flags: W
HStem: 0 69<73 291 504 1139> 750 69<500 871> 1441 69<73 291 504 1129>
VStem: 302 198<80 750 819 1429> 939 56<491 675 893 1079>
LayerCount: 2
Fore
SplineSet
1447 573 m 1,0,-1
 1354 0 l 1,1,-1
 73 0 l 1,2,-1
 73 69 l 1,3,-1
 127 69 l 2,4,5
 164 69 164 69 190.5 71 c 128,-1,6
 217 73 217 73 236 75.5 c 128,-1,7
 255 78 255 78 267 85 c 128,-1,8
 279 92 279 92 286.5 98 c 128,-1,9
 294 104 294 104 297 117.5 c 128,-1,10
 300 131 300 131 301 142 c 128,-1,11
 302 153 302 153 302 173 c 2,12,-1
 302 1336 l 2,13,14
 302 1356 302 1356 301 1367 c 128,-1,15
 300 1378 300 1378 297 1391.5 c 128,-1,16
 294 1405 294 1405 286.5 1411.5 c 128,-1,17
 279 1418 279 1418 267 1425 c 128,-1,18
 255 1432 255 1432 236 1434.5 c 128,-1,19
 217 1437 217 1437 190.5 1439 c 128,-1,20
 164 1441 164 1441 127 1441 c 2,21,-1
 73 1441 l 1,22,-1
 73 1510 l 1,23,-1
 1323 1510 l 1,24,-1
 1385 1010 l 1,25,-1
 1330 1010 l 1,26,27
 1323 1072 1323 1072 1315 1117.5 c 128,-1,28
 1307 1163 1307 1163 1294.5 1207.5 c 128,-1,29
 1282 1252 1282 1252 1266 1282.5 c 128,-1,30
 1250 1313 1250 1313 1226.5 1341 c 128,-1,31
 1203 1369 1203 1369 1172.5 1386.5 c 128,-1,32
 1142 1404 1142 1404 1101 1417 c 128,-1,33
 1060 1430 1060 1430 1009.5 1435.5 c 128,-1,34
 959 1441 959 1441 895 1441 c 2,35,-1
 608 1441 l 2,36,37
 568 1441 568 1441 547 1438 c 128,-1,38
 526 1435 526 1435 515 1423 c 128,-1,39
 504 1411 504 1411 502 1397 c 128,-1,40
 500 1383 500 1383 500 1352 c 2,41,-1
 500 819 l 1,42,-1
 699 819 l 2,43,44
 753 819 753 819 791.5 824.5 c 128,-1,45
 830 830 830 830 857 844.5 c 128,-1,46
 884 859 884 859 900 877 c 128,-1,47
 916 895 916 895 925 927 c 128,-1,48
 934 959 934 959 936.5 993 c 128,-1,49
 939 1027 939 1027 939 1079 c 1,50,-1
 995 1079 l 1,51,-1
 995 491 l 1,52,-1
 939 491 l 1,53,54
 939 543 939 543 936.5 576 c 128,-1,55
 934 609 934 609 925 641 c 128,-1,56
 916 673 916 673 900 691.5 c 128,-1,57
 884 710 884 710 857 724.5 c 128,-1,58
 830 739 830 739 791.5 744.5 c 128,-1,59
 753 750 753 750 699 750 c 2,60,-1
 500 750 l 1,61,-1
 500 158 l 2,62,63
 500 127 500 127 502 112.5 c 128,-1,64
 504 98 504 98 515 86.5 c 128,-1,65
 526 75 526 75 547 72 c 128,-1,66
 568 69 568 69 608 69 c 2,67,-1
 904 69 l 2,68,69
 1137 69 1137 69 1239 159 c 0,70,71
 1318 229 1318 229 1358 394 c 0,72,73
 1374 458 1374 458 1392 573 c 1,74,-1
 1447 573 l 1,0,-1
EndSplineSet
Validated: 1
EndChar

StartChar: Zeta
Encoding: 918 918 273
Width: 1356
VWidth: 2220
Flags: W
HStem: 0 75<353 717 717 922> 1447 69<473 655 655 1003>
VStem: 124 1119
LayerCount: 2
Fore
SplineSet
1214 1439 m 2,0,-1
 353 75 l 1,1,-1
 717 75 l 2,2,3
 984 75 984 75 1088 203 c 0,4,5
 1159 291 1159 291 1179 481 c 0,6,7
 1184 527 1184 527 1188 593 c 1,8,-1
 1243 593 l 1,9,-1
 1205 0 l 1,10,-1
 182 0 l 2,11,12
 144 0 144 0 134 5.5 c 128,-1,13
 124 11 124 11 124 38 c 0,14,15
 124 52 124 52 126.5 58 c 128,-1,16
 129 64 129 64 140 82 c 2,17,-1
 1003 1447 l 1,18,-1
 655 1447 l 2,19,20
 578 1447 578 1447 516.5 1436 c 128,-1,21
 455 1425 455 1425 410 1406 c 128,-1,22
 365 1387 365 1387 331.5 1356.5 c 128,-1,23
 298 1326 298 1326 276.5 1292 c 128,-1,24
 255 1258 255 1258 240.5 1211.5 c 128,-1,25
 226 1165 226 1165 219 1120 c 128,-1,26
 212 1075 212 1075 209 1017 c 1,27,-1
 153 1017 l 1,28,-1
 178 1516 l 1,29,-1
 1172 1516 l 2,30,31
 1209 1516 1209 1516 1219.5 1511 c 128,-1,32
 1230 1506 1230 1506 1230 1481 c 0,33,34
 1230 1469 1230 1469 1227.5 1463 c 128,-1,35
 1225 1457 1225 1457 1214 1439 c 2,0,-1
EndSplineSet
Validated: 1
EndChar

StartChar: Eta
Encoding: 919 919 274
Width: 1665
VWidth: 2220
Flags: W
HStem: 0 69<73 73 728 728 935 935 1590 1590> 755 69<500 1163> 1447 69<73 73 728 728 935 935 1590 1590>
VStem: 302 198<173 755 824 1343> 1163 198<173 755 755 755 824 1343>
LayerCount: 2
Fore
SplineSet
1361 1343 m 2,0,-1
 1361 173 l 2,1,2
 1361 153 1361 153 1361.5 142 c 128,-1,3
 1362 131 1362 131 1365.5 117.5 c 128,-1,4
 1369 104 1369 104 1376 98 c 128,-1,5
 1383 92 1383 92 1395 85 c 128,-1,6
 1407 78 1407 78 1426.5 75.5 c 128,-1,7
 1446 73 1446 73 1472.5 71 c 128,-1,8
 1499 69 1499 69 1536 69 c 2,9,-1
 1590 69 l 1,10,-1
 1590 0 l 1,11,12
 1512 7 1512 7 1261 7 c 0,13,14
 1012 7 1012 7 935 0 c 1,15,-1
 935 69 l 1,16,-1
 988 69 l 2,17,18
 1025 69 1025 69 1051.5 71 c 128,-1,19
 1078 73 1078 73 1097.5 75.5 c 128,-1,20
 1117 78 1117 78 1129 85 c 128,-1,21
 1141 92 1141 92 1148 98 c 128,-1,22
 1155 104 1155 104 1158.5 117.5 c 128,-1,23
 1162 131 1162 131 1162.5 142 c 128,-1,24
 1163 153 1163 153 1163 173 c 2,25,-1
 1163 755 l 1,26,-1
 500 755 l 1,27,-1
 500 173 l 2,28,29
 500 153 500 153 500.5 142 c 128,-1,30
 501 131 501 131 504 117.5 c 128,-1,31
 507 104 507 104 514.5 98 c 128,-1,32
 522 92 522 92 534 85 c 128,-1,33
 546 78 546 78 565.5 75.5 c 128,-1,34
 585 73 585 73 611.5 71 c 128,-1,35
 638 69 638 69 675 69 c 2,36,-1
 728 69 l 1,37,-1
 728 0 l 1,38,39
 650 7 650 7 400 7 c 0,40,41
 151 7 151 7 73 0 c 1,42,-1
 73 69 l 1,43,-1
 127 69 l 2,44,45
 164 69 164 69 190.5 71 c 128,-1,46
 217 73 217 73 236 75.5 c 128,-1,47
 255 78 255 78 267 85 c 128,-1,48
 279 92 279 92 286.5 98 c 128,-1,49
 294 104 294 104 297 117.5 c 128,-1,50
 300 131 300 131 301 142 c 128,-1,51
 302 153 302 153 302 173 c 2,52,-1
 302 1343 l 2,53,54
 302 1363 302 1363 301 1374 c 128,-1,55
 300 1385 300 1385 297 1398.5 c 128,-1,56
 294 1412 294 1412 286.5 1418 c 128,-1,57
 279 1424 279 1424 267 1431 c 128,-1,58
 255 1438 255 1438 236 1441 c 128,-1,59
 217 1444 217 1444 190.5 1445.5 c 128,-1,60
 164 1447 164 1447 127 1447 c 2,61,-1
 73 1447 l 1,62,-1
 73 1516 l 1,63,64
 151 1509 151 1509 402 1510 c 0,65,66
 651 1510 651 1510 728 1516 c 1,67,-1
 728 1447 l 1,68,-1
 675 1447 l 2,69,70
 638 1447 638 1447 611.5 1445.5 c 128,-1,71
 585 1444 585 1444 565.5 1441 c 128,-1,72
 546 1438 546 1438 534 1431 c 128,-1,73
 522 1424 522 1424 514.5 1418 c 128,-1,74
 507 1412 507 1412 504 1398.5 c 128,-1,75
 501 1385 501 1385 500.5 1374.5 c 128,-1,76
 500 1364 500 1364 500 1343 c 2,77,-1
 500 824 l 1,78,-1
 1163 824 l 1,79,-1
 1163 1343 l 2,80,81
 1163 1363 1163 1363 1162.5 1374 c 128,-1,82
 1162 1385 1162 1385 1158.5 1398.5 c 128,-1,83
 1155 1412 1155 1412 1148 1418 c 128,-1,84
 1141 1424 1141 1424 1129 1431 c 128,-1,85
 1117 1438 1117 1438 1097.5 1441 c 128,-1,86
 1078 1444 1078 1444 1051.5 1445.5 c 128,-1,87
 1025 1447 1025 1447 988 1447 c 2,88,-1
 935 1447 l 1,89,-1
 935 1516 l 1,90,91
 1013 1509 1013 1509 1263 1510 c 0,92,93
 1512 1510 1512 1510 1590 1516 c 1,94,-1
 1590 1447 l 1,95,-1
 1536 1447 l 2,96,97
 1499 1447 1499 1447 1472.5 1445.5 c 128,-1,98
 1446 1444 1446 1444 1426.5 1441 c 128,-1,99
 1407 1438 1407 1438 1395 1431 c 128,-1,100
 1383 1424 1383 1424 1376 1418 c 128,-1,101
 1369 1412 1369 1412 1365.5 1398.5 c 128,-1,102
 1362 1385 1362 1385 1361.5 1374 c 128,-1,103
 1361 1363 1361 1363 1361 1343 c 2,0,-1
EndSplineSet
Validated: 1057
EndChar

StartChar: Theta
Encoding: 920 920 275
Width: 1724
VWidth: 2220
Flags: W
HStem: -49 51<754 968> 675 169<522 1203> 1516 49<755 973>
VStem: 124 215<525 981> 466 56<599 675 844 919> 1203 56<599 675 675 675 844 919> 1385 215<528 979>
LayerCount: 2
Fore
SplineSet
1601 753 m 0,0,1
 1601 588 1601 588 1541.5 439 c 128,-1,2
 1482 290 1482 290 1382.5 183.5 c 128,-1,3
 1283 77 1283 77 1147 14 c 128,-1,4
 1011 -49 1011 -49 861 -49 c 0,5,6
 715 -49 715 -49 580 13 c 128,-1,7
 445 75 445 75 344.5 180.5 c 128,-1,8
 244 286 244 286 184 436 c 128,-1,9
 124 586 124 586 124 753 c 0,10,11
 124 921 124 921 184 1072 c 128,-1,12
 244 1223 244 1223 343.5 1331 c 128,-1,13
 443 1439 443 1439 578.5 1502 c 128,-1,14
 714 1565 714 1565 861 1565 c 0,15,16
 1010 1565 1010 1565 1146.5 1501 c 128,-1,17
 1283 1437 1283 1437 1382.5 1329 c 128,-1,18
 1482 1221 1482 1221 1541.5 1070.5 c 128,-1,19
 1601 920 1601 920 1601 753 c 0,0,1
864 2 m 0,20,21
 910 2 910 2 958 13.5 c 128,-1,22
 1006 25 1006 25 1058 52 c 128,-1,23
 1110 79 1110 79 1156.5 119 c 128,-1,24
 1203 159 1203 159 1245.5 220 c 128,-1,25
 1288 281 1288 281 1318.5 356 c 128,-1,26
 1349 431 1349 431 1367 533 c 128,-1,27
 1385 635 1385 635 1385 753 c 0,28,29
 1385 870 1385 870 1368 971.5 c 128,-1,30
 1351 1073 1351 1073 1321 1149.5 c 128,-1,31
 1291 1226 1291 1226 1249.5 1288.5 c 128,-1,32
 1208 1351 1208 1351 1161.5 1393 c 128,-1,33
 1115 1435 1115 1435 1063 1463 c 128,-1,34
 1011 1491 1011 1491 961 1503.5 c 128,-1,35
 911 1516 911 1516 861 1516 c 0,36,37
 814 1516 814 1516 765 1504 c 128,-1,38
 716 1492 716 1492 664.5 1464.5 c 128,-1,39
 613 1437 613 1437 566.5 1396 c 128,-1,40
 520 1355 520 1355 478 1292.5 c 128,-1,41
 436 1230 436 1230 405.5 1153.5 c 128,-1,42
 375 1077 375 1077 357.5 974 c 128,-1,43
 340 871 340 871 340 753 c 0,44,45
 340 637 340 637 357.5 535.5 c 128,-1,46
 375 434 375 434 405 359 c 128,-1,47
 435 284 435 284 476.5 223 c 128,-1,48
 518 162 518 162 565 121.5 c 128,-1,49
 612 81 612 81 664 53.5 c 128,-1,50
 716 26 716 26 765.5 14 c 128,-1,51
 815 2 815 2 864 2 c 0,20,21
1259 919 m 1,52,-1
 1259 599 l 1,53,-1
 1203 599 l 1,54,-1
 1203 675 l 1,55,-1
 522 675 l 1,56,-1
 522 599 l 1,57,-1
 466 599 l 1,58,-1
 466 919 l 1,59,-1
 522 919 l 1,60,-1
 522 844 l 1,61,-1
 1203 844 l 1,62,-1
 1203 919 l 1,63,-1
 1259 919 l 1,52,-1
EndSplineSet
Validated: 1
EndChar

StartChar: Iota
Encoding: 921 921 276
Width: 801
VWidth: 2220
Flags: W
HStem: 0 69<62 62 739 739> 1447 69<62 62 739 739>
VStem: 302 198<173 1343>
LayerCount: 2
Fore
SplineSet
500 1343 m 2,0,-1
 500 173 l 2,1,2
 500 150 500 150 501 137.5 c 128,-1,3
 502 125 502 125 508 111 c 128,-1,4
 514 97 514 97 525 90.5 c 128,-1,5
 536 84 536 84 556.5 78 c 128,-1,6
 577 72 577 72 607 70.5 c 128,-1,7
 637 69 637 69 682 69 c 2,8,-1
 739 69 l 1,9,-1
 739 0 l 1,10,11
 661 7 661 7 400 7 c 0,12,13
 140 7 140 7 62 0 c 1,14,-1
 62 69 l 1,15,-1
 120 69 l 2,16,17
 164 69 164 69 194 70.5 c 128,-1,18
 224 72 224 72 245 78 c 128,-1,19
 266 84 266 84 277 90.5 c 128,-1,20
 288 97 288 97 293.5 111 c 128,-1,21
 299 125 299 125 300.5 137.5 c 128,-1,22
 302 150 302 150 302 173 c 2,23,-1
 302 1343 l 2,24,25
 302 1366 302 1366 300.5 1378.5 c 128,-1,26
 299 1391 299 1391 293.5 1405 c 128,-1,27
 288 1419 288 1419 277 1425.5 c 128,-1,28
 266 1432 266 1432 245 1438 c 128,-1,29
 224 1444 224 1444 194 1445.5 c 128,-1,30
 164 1447 164 1447 120 1447 c 2,31,-1
 62 1447 l 1,32,-1
 62 1516 l 1,33,34
 140 1509 140 1509 402 1510 c 0,35,36
 662 1510 662 1510 739 1516 c 1,37,-1
 739 1447 l 1,38,-1
 682 1447 l 2,39,40
 638 1447 638 1447 607.5 1445.5 c 128,-1,41
 577 1444 577 1444 556.5 1438 c 128,-1,42
 536 1432 536 1432 525 1425.5 c 128,-1,43
 514 1419 514 1419 508 1405 c 128,-1,44
 502 1391 502 1391 501 1378.5 c 128,-1,45
 500 1366 500 1366 500 1343 c 2,0,-1
EndSplineSet
Validated: 33
EndChar

StartChar: Kappa
Encoding: 922 922 277
Width: 1724
VWidth: 2220
Flags: W
HStem: 0 69<73 73 728 728 1061 1061 1634 1634> 1447 69<73 73 728 728 1132 1132 1603 1603>
VStem: 302 198<173 562 637 1343>
LayerCount: 2
Fore
SplineSet
888 930 m 1,0,-1
 1401 175 l 2,1,2
 1426 138 1426 138 1447.5 117 c 128,-1,3
 1469 96 1469 96 1498 85.5 c 128,-1,4
 1527 75 1527 75 1555.5 72 c 128,-1,5
 1584 69 1584 69 1634 69 c 1,6,-1
 1634 0 l 1,7,8
 1494 7 1494 7 1379 7 c 0,9,10
 1139 7 1139 7 1061 0 c 1,11,-1
 1061 69 l 1,12,13
 1077 69 1077 69 1086.5 69.5 c 128,-1,14
 1096 70 1096 70 1114 71.5 c 128,-1,15
 1132 73 1132 73 1143.5 77.5 c 128,-1,16
 1155 82 1155 82 1167.5 88.5 c 128,-1,17
 1180 95 1180 95 1186 107 c 128,-1,18
 1192 119 1192 119 1192 135 c 0,19,20
 1192 161 1192 161 1159 211 c 2,21,-1
 757 806 l 1,22,-1
 500 562 l 1,23,-1
 500 173 l 2,24,25
 500 153 500 153 500.5 142 c 128,-1,26
 501 131 501 131 504 117.5 c 128,-1,27
 507 104 507 104 514.5 98 c 128,-1,28
 522 92 522 92 534 85 c 128,-1,29
 546 78 546 78 565.5 75.5 c 128,-1,30
 585 73 585 73 611.5 71 c 128,-1,31
 638 69 638 69 675 69 c 2,32,-1
 728 69 l 1,33,-1
 728 0 l 1,34,35
 650 7 650 7 400 7 c 0,36,37
 151 7 151 7 73 0 c 1,38,-1
 73 69 l 1,39,-1
 127 69 l 2,40,41
 164 69 164 69 190.5 71 c 128,-1,42
 217 73 217 73 236 75.5 c 128,-1,43
 255 78 255 78 267 85 c 128,-1,44
 279 92 279 92 286.5 98 c 128,-1,45
 294 104 294 104 297 117.5 c 128,-1,46
 300 131 300 131 301 142 c 128,-1,47
 302 153 302 153 302 173 c 2,48,-1
 302 1343 l 2,49,50
 302 1363 302 1363 301 1374 c 128,-1,51
 300 1385 300 1385 297 1398.5 c 128,-1,52
 294 1412 294 1412 286.5 1418 c 128,-1,53
 279 1424 279 1424 267 1431 c 128,-1,54
 255 1438 255 1438 236 1441 c 128,-1,55
 217 1444 217 1444 190.5 1445.5 c 128,-1,56
 164 1447 164 1447 127 1447 c 2,57,-1
 73 1447 l 1,58,-1
 73 1516 l 1,59,60
 151 1509 151 1509 402 1510 c 0,61,62
 651 1510 651 1510 728 1516 c 1,63,-1
 728 1447 l 1,64,-1
 675 1447 l 2,65,66
 638 1447 638 1447 611.5 1445.5 c 128,-1,67
 585 1444 585 1444 565.5 1441 c 128,-1,68
 546 1438 546 1438 534 1431 c 128,-1,69
 522 1424 522 1424 514.5 1418 c 128,-1,70
 507 1412 507 1412 504 1398.5 c 128,-1,71
 501 1385 501 1385 500.5 1374.5 c 128,-1,72
 500 1364 500 1364 500 1343 c 2,73,-1
 500 637 l 1,74,-1
 1194 1301 l 2,75,76
 1234 1336 1234 1336 1234 1374 c 0,77,78
 1234 1384 1234 1384 1230.5 1394 c 128,-1,79
 1227 1404 1227 1404 1217 1417 c 128,-1,80
 1207 1430 1207 1430 1185 1438.5 c 128,-1,81
 1163 1447 1163 1447 1132 1447 c 1,82,-1
 1132 1516 l 1,83,84
 1207 1509 1207 1509 1414 1510 c 0,85,86
 1545 1510 1545 1510 1603 1516 c 1,87,-1
 1603 1447 l 1,88,89
 1552 1446 1552 1446 1502.5 1433.5 c 128,-1,90
 1453 1421 1453 1421 1419.5 1405 c 128,-1,91
 1386 1389 1386 1389 1354.5 1367.5 c 128,-1,92
 1323 1346 1323 1346 1310.5 1335 c 128,-1,93
 1298 1324 1298 1324 1288 1314 c 2,94,-1
 888 930 l 1,0,-1
EndSplineSet
Validated: 33
EndChar

StartChar: Lambda
Encoding: 923 923 278
Width: 1540
VWidth: 2220
Flags: W
HStem: 0 69<71 71 528 528 875 875 1467 1467> 1545 44<753 783>
VStem: 71 1396<0 69>
LayerCount: 2
Fore
SplineSet
821 1543 m 2,0,-1
 1265 164 l 2,1,2
 1273 139 1273 139 1277.5 128 c 128,-1,3
 1282 117 1282 117 1292 103.5 c 128,-1,4
 1302 90 1302 90 1313 85.5 c 128,-1,5
 1324 81 1324 81 1346 76 c 128,-1,6
 1368 71 1368 71 1395.5 70 c 128,-1,7
 1423 69 1423 69 1467 69 c 1,8,-1
 1467 0 l 1,9,10
 1207 7 1207 7 1194 7 c 0,11,12
 952 7 952 7 875 0 c 1,13,-1
 875 69 l 1,14,15
 896 69 896 69 909.5 69.5 c 128,-1,16
 923 70 923 70 948.5 71.5 c 128,-1,17
 974 73 974 73 991 77.5 c 128,-1,18
 1008 82 1008 82 1026.5 88.5 c 128,-1,19
 1045 95 1045 95 1054 107.5 c 128,-1,20
 1063 120 1063 120 1063 135 c 0,21,22
 1063 144 1063 144 1052 175 c 2,23,-1
 702 1268 l 1,24,-1
 369 233 l 2,25,26
 358 202 358 202 357 184 c 0,27,28
 357 139 357 139 401 104.5 c 128,-1,29
 445 70 445 70 528 69 c 1,30,-1
 528 0 l 1,31,32
 322 7 322 7 278 7 c 0,33,34
 181 7 181 7 71 0 c 1,35,-1
 71 69 l 1,36,37
 116 69 116 69 152 79 c 128,-1,38
 188 89 188 89 210 103.5 c 128,-1,39
 232 118 232 118 250 140 c 128,-1,40
 268 162 268 162 276.5 180 c 128,-1,41
 285 198 285 198 293 222 c 2,42,-1
 719 1543 l 2,43,44
 728 1573 728 1573 736.5 1581.5 c 128,-1,45
 745 1590 745 1590 770 1590 c 0,46,47
 790 1590 790 1590 801 1581.5 c 128,-1,48
 812 1573 812 1573 821 1543 c 2,0,-1
EndSplineSet
Validated: 1
EndChar

StartChar: Mu
Encoding: 924 924 279
Width: 2033
VWidth: 2220
Flags: W
HStem: 0 69<82 82 602 602 1314 1314 1951 1951> 1447 69<82 135 1813 1898 1898 1951>
VStem: 311 62<233 1343 1343 1383> 1543 180<173 1343>
LayerCount: 2
Fore
SplineSet
535 1467 m 2,0,-1
 1017 224 l 1,1,-1
 1503 1474 l 2,2,3
 1515 1505 1515 1505 1524.5 1510.5 c 128,-1,4
 1534 1516 1534 1516 1576 1516 c 2,5,-1
 1951 1516 l 1,6,-1
 1951 1447 l 1,7,-1
 1898 1447 l 2,8,9
 1861 1447 1861 1447 1834.5 1445.5 c 128,-1,10
 1808 1444 1808 1444 1788.5 1441 c 128,-1,11
 1769 1438 1769 1438 1757 1431 c 128,-1,12
 1745 1424 1745 1424 1738 1418 c 128,-1,13
 1731 1412 1731 1412 1727.5 1398.5 c 128,-1,14
 1724 1385 1724 1385 1723.5 1374.5 c 128,-1,15
 1723 1364 1723 1364 1723 1343 c 2,16,-1
 1723 173 l 2,17,18
 1723 153 1723 153 1723.5 142 c 128,-1,19
 1724 131 1724 131 1727.5 117.5 c 128,-1,20
 1731 104 1731 104 1738 98 c 128,-1,21
 1745 92 1745 92 1757 85 c 128,-1,22
 1769 78 1769 78 1788.5 75.5 c 128,-1,23
 1808 73 1808 73 1834.5 71 c 128,-1,24
 1861 69 1861 69 1898 69 c 2,25,-1
 1951 69 l 1,26,-1
 1951 0 l 1,27,28
 1869 7 1869 7 1634 7 c 0,29,30
 1396 7 1396 7 1314 0 c 1,31,-1
 1314 69 l 1,32,-1
 1368 69 l 2,33,34
 1405 69 1405 69 1431.5 71 c 128,-1,35
 1458 73 1458 73 1477 75.5 c 128,-1,36
 1496 78 1496 78 1508 85 c 128,-1,37
 1520 92 1520 92 1527.5 98 c 128,-1,38
 1535 104 1535 104 1538 117.5 c 128,-1,39
 1541 131 1541 131 1542 142 c 128,-1,40
 1543 153 1543 153 1543 173 c 2,41,-1
 1543 1447 l 1,42,-1
 1541 1447 l 1,43,-1
 995 42 l 2,44,45
 989 27 989 27 985.5 20 c 128,-1,46
 982 13 982 13 974 6.5 c 128,-1,47
 966 0 966 0 955 0 c 0,48,49
 940 0 940 0 930 12 c 128,-1,50
 920 24 920 24 910 49 c 2,51,-1
 375 1430 l 1,52,-1
 373 1430 l 1,53,-1
 373 233 l 2,54,55
 373 215 373 215 373.5 204.5 c 128,-1,56
 374 194 374 194 378.5 174.5 c 128,-1,57
 383 155 383 155 391 143 c 128,-1,58
 399 131 399 131 416 115 c 128,-1,59
 433 99 433 99 456.5 90.5 c 128,-1,60
 480 82 480 82 517 75.5 c 128,-1,61
 554 69 554 69 602 69 c 1,62,-1
 602 0 l 1,63,64
 369 7 369 7 342 7 c 128,-1,65
 315 7 315 7 82 0 c 1,66,-1
 82 69 l 1,67,68
 129 69 129 69 166.5 75.5 c 128,-1,69
 204 82 204 82 227.5 90.5 c 128,-1,70
 251 99 251 99 268 115 c 128,-1,71
 285 131 285 131 293 143 c 128,-1,72
 301 155 301 155 305.5 174.5 c 128,-1,73
 310 194 310 194 310.5 204.5 c 128,-1,74
 311 215 311 215 311 233 c 2,75,-1
 311 1343 l 2,76,77
 311 1363 311 1363 310 1374 c 128,-1,78
 309 1385 309 1385 306 1398.5 c 128,-1,79
 303 1412 303 1412 295.5 1418 c 128,-1,80
 288 1424 288 1424 276 1431 c 128,-1,81
 264 1438 264 1438 244.5 1441 c 128,-1,82
 225 1444 225 1444 199 1445.5 c 128,-1,83
 173 1447 173 1447 135 1447 c 2,84,-1
 82 1447 l 1,85,-1
 82 1516 l 1,86,-1
 457 1516 l 2,87,88
 497 1516 497 1516 509 1509 c 128,-1,89
 521 1502 521 1502 535 1467 c 2,0,-1
EndSplineSet
Validated: 1
EndChar

StartChar: Nu
Encoding: 925 925 280
Width: 1665
VWidth: 2220
Flags: W
HStem: 0 69<73 73 593 593> 1447 69<73 138>
VStem: 302 62<233 1388> 1299 62<335 1283>
LayerCount: 2
Fore
SplineSet
515 1487 m 2,0,-1
 1299 335 l 1,1,-1
 1299 1283 l 2,2,3
 1299 1301 1299 1301 1298.5 1311.5 c 128,-1,4
 1298 1322 1298 1322 1293.5 1341.5 c 128,-1,5
 1289 1361 1289 1361 1281 1373.5 c 128,-1,6
 1273 1386 1273 1386 1256 1401.5 c 128,-1,7
 1239 1417 1239 1417 1215.5 1426 c 128,-1,8
 1192 1435 1192 1435 1154.5 1441 c 128,-1,9
 1117 1447 1117 1447 1070 1447 c 1,10,-1
 1070 1516 l 1,11,12
 1303 1509 1303 1509 1329.5 1509.5 c 128,-1,13
 1356 1510 1356 1510 1590 1516 c 1,14,-1
 1590 1447 l 1,15,16
 1543 1447 1543 1447 1505.5 1441 c 128,-1,17
 1468 1435 1468 1435 1444 1426 c 128,-1,18
 1420 1417 1420 1417 1403.5 1401.5 c 128,-1,19
 1387 1386 1387 1386 1379 1373.5 c 128,-1,20
 1371 1361 1371 1361 1366.5 1341.5 c 128,-1,21
 1362 1322 1362 1322 1361.5 1311.5 c 128,-1,22
 1361 1301 1361 1301 1361 1283 c 2,23,-1
 1361 58 l 2,24,25
 1361 42 1361 42 1360.5 35 c 128,-1,26
 1360 28 1360 28 1358.5 19.5 c 128,-1,27
 1357 11 1357 11 1354 8 c 128,-1,28
 1351 5 1351 5 1345 2.5 c 128,-1,29
 1339 0 1339 0 1330 0 c 0,30,31
 1318 0 1318 0 1312.5 4.5 c 128,-1,32
 1307 9 1307 9 1292 29 c 2,33,-1
 386 1361 l 2,34,35
 377 1374 377 1374 364 1388 c 1,36,-1
 364 233 l 2,37,38
 364 215 364 215 364.5 204.5 c 128,-1,39
 365 194 365 194 369.5 174.5 c 128,-1,40
 374 155 374 155 382 143 c 128,-1,41
 390 131 390 131 407 115 c 128,-1,42
 424 99 424 99 447.5 90.5 c 128,-1,43
 471 82 471 82 508 75.5 c 128,-1,44
 545 69 545 69 593 69 c 1,45,-1
 593 0 l 1,46,47
 360 7 360 7 333 7 c 128,-1,48
 306 7 306 7 73 0 c 1,49,-1
 73 69 l 1,50,51
 120 69 120 69 157.5 75.5 c 128,-1,52
 195 82 195 82 218.5 90.5 c 128,-1,53
 242 99 242 99 259 115 c 128,-1,54
 276 131 276 131 284 143 c 128,-1,55
 292 155 292 155 296.5 174.5 c 128,-1,56
 301 194 301 194 301.5 204.5 c 128,-1,57
 302 215 302 215 302 233 c 2,58,-1
 302 1392 l 2,59,60
 302 1424 302 1424 294.5 1431 c 128,-1,61
 287 1438 287 1438 249 1443 c 0,62,63
 182 1447 182 1447 138 1447 c 2,64,-1
 73 1447 l 1,65,-1
 73 1516 l 1,66,-1
 451 1516 l 2,67,68
 482 1516 482 1516 491 1511.5 c 128,-1,69
 500 1507 500 1507 515 1487 c 2,0,-1
EndSplineSet
Validated: 33
EndChar

StartChar: Xi
Encoding: 926 926 281
Width: 1478
VWidth: 2220
Flags: W
HStem: 0 155<353 1126 1126 1150> 326 44<93 149 149 149 1330 1385 1385 1385> 591 47<309 364 309 309 1114 1170 1114 1114> 704 155<364 1114> 928 44<309 364 364 364 1114 1170 1170 1170> 1157 47<104 160 104 104 1319 1374 1319 1319> 1348 155<345 355 355 1123>
VStem: 93 64 309 56<591 704 859 972> 1114 56<591 704 704 704 859 972> 1321 64
LayerCount: 2
Fore
SplineSet
1356 1503 m 1,0,-1
 1374 1157 l 1,1,-1
 1319 1157 l 1,2,3
 1312 1299 1312 1299 1292 1330 c 0,4,5
 1279 1348 1279 1348 1123 1348 c 2,6,-1
 355 1348 l 2,7,8
 200 1348 200 1348 186 1330 c 0,9,10
 166 1299 166 1299 160 1157 c 1,11,-1
 104 1157 l 1,12,-1
 122 1503 l 1,13,-1
 1356 1503 l 1,0,-1
111 0 m 1,14,-1
 93 371 l 1,15,-1
 149 371 l 1,16,17
 153 286 153 286 158 241.5 c 128,-1,18
 163 197 163 197 175 178 c 0,19,20
 191 156 191 156 353 155 c 2,21,-1
 1126 155 l 2,22,23
 1290 155 1290 155 1303 180 c 0,24,25
 1308 189 1308 189 1312 202 c 128,-1,26
 1316 215 1316 215 1318.5 231 c 128,-1,27
 1321 247 1321 247 1323 268 c 128,-1,28
 1325 289 1325 289 1326.5 314.5 c 128,-1,29
 1328 340 1328 340 1330 371 c 1,30,-1
 1385 371 l 1,31,-1
 1368 0 l 1,32,-1
 111 0 l 1,14,-1
1170 972 m 1,33,-1
 1170 591 l 1,34,-1
 1114 591 l 1,35,-1
 1114 704 l 1,36,-1
 364 704 l 1,37,-1
 364 591 l 1,38,-1
 309 591 l 1,39,-1
 309 972 l 1,40,-1
 364 972 l 1,41,-1
 364 859 l 1,42,-1
 1114 859 l 1,43,-1
 1114 972 l 1,44,-1
 1170 972 l 1,33,-1
EndSplineSet
Validated: 1
EndChar

StartChar: Omicron
Encoding: 927 927 282
Width: 1724
VWidth: 2220
Flags: W
HStem: -49 58<757 966> 1510 56<769 958>
VStem: 124 229<525 981> 1372 229<528 979>
LayerCount: 2
Fore
SplineSet
1601 753 m 0,0,1
 1601 588 1601 588 1541.5 439 c 128,-1,2
 1482 290 1482 290 1382.5 183.5 c 128,-1,3
 1283 77 1283 77 1147 14 c 128,-1,4
 1011 -49 1011 -49 861 -49 c 0,5,6
 715 -49 715 -49 580 13 c 128,-1,7
 445 75 445 75 344.5 180.5 c 128,-1,8
 244 286 244 286 184 436 c 128,-1,9
 124 586 124 586 124 753 c 0,10,11
 124 921 124 921 184 1072 c 128,-1,12
 244 1223 244 1223 343.5 1331 c 128,-1,13
 443 1439 443 1439 578.5 1502 c 128,-1,14
 714 1565 714 1565 861 1565 c 0,15,16
 1010 1565 1010 1565 1146.5 1501 c 128,-1,17
 1283 1437 1283 1437 1382.5 1329 c 128,-1,18
 1482 1221 1482 1221 1541.5 1070.5 c 128,-1,19
 1601 920 1601 920 1601 753 c 0,0,1
864 9 m 0,20,21
 910 9 910 9 956.5 20.5 c 128,-1,22
 1003 32 1003 32 1053.5 59.5 c 128,-1,23
 1104 87 1104 87 1149.5 128 c 128,-1,24
 1195 169 1195 169 1236 232 c 128,-1,25
 1277 295 1277 295 1307 372.5 c 128,-1,26
 1337 450 1337 450 1354.5 555.5 c 128,-1,27
 1372 661 1372 661 1372 784 c 0,28,29
 1372 902 1372 902 1353.5 1003 c 128,-1,30
 1335 1104 1335 1104 1304.5 1176.5 c 128,-1,31
 1274 1249 1274 1249 1231.5 1307.5 c 128,-1,32
 1189 1366 1189 1366 1143.5 1403 c 128,-1,33
 1098 1440 1098 1440 1047 1464.5 c 128,-1,34
 996 1489 996 1489 950.5 1499.5 c 128,-1,35
 905 1510 905 1510 861 1510 c 0,36,37
 819 1510 819 1510 775 1500 c 128,-1,38
 731 1490 731 1490 680.5 1466 c 128,-1,39
 630 1442 630 1442 584 1405.5 c 128,-1,40
 538 1369 538 1369 495.5 1310.5 c 128,-1,41
 453 1252 453 1252 421.5 1179 c 128,-1,42
 390 1106 390 1106 371.5 1004.5 c 128,-1,43
 353 903 353 903 353 784 c 0,44,45
 353 664 353 664 370 559 c 128,-1,46
 387 454 387 454 416.5 376.5 c 128,-1,47
 446 299 446 299 487 236 c 128,-1,48
 528 173 528 173 573.5 131 c 128,-1,49
 619 89 619 89 669.5 61 c 128,-1,50
 720 33 720 33 768.5 21 c 128,-1,51
 817 9 817 9 864 9 c 0,20,21
EndSplineSet
Validated: 1
EndChar

StartChar: Pi
Encoding: 928 928 283
Width: 1665
VWidth: 2220
Flags: W
HStem: 0 69<73 73 728 728 935 935 1590 1590> 1441 69<73 127 500 1163 500 500 1451 1536 1536 1590>
VStem: 302 198<173 1336 1336 1376> 1163 198<173 1336>
LayerCount: 2
Fore
SplineSet
1361 1336 m 2,0,-1
 1361 173 l 2,1,2
 1361 153 1361 153 1361.5 142 c 128,-1,3
 1362 131 1362 131 1365.5 117.5 c 128,-1,4
 1369 104 1369 104 1376 98 c 128,-1,5
 1383 92 1383 92 1395 85 c 128,-1,6
 1407 78 1407 78 1426.5 75.5 c 128,-1,7
 1446 73 1446 73 1472.5 71 c 128,-1,8
 1499 69 1499 69 1536 69 c 2,9,-1
 1590 69 l 1,10,-1
 1590 0 l 1,11,12
 1512 7 1512 7 1261 7 c 0,13,14
 1012 7 1012 7 935 0 c 1,15,-1
 935 69 l 1,16,-1
 988 69 l 2,17,18
 1025 69 1025 69 1051.5 71 c 128,-1,19
 1078 73 1078 73 1097.5 75.5 c 128,-1,20
 1117 78 1117 78 1129 85 c 128,-1,21
 1141 92 1141 92 1148 98 c 128,-1,22
 1155 104 1155 104 1158.5 117.5 c 128,-1,23
 1162 131 1162 131 1162.5 142 c 128,-1,24
 1163 153 1163 153 1163 173 c 2,25,-1
 1163 1441 l 1,26,-1
 500 1441 l 1,27,-1
 500 173 l 2,28,29
 500 153 500 153 500.5 142 c 128,-1,30
 501 131 501 131 504 117.5 c 128,-1,31
 507 104 507 104 514.5 98 c 128,-1,32
 522 92 522 92 534 85 c 128,-1,33
 546 78 546 78 565.5 75.5 c 128,-1,34
 585 73 585 73 611.5 71 c 128,-1,35
 638 69 638 69 675 69 c 2,36,-1
 728 69 l 1,37,-1
 728 0 l 1,38,39
 650 7 650 7 400 7 c 0,40,41
 151 7 151 7 73 0 c 1,42,-1
 73 69 l 1,43,-1
 127 69 l 2,44,45
 164 69 164 69 190.5 71 c 128,-1,46
 217 73 217 73 236 75.5 c 128,-1,47
 255 78 255 78 267 85 c 128,-1,48
 279 92 279 92 286.5 98 c 128,-1,49
 294 104 294 104 297 117.5 c 128,-1,50
 300 131 300 131 301 142 c 128,-1,51
 302 153 302 153 302 173 c 2,52,-1
 302 1336 l 2,53,54
 302 1356 302 1356 301 1367 c 128,-1,55
 300 1378 300 1378 297 1391.5 c 128,-1,56
 294 1405 294 1405 286.5 1411.5 c 128,-1,57
 279 1418 279 1418 267 1425 c 128,-1,58
 255 1432 255 1432 236 1434.5 c 128,-1,59
 217 1437 217 1437 190.5 1439 c 128,-1,60
 164 1441 164 1441 127 1441 c 2,61,-1
 73 1441 l 1,62,-1
 73 1510 l 1,63,-1
 1590 1510 l 1,64,-1
 1590 1441 l 1,65,-1
 1536 1441 l 2,66,67
 1499 1441 1499 1441 1472.5 1439 c 128,-1,68
 1446 1437 1446 1437 1426.5 1434.5 c 128,-1,69
 1407 1432 1407 1432 1395 1425 c 128,-1,70
 1383 1418 1383 1418 1376 1411.5 c 128,-1,71
 1369 1405 1369 1405 1365.5 1391.5 c 128,-1,72
 1362 1378 1362 1378 1361.5 1367 c 128,-1,73
 1361 1356 1361 1356 1361 1336 c 2,0,-1
EndSplineSet
Validated: 1
EndChar

